{"glyphs":{"0":{"ha":867,"x_min":0,"x_max":0,"o":"m 56 486 b 433 -15 56 185 208 -15 b 813 486 661 -15 813 185 b 433 988 813 788 661 988 b 56 486 208 988 56 788 z m 217 486 b 433 840 217 696 300 840 b 651 486 567 840 651 696 b 433 132 651 276 567 132 b 217 486 300 132 217 276 z "},"1":{"ha":657,"x_min":0,"x_max":0,"o":"m 104 744 l 329 807 l 329 0 l 492 0 l 492 988 l 104 900 z "},"2":{"ha":838,"x_min":0,"x_max":0,"o":"m 28 0 l 769 0 l 769 153 l 349 153 l 624 424 b 757 697 703 499 757 596 b 425 989 757 826 650 989 b 81 628 203 989 81 835 l 243 628 b 422 842 243 758 311 842 b 588 689 529 842 588 765 b 476 474 588 611 546 547 z "},"3":{"ha":800,"x_min":0,"x_max":0,"o":"m 413 -17 b 746 260 613 -17 746 93 b 551 510 746 392 668 472 b 718 725 653 550 718 626 b 419 988 718 868 607 988 b 118 714 240 988 118 874 l 272 714 b 421 849 272 792 338 849 b 553 717 508 849 553 794 b 364 564 553 633 482 564 l 364 440 b 581 278 496 440 581 382 b 415 125 581 181 514 125 b 242 278 317 125 242 185 l 76 278 b 413 -17 76 118 206 -17 z "},"4":{"ha":874,"x_min":0,"x_max":0,"o":"m 25 186 l 504 186 l 504 0 l 672 0 l 672 186 l 825 186 l 825 328 l 672 328 l 672 972 l 574 972 z m 265 315 l 514 679 l 514 315 z "},"5":{"ha":828,"x_min":0,"x_max":0,"o":"m 772 317 b 481 640 772 513 642 640 b 326 606 426 640 375 629 l 388 828 l 764 828 l 764 972 l 264 972 l 132 438 b 390 514 231 499 304 514 b 597 326 503 514 597 444 b 390 138 597 208 521 138 b 144 275 297 138 201 199 l 49 157 b 413 -15 124 63 233 -15 b 772 317 600 -15 772 93 z "},"6":{"ha":851,"x_min":0,"x_max":0,"o":"m 460 971 l 151 557 b 69 328 103 494 69 418 b 426 -17 69 113 226 -17 b 783 328 626 -17 783 113 b 490 643 783 514 643 643 b 389 625 450 643 418 639 l 668 971 z m 229 328 b 426 532 229 447 314 532 b 622 328 539 532 622 447 b 426 126 622 208 539 126 b 229 328 314 126 229 208 z "},"7":{"ha":772,"x_min":0,"x_max":0,"o":"m 42 818 l 524 818 l 125 0 l 300 0 l 767 972 l 42 972 z "},"8":{"ha":803,"x_min":0,"x_max":0,"o":"m 75 264 b 401 -17 75 101 221 -17 b 729 264 582 -17 729 101 b 551 517 729 393 651 476 b 694 738 636 556 694 631 b 401 989 694 886 565 989 b 110 738 238 989 110 886 b 251 517 110 631 167 556 b 75 264 153 476 75 393 z m 265 721 b 401 860 265 801 322 860 b 538 721 481 860 538 801 b 401 583 538 640 476 583 b 265 721 326 583 265 640 z m 236 286 b 401 450 236 378 315 450 b 568 286 488 450 568 378 b 401 121 568 181 488 121 b 236 286 315 121 236 181 z "},"9":{"ha":851,"x_min":0,"x_max":0,"o":"m 392 1 l 700 415 b 783 644 749 478 783 554 b 426 989 783 860 626 989 b 69 644 226 989 69 860 b 363 329 69 458 210 329 b 461 346 401 329 433 333 l 183 1 z m 622 644 b 426 440 622 525 539 440 b 229 644 314 440 229 525 b 426 846 229 764 314 846 b 622 644 539 846 622 764 z "},"A":{"ha":958,"x_min":0,"x_max":0,"o":"m 769 0 l 954 0 l 479 1026 l 4 0 l 189 0 l 300 250 l 658 250 z m 479 697 l 611 389 l 347 389 z "},"À":{"ha":958,"x_min":0,"x_max":0,"o":"m 281 1318 l 531 1110 l 617 1158 l 408 1381 z m 769 0 l 954 0 l 479 1026 l 4 0 l 189 0 l 300 250 l 658 250 z m 479 697 l 611 389 l 347 389 z "},"Á":{"ha":958,"x_min":0,"x_max":0,"o":"m 675 1318 l 549 1381 l 340 1158 l 425 1110 z m 769 0 l 954 0 l 479 1026 l 4 0 l 189 0 l 300 250 l 658 250 z m 479 697 l 611 389 l 347 389 z "},"Â":{"ha":958,"x_min":0,"x_max":0,"o":"m 479 1194 l 622 1068 l 722 1140 l 479 1335 l 236 1140 l 336 1068 z m 769 0 l 954 0 l 479 1026 l 4 0 l 189 0 l 300 250 l 658 250 z m 479 697 l 611 389 l 347 389 z "},"Ã":{"ha":958,"x_min":0,"x_max":0,"o":"m 232 1156 l 317 1090 b 385 1161 317 1111 329 1161 b 563 1093 450 1161 486 1093 b 726 1201 639 1093 704 1150 l 649 1278 b 565 1208 621 1233 594 1208 b 386 1276 489 1208 476 1276 b 232 1156 313 1276 246 1224 z m 769 0 l 954 0 l 479 1026 l 4 0 l 189 0 l 300 250 l 658 250 z m 479 697 l 611 389 l 347 389 z "},"Ä":{"ha":958,"x_min":0,"x_max":0,"o":"m 219 1172 b 314 1082 219 1121 261 1082 b 410 1172 367 1082 410 1121 b 314 1264 410 1224 367 1264 b 219 1172 261 1264 219 1224 z m 546 1169 b 640 1078 546 1118 588 1078 b 735 1169 693 1078 735 1118 b 640 1261 735 1221 693 1261 b 546 1169 588 1261 546 1221 z m 769 0 l 954 0 l 479 1026 l 4 0 l 189 0 l 300 250 l 658 250 z m 479 697 l 611 389 l 347 389 z "},"Å":{"ha":958,"x_min":0,"x_max":0,"o":"m 325 1110 b 451 965 325 1032 381 976 l 4 0 l 189 0 l 300 250 l 658 250 l 769 0 l 954 0 l 507 965 b 633 1110 578 976 633 1032 b 479 1257 633 1199 561 1257 b 325 1110 397 1257 325 1199 z m 411 1110 b 479 1181 411 1154 444 1181 b 547 1110 514 1181 547 1154 b 479 1039 547 1065 514 1039 b 411 1110 444 1039 411 1065 z m 479 697 l 611 389 l 347 389 z "},"Ā":{"ha":958,"x_min":0,"x_max":0,"o":"m 231 1110 l 728 1110 l 728 1244 l 231 1244 z m 769 0 l 954 0 l 479 1026 l 4 0 l 189 0 l 300 250 l 658 250 z m 479 697 l 611 389 l 347 389 z "},"Ă":{"ha":958,"x_min":0,"x_max":0,"o":"m 256 1307 b 479 1110 256 1204 333 1110 b 703 1307 625 1110 703 1204 l 588 1307 b 479 1211 588 1265 560 1211 b 371 1307 399 1211 371 1265 z m 769 0 l 954 0 l 479 1026 l 4 0 l 189 0 l 300 250 l 658 250 z m 479 697 l 611 389 l 347 389 z "},"Ą":{"ha":958,"x_min":0,"x_max":0,"o":"m 933 -169 b 864 -197 914 -187 897 -197 b 806 -136 825 -197 806 -181 b 926 0 806 -87 854 -33 l 954 0 l 479 1026 l 4 0 l 189 0 l 300 250 l 658 250 l 769 0 l 808 0 b 683 -167 738 -44 683 -100 b 851 -306 683 -251 746 -306 b 979 -250 918 -306 958 -278 z m 479 697 l 611 389 l 347 389 z "},"B":{"ha":833,"x_min":0,"x_max":0,"o":"m 768 281 b 561 526 768 417 681 494 b 713 728 656 561 713 631 b 401 972 713 893 586 972 l 108 972 l 108 0 l 418 0 b 768 281 622 0 768 88 z m 390 838 b 544 710 481 838 544 790 b 390 582 544 629 481 582 l 272 582 l 272 838 z m 272 135 l 272 454 l 408 454 b 600 297 519 454 600 403 b 408 135 600 189 519 135 z "},"C":{"ha":960,"x_min":0,"x_max":0,"o":"m 231 486 b 563 829 231 693 385 829 b 867 690 700 829 800 769 l 867 886 b 557 989 786 953 699 989 b 53 486 271 989 53 782 b 557 -17 53 190 271 -17 b 867 86 699 -17 786 19 l 867 282 b 563 143 800 203 700 143 b 231 486 385 143 231 279 z "},"Ç":{"ha":960,"x_min":0,"x_max":0,"o":"m 231 486 b 563 829 231 693 385 829 b 867 690 700 829 800 769 l 867 886 b 557 989 786 953 699 989 b 53 486 271 989 53 782 b 474 -11 53 219 229 26 l 394 -172 b 489 -149 432 -153 475 -149 b 564 -196 535 -149 564 -161 b 493 -249 564 -229 540 -249 b 403 -215 460 -249 432 -239 l 349 -286 b 504 -340 399 -326 442 -340 b 665 -201 585 -340 665 -292 b 554 -85 665 -124 604 -85 b 526 -87 544 -85 535 -86 l 571 -17 b 867 86 704 -14 789 22 l 867 282 b 563 143 800 203 700 143 b 231 486 385 143 231 279 z "},"Ć":{"ha":960,"x_min":0,"x_max":0,"o":"m 738 1281 l 611 1344 l 403 1122 l 488 1072 z m 231 486 b 563 829 231 693 385 829 b 867 690 700 829 800 769 l 867 886 b 557 989 786 953 699 989 b 53 486 271 989 53 782 b 557 -17 53 190 271 -17 b 867 86 699 -17 786 19 l 867 282 b 563 143 800 203 700 143 b 231 486 385 143 231 279 z "},"Ĉ":{"ha":960,"x_min":0,"x_max":0,"o":"m 557 1200 l 700 1072 l 800 1146 l 557 1340 l 314 1146 l 415 1072 z m 231 486 b 563 829 231 693 385 829 b 867 690 700 829 800 769 l 867 886 b 557 989 786 953 699 989 b 53 486 271 989 53 782 b 557 -17 53 190 271 -17 b 867 86 699 -17 786 19 l 867 282 b 563 143 800 203 700 143 b 231 486 385 143 231 279 z "},"Ċ":{"ha":960,"x_min":0,"x_max":0,"o":"m 449 1164 b 543 1072 449 1113 490 1072 b 638 1164 596 1072 638 1113 b 543 1256 638 1215 596 1256 b 449 1164 490 1256 449 1215 z m 231 486 b 563 829 231 693 385 829 b 867 690 700 829 800 769 l 867 886 b 557 989 786 953 699 989 b 53 486 271 989 53 782 b 557 -17 53 190 271 -17 b 867 86 699 -17 786 19 l 867 282 b 563 143 800 203 700 143 b 231 486 385 143 231 279 z "},"Č":{"ha":960,"x_min":0,"x_max":0,"o":"m 557 1214 l 415 1340 l 314 1267 l 557 1072 l 800 1267 l 700 1340 z m 231 486 b 563 829 231 693 385 829 b 867 690 700 829 800 769 l 867 886 b 557 989 786 953 699 989 b 53 486 271 989 53 782 b 557 -17 53 190 271 -17 b 867 86 699 -17 786 19 l 867 282 b 563 143 800 203 700 143 b 231 486 385 143 231 279 z "},"D":{"ha":974,"x_min":0,"x_max":0,"o":"m 422 0 b 922 486 719 0 922 193 b 422 972 922 779 719 972 l 108 972 l 108 0 z m 418 818 b 754 486 610 818 754 706 b 418 154 754 267 610 154 l 276 154 l 276 818 z "},"Ď":{"ha":974,"x_min":0,"x_max":0,"o":"m 483 1214 l 342 1340 l 240 1267 l 483 1072 l 726 1267 l 626 1340 z m 422 0 b 922 486 719 0 922 193 b 422 972 922 779 719 972 l 108 972 l 108 0 z m 418 818 b 754 486 610 818 754 706 b 418 154 754 267 610 154 l 276 154 l 276 818 z "},"E":{"ha":793,"x_min":0,"x_max":0,"o":"m 108 972 l 108 0 l 700 0 l 700 144 l 269 144 l 269 450 l 672 450 l 672 592 l 269 592 l 269 828 l 700 828 l 700 972 z "},"È":{"ha":793,"x_min":0,"x_max":0,"o":"m 206 1285 l 456 1076 l 540 1125 l 332 1347 z m 108 972 l 108 0 l 700 0 l 700 144 l 269 144 l 269 450 l 672 450 l 672 592 l 269 592 l 269 828 l 700 828 l 700 972 z "},"É":{"ha":793,"x_min":0,"x_max":0,"o":"m 600 1285 l 474 1347 l 265 1125 l 350 1076 z m 108 972 l 108 0 l 700 0 l 700 144 l 269 144 l 269 450 l 672 450 l 672 592 l 269 592 l 269 828 l 700 828 l 700 972 z "},"Ê":{"ha":793,"x_min":0,"x_max":0,"o":"m 414 1200 l 557 1072 l 657 1146 l 414 1340 l 171 1146 l 272 1072 z m 108 972 l 108 0 l 700 0 l 700 144 l 269 144 l 269 450 l 672 450 l 672 592 l 269 592 l 269 828 l 700 828 l 700 972 z "},"Ë":{"ha":793,"x_min":0,"x_max":0,"o":"m 471 1185 b 565 1094 471 1133 513 1094 b 660 1185 618 1094 660 1133 b 565 1276 660 1236 618 1276 b 471 1185 513 1276 471 1236 z m 168 1185 b 264 1094 168 1133 211 1094 b 358 1185 317 1094 358 1133 b 264 1276 358 1236 317 1276 b 168 1185 211 1276 168 1236 z m 108 972 l 108 0 l 700 0 l 700 144 l 269 144 l 269 450 l 672 450 l 672 592 l 269 592 l 269 828 l 700 828 l 700 972 z "},"Ē":{"ha":793,"x_min":0,"x_max":0,"o":"m 154 1072 l 653 1072 l 653 1208 l 154 1208 z m 108 972 l 108 0 l 700 0 l 700 144 l 269 144 l 269 450 l 672 450 l 672 592 l 269 592 l 269 828 l 700 828 l 700 972 z "},"Ĕ":{"ha":793,"x_min":0,"x_max":0,"o":"m 181 1271 b 403 1072 181 1168 257 1072 b 626 1271 549 1072 626 1168 l 513 1271 b 403 1175 513 1229 483 1175 b 294 1271 322 1175 294 1229 z m 108 972 l 108 0 l 700 0 l 700 144 l 269 144 l 269 450 l 672 450 l 672 592 l 269 592 l 269 828 l 700 828 l 700 972 z "},"Ė":{"ha":793,"x_min":0,"x_max":0,"o":"m 308 1164 b 403 1072 308 1113 350 1072 b 499 1164 456 1072 499 1113 b 403 1256 499 1215 456 1256 b 308 1164 350 1256 308 1215 z m 108 972 l 108 0 l 700 0 l 700 144 l 269 144 l 269 450 l 672 450 l 672 592 l 269 592 l 269 828 l 700 828 l 700 972 z "},"Ę":{"ha":793,"x_min":0,"x_max":0,"o":"m 526 -169 b 457 -197 507 -187 490 -197 b 397 -136 418 -197 397 -181 b 519 0 397 -87 447 -33 l 700 0 l 700 144 l 269 144 l 269 450 l 672 450 l 672 592 l 269 592 l 269 828 l 700 828 l 700 972 l 108 972 l 108 0 l 401 0 b 275 -167 331 -44 275 -100 b 443 -306 275 -251 338 -306 b 572 -250 510 -306 551 -278 z "},"Ě":{"ha":793,"x_min":0,"x_max":0,"o":"m 403 1214 l 261 1340 l 161 1267 l 403 1072 l 647 1267 l 546 1340 z m 108 972 l 108 0 l 700 0 l 700 144 l 269 144 l 269 450 l 672 450 l 672 592 l 269 592 l 269 828 l 700 828 l 700 972 z "},"F":{"ha":724,"x_min":0,"x_max":0,"o":"m 108 972 l 108 0 l 269 0 l 269 439 l 631 439 l 631 582 l 269 582 l 269 825 l 644 825 l 644 972 z "},"G":{"ha":1097,"x_min":0,"x_max":0,"o":"m 571 369 l 869 369 b 564 132 838 238 738 132 b 225 486 372 132 225 274 b 564 838 225 699 375 838 b 849 683 699 838 794 775 l 982 774 b 564 989 896 908 754 989 b 53 486 269 989 53 783 b 561 -21 53 189 267 -21 b 1039 508 872 -21 1046 224 l 571 508 z "},"Ĝ":{"ha":1097,"x_min":0,"x_max":0,"o":"m 564 1200 l 707 1072 l 807 1146 l 564 1340 l 321 1146 l 422 1072 z m 571 369 l 869 369 b 564 132 838 238 738 132 b 225 486 372 132 225 274 b 564 838 225 699 375 838 b 849 683 699 838 794 775 l 982 774 b 564 989 896 908 754 989 b 53 486 269 989 53 783 b 561 -21 53 189 267 -21 b 1039 508 872 -21 1046 224 l 571 508 z "},"Ğ":{"ha":1097,"x_min":0,"x_max":0,"o":"m 342 1271 b 564 1072 342 1168 418 1072 b 788 1271 710 1072 788 1168 l 672 1271 b 564 1175 672 1229 644 1175 b 456 1271 483 1175 456 1229 z m 571 369 l 869 369 b 564 132 838 238 738 132 b 225 486 372 132 225 274 b 564 838 225 699 375 838 b 849 683 699 838 794 775 l 982 774 b 564 989 896 908 754 989 b 53 486 269 989 53 783 b 561 -21 53 189 267 -21 b 1039 508 872 -21 1046 224 l 571 508 z "},"Ġ":{"ha":1097,"x_min":0,"x_max":0,"o":"m 469 1164 b 564 1072 469 1113 511 1072 b 658 1164 617 1072 658 1113 b 564 1256 658 1215 617 1256 b 469 1164 511 1256 469 1215 z m 571 369 l 869 369 b 564 132 838 238 738 132 b 225 486 372 132 225 274 b 564 838 225 699 375 838 b 849 683 699 838 794 775 l 982 774 b 564 989 896 908 754 989 b 53 486 269 989 53 783 b 561 -21 53 189 267 -21 b 1039 508 872 -21 1046 224 l 571 508 z "},"Ģ":{"ha":1097,"x_min":0,"x_max":0,"o":"m 571 369 l 869 369 b 564 132 838 238 738 132 b 225 486 372 132 225 274 b 564 838 225 699 375 838 b 849 683 699 838 794 775 l 982 774 b 564 989 896 908 754 989 b 53 486 269 989 53 783 b 561 -21 53 189 267 -21 b 1039 508 872 -21 1046 224 l 571 508 z m 529 -104 l 407 -464 l 518 -494 l 681 -147 z "},"H":{"ha":1032,"x_min":0,"x_max":0,"o":"m 108 972 l 108 0 l 272 0 l 272 446 l 761 446 l 761 0 l 925 0 l 925 972 l 761 972 l 761 597 l 272 597 l 272 972 z "},"Ĥ":{"ha":1032,"x_min":0,"x_max":0,"o":"m 517 1200 l 660 1072 l 760 1146 l 517 1340 l 274 1146 l 375 1072 z m 108 972 l 108 0 l 272 0 l 272 446 l 761 446 l 761 0 l 925 0 l 925 972 l 761 972 l 761 597 l 272 597 l 272 972 z "},"I":{"ha":382,"x_min":0,"x_max":0,"o":"m 108 972 l 108 0 l 274 0 l 274 972 z "},"Ì":{"ha":382,"x_min":0,"x_max":0,"o":"m -11 1285 l 239 1076 l 325 1125 l 117 1347 z m 108 972 l 108 0 l 274 0 l 274 972 z "},"Í":{"ha":382,"x_min":0,"x_max":0,"o":"m 383 1285 l 258 1347 l 50 1125 l 133 1076 z m 108 972 l 108 0 l 274 0 l 274 972 z "},"Î":{"ha":382,"x_min":0,"x_max":0,"o":"m 190 1200 l 333 1072 l 433 1146 l 190 1340 l -53 1146 l 49 1072 z m 108 972 l 108 0 l 274 0 l 274 972 z "},"Ï":{"ha":382,"x_min":0,"x_max":0,"o":"m 247 1164 b 342 1072 247 1113 289 1072 b 438 1164 394 1072 438 1113 b 342 1256 438 1215 394 1256 b 247 1164 289 1256 247 1215 z m -54 1164 b 39 1072 -54 1113 -14 1072 b 136 1164 92 1072 136 1113 b 39 1256 136 1215 92 1256 b -54 1164 -14 1256 -54 1215 z m 108 972 l 108 0 l 274 0 l 274 972 z "},"Ĩ":{"ha":382,"x_min":0,"x_max":0,"o":"m -56 1140 l 29 1075 b 97 1146 29 1096 42 1146 b 275 1078 163 1146 199 1078 b 439 1185 351 1078 417 1133 l 361 1263 b 278 1193 333 1218 307 1193 b 97 1261 201 1193 188 1261 b -56 1140 24 1261 -42 1208 z m 108 972 l 108 0 l 274 0 l 274 972 z "},"Ī":{"ha":382,"x_min":0,"x_max":0,"o":"m -58 1072 l 440 1072 l 440 1208 l -58 1208 z m 108 972 l 108 0 l 274 0 l 274 972 z "},"Ĭ":{"ha":382,"x_min":0,"x_max":0,"o":"m -32 1271 b 192 1072 -32 1168 46 1072 b 414 1271 338 1072 414 1168 l 300 1271 b 192 1175 300 1229 272 1175 b 83 1271 111 1175 83 1229 z m 108 972 l 108 0 l 274 0 l 274 972 z "},"Į":{"ha":382,"x_min":0,"x_max":0,"o":"m 267 -169 b 197 -197 247 -187 231 -197 b 138 -135 158 -197 138 -179 b 257 0 138 -86 186 -33 l 274 0 l 274 972 l 108 972 l 108 0 l 140 0 b 17 -165 71 -44 17 -100 b 183 -304 17 -250 78 -304 b 313 -249 250 -304 292 -276 z "},"İ":{"ha":382,"x_min":0,"x_max":0,"o":"m 96 1164 b 190 1072 96 1113 138 1072 b 285 1164 243 1072 285 1113 b 190 1256 285 1215 243 1256 b 96 1164 138 1256 96 1215 z m 108 972 l 108 0 l 274 0 l 274 972 z "},"J":{"ha":383,"x_min":0,"x_max":0,"o":"m -96 -122 l -183 -243 b 21 -317 -149 -274 -67 -317 b 276 -81 168 -317 276 -246 l 276 972 l 108 972 l 108 -50 b 15 -169 108 -139 57 -169 b -96 -122 -32 -169 -74 -151 z "},"Ĵ":{"ha":383,"x_min":0,"x_max":0,"o":"m 192 1200 l 333 1072 l 435 1146 l 192 1340 l -51 1146 l 50 1072 z m -96 -122 l -183 -243 b 21 -317 -149 -274 -67 -317 b 276 -81 168 -317 276 -246 l 276 972 l 108 972 l 108 -50 b 15 -169 108 -139 57 -169 b -96 -122 -32 -169 -74 -151 z "},"K":{"ha":860,"x_min":0,"x_max":0,"o":"m 108 972 l 108 0 l 276 0 l 276 453 l 654 0 l 856 0 l 425 517 l 835 972 l 638 972 l 276 568 l 276 972 z "},"Ķ":{"ha":860,"x_min":0,"x_max":0,"o":"m 108 972 l 108 0 l 276 0 l 276 453 l 654 0 l 856 0 l 425 517 l 835 972 l 638 972 l 276 568 l 276 972 z m 453 -83 l 331 -443 l 443 -474 l 606 -126 z "},"L":{"ha":668,"x_min":0,"x_max":0,"o":"m 108 972 l 108 0 l 658 0 l 658 147 l 272 147 l 272 972 z "},"Ĺ":{"ha":668,"x_min":0,"x_max":0,"o":"m 581 1281 l 454 1344 l 246 1122 l 331 1072 z m 108 972 l 108 0 l 658 0 l 658 147 l 272 147 l 272 972 z "},"Ļ":{"ha":668,"x_min":0,"x_max":0,"o":"m 108 972 l 108 0 l 658 0 l 658 147 l 272 147 l 272 972 z m 368 -83 l 246 -443 l 358 -474 l 519 -126 z "},"Ľ":{"ha":668,"x_min":0,"x_max":0,"o":"m 503 989 l 381 629 l 492 600 l 653 947 z m 108 972 l 108 0 l 658 0 l 658 147 l 272 147 l 272 972 z "},"M":{"ha":1169,"x_min":0,"x_max":0,"o":"m 289 592 l 585 90 l 882 592 l 949 0 l 1118 0 l 985 1021 l 585 361 l 186 1021 l 53 0 l 222 0 z "},"N":{"ha":1086,"x_min":0,"x_max":0,"o":"m 818 972 l 818 319 l 108 1021 l 108 0 l 269 0 l 269 653 l 979 -49 l 979 972 z "},"Ñ":{"ha":1086,"x_min":0,"x_max":0,"o":"m 274 1122 l 358 1057 b 426 1128 358 1078 371 1128 b 604 1060 492 1128 528 1060 b 768 1168 681 1060 746 1117 l 690 1246 b 607 1176 663 1201 636 1176 b 428 1244 531 1176 518 1244 b 274 1122 354 1244 288 1190 z m 818 972 l 818 319 l 108 1021 l 108 0 l 269 0 l 269 653 l 979 -49 l 979 972 z "},"Ń":{"ha":1086,"x_min":0,"x_max":0,"o":"m 771 1260 l 644 1324 l 436 1101 l 521 1051 z m 818 972 l 818 319 l 108 1021 l 108 0 l 269 0 l 269 653 l 979 -49 l 979 972 z "},"Ņ":{"ha":1086,"x_min":0,"x_max":0,"o":"m 818 972 l 818 319 l 108 1021 l 108 0 l 269 0 l 269 653 l 979 -49 l 979 972 z m 535 -60 l 413 -419 l 524 -449 l 685 -101 z "},"Ň":{"ha":1086,"x_min":0,"x_max":0,"o":"m 542 1235 l 400 1361 l 299 1288 l 542 1093 l 785 1288 l 683 1361 z m 818 972 l 818 319 l 108 1021 l 108 0 l 269 0 l 269 653 l 979 -49 l 979 972 z "},"O":{"ha":1114,"x_min":0,"x_max":0,"o":"m 53 486 b 557 -21 53 196 265 -21 b 1063 486 849 -21 1063 196 b 557 989 1063 776 847 989 b 53 486 268 989 53 776 z m 226 486 b 557 832 226 686 364 832 b 888 486 753 832 888 686 b 557 140 888 286 750 140 b 226 486 364 140 226 286 z "},"Ò":{"ha":1114,"x_min":0,"x_max":0,"o":"m 375 1285 l 625 1076 l 710 1125 l 501 1347 z m 53 486 b 557 -21 53 196 265 -21 b 1063 486 849 -21 1063 196 b 557 989 1063 776 847 989 b 53 486 268 989 53 776 z m 226 486 b 557 832 226 686 364 832 b 888 486 753 832 888 686 b 557 140 888 286 750 140 b 226 486 364 140 226 286 z "},"Ó":{"ha":1114,"x_min":0,"x_max":0,"o":"m 749 1285 l 622 1347 l 414 1125 l 499 1076 z m 53 486 b 557 -21 53 196 265 -21 b 1063 486 849 -21 1063 196 b 557 989 1063 776 847 989 b 53 486 268 989 53 776 z m 226 486 b 557 832 226 686 364 832 b 888 486 753 832 888 686 b 557 140 888 286 750 140 b 226 486 364 140 226 286 z "},"Ô":{"ha":1114,"x_min":0,"x_max":0,"o":"m 563 1200 l 706 1072 l 806 1146 l 563 1340 l 319 1146 l 421 1072 z m 53 486 b 557 -21 53 196 265 -21 b 1063 486 849 -21 1063 196 b 557 989 1063 776 847 989 b 53 486 268 989 53 776 z m 226 486 b 557 832 226 686 364 832 b 888 486 753 832 888 686 b 557 140 888 286 750 140 b 226 486 364 140 226 286 z "},"Õ":{"ha":1114,"x_min":0,"x_max":0,"o":"m 329 1122 l 414 1057 b 482 1128 414 1078 426 1128 b 660 1060 547 1128 583 1060 b 824 1168 736 1060 801 1117 l 746 1246 b 663 1176 718 1201 692 1176 b 483 1244 586 1176 574 1244 b 329 1122 410 1244 343 1190 z m 53 486 b 557 -21 53 196 265 -21 b 1063 486 849 -21 1063 196 b 557 989 1063 776 847 989 b 53 486 268 989 53 776 z m 226 486 b 557 832 226 686 364 832 b 888 486 753 832 888 686 b 557 140 888 286 750 140 b 226 486 364 140 226 286 z "},"Ö":{"ha":1114,"x_min":0,"x_max":0,"o":"m 614 1164 b 708 1072 614 1113 656 1072 b 803 1164 761 1072 803 1113 b 708 1256 803 1215 761 1256 b 614 1164 656 1256 614 1215 z m 311 1164 b 407 1072 311 1113 354 1072 b 501 1164 460 1072 501 1113 b 407 1256 501 1215 460 1256 b 311 1164 354 1256 311 1215 z m 53 486 b 557 -21 53 196 265 -21 b 1063 486 849 -21 1063 196 b 557 989 1063 776 847 989 b 53 486 268 989 53 776 z m 226 486 b 557 832 226 686 364 832 b 888 486 753 832 888 686 b 557 140 888 286 750 140 b 226 486 364 140 226 286 z "},"Ō":{"ha":1114,"x_min":0,"x_max":0,"o":"m 308 1072 l 806 1072 l 806 1208 l 308 1208 z m 53 486 b 557 -21 53 196 265 -21 b 1063 486 849 -21 1063 196 b 557 989 1063 776 847 989 b 53 486 268 989 53 776 z m 226 486 b 557 832 226 686 364 832 b 888 486 753 832 888 686 b 557 140 888 286 750 140 b 226 486 364 140 226 286 z "},"Ŏ":{"ha":1114,"x_min":0,"x_max":0,"o":"m 335 1271 b 557 1072 335 1168 411 1072 b 781 1271 703 1072 781 1168 l 667 1271 b 557 1175 667 1229 638 1175 b 449 1271 476 1175 449 1229 z m 53 486 b 557 -21 53 196 265 -21 b 1063 486 849 -21 1063 196 b 557 989 1063 776 847 989 b 53 486 268 989 53 776 z m 226 486 b 557 832 226 686 364 832 b 888 486 753 832 888 686 b 557 140 888 286 750 140 b 226 486 364 140 226 286 z "},"Ő":{"ha":1114,"x_min":0,"x_max":0,"o":"m 438 1074 l 629 1335 l 493 1368 l 343 1101 z m 678 1074 l 872 1335 l 733 1368 l 585 1101 z m 53 486 b 557 -21 53 196 265 -21 b 1063 486 849 -21 1063 196 b 557 989 1063 776 847 989 b 53 486 268 989 53 776 z m 226 486 b 557 832 226 686 364 832 b 888 486 753 832 888 686 b 557 140 888 286 750 140 b 226 486 364 140 226 286 z "},"P":{"ha":803,"x_min":0,"x_max":0,"o":"m 108 972 l 108 0 l 272 0 l 272 368 l 401 368 b 750 669 614 368 750 483 b 401 972 750 856 614 972 z m 401 828 b 589 669 514 828 589 774 b 401 513 589 565 514 513 l 272 513 l 272 828 z "},"Q":{"ha":1138,"x_min":0,"x_max":0,"o":"m 53 486 b 560 -21 53 196 268 -21 b 864 75 678 -21 782 14 l 949 -7 l 1140 -7 l 960 168 b 1063 486 1025 254 1063 364 b 560 989 1063 776 850 989 b 53 486 271 989 53 776 z m 226 486 b 560 832 226 686 367 832 b 899 475 761 832 899 675 b 844 279 899 400 879 333 l 703 417 l 514 417 l 751 186 b 565 133 699 153 636 133 b 226 486 372 133 226 279 z "},"R":{"ha":825,"x_min":0,"x_max":0,"o":"m 108 972 l 108 0 l 272 0 l 272 368 l 374 368 l 618 0 l 817 0 l 542 386 b 758 669 676 426 758 529 b 408 972 758 851 621 972 z m 401 829 b 589 667 514 829 589 771 b 401 504 589 563 514 504 l 272 504 l 272 829 z "},"Ŕ":{"ha":825,"x_min":0,"x_max":0,"o":"m 599 1281 l 472 1344 l 264 1122 l 349 1072 z m 108 972 l 108 0 l 272 0 l 272 368 l 374 368 l 618 0 l 817 0 l 542 386 b 758 669 676 426 758 529 b 408 972 758 851 621 972 z m 401 829 b 589 667 514 829 589 771 b 401 504 589 563 514 504 l 272 504 l 272 829 z "},"Ŗ":{"ha":825,"x_min":0,"x_max":0,"o":"m 108 972 l 108 0 l 272 0 l 272 368 l 374 368 l 618 0 l 817 0 l 542 386 b 758 669 676 426 758 529 b 408 972 758 851 621 972 z m 401 829 b 589 667 514 829 589 771 b 401 504 589 563 514 504 l 272 504 l 272 829 z m 447 -83 l 325 -443 l 438 -474 l 599 -126 z "},"Ř":{"ha":825,"x_min":0,"x_max":0,"o":"m 386 1214 l 244 1340 l 143 1267 l 386 1072 l 629 1267 l 529 1340 z m 108 972 l 108 0 l 272 0 l 272 368 l 374 368 l 618 0 l 817 0 l 542 386 b 758 669 676 426 758 529 b 408 972 758 851 621 972 z m 401 829 b 589 667 514 829 589 771 b 401 504 589 563 514 504 l 272 504 l 272 829 z "},"Ȓ":{"ha":825,"x_min":0,"x_max":0,"o":"m 188 1072 l 303 1072 b 411 1168 303 1114 331 1168 b 519 1072 492 1168 519 1114 l 633 1072 b 411 1271 633 1175 557 1271 b 188 1072 265 1271 188 1175 z m 108 972 l 108 0 l 272 0 l 272 368 l 374 368 l 618 0 l 817 0 l 542 386 b 758 669 676 426 758 529 b 408 972 758 851 621 972 z m 401 829 b 589 667 514 829 589 771 b 401 504 589 563 514 504 l 272 504 l 272 829 z "},"S":{"ha":803,"x_min":0,"x_max":0,"o":"m 172 314 l 50 228 b 422 -21 113 93 251 -21 b 746 269 588 -21 746 89 b 499 561 746 439 615 521 b 278 739 342 615 278 663 b 410 843 278 793 319 843 b 606 707 508 843 565 778 l 739 782 b 413 989 689 883 585 989 b 107 728 238 989 107 883 b 365 443 107 546 268 478 b 572 256 488 397 572 363 b 422 126 572 178 513 126 b 172 314 313 126 235 201 z "},"Ś":{"ha":803,"x_min":0,"x_max":0,"o":"m 660 1281 l 533 1344 l 325 1122 l 410 1072 z m 178 328 l 53 246 b 419 -21 114 86 253 -21 b 746 267 626 -21 746 88 b 499 560 746 440 614 518 b 275 726 382 603 275 643 b 415 843 275 797 329 843 b 604 700 510 843 563 778 l 732 779 b 410 989 693 878 588 989 b 104 735 235 989 104 889 b 356 450 104 560 258 486 b 572 260 467 408 572 368 b 425 128 572 176 522 128 b 178 328 311 128 239 201 z "},"Ŝ":{"ha":803,"x_min":0,"x_max":0,"o":"m 410 1200 l 553 1072 l 653 1146 l 410 1340 l 167 1146 l 268 1072 z m 178 328 l 53 246 b 419 -21 114 86 253 -21 b 746 267 626 -21 746 88 b 499 560 746 440 614 518 b 275 726 382 603 275 643 b 415 843 275 797 329 843 b 604 700 510 843 563 778 l 732 779 b 410 989 693 878 588 989 b 104 735 235 989 104 889 b 356 450 104 560 258 486 b 572 260 467 408 572 368 b 425 128 572 176 522 128 b 178 328 311 128 239 201 z "},"Ş":{"ha":803,"x_min":0,"x_max":0,"o":"m 178 328 l 53 246 b 363 -17 107 104 222 4 l 292 -165 b 386 -142 329 -146 372 -142 b 461 -189 432 -142 461 -154 b 389 -242 461 -222 436 -242 b 299 -208 356 -242 328 -232 l 244 -279 b 400 -333 294 -319 338 -333 b 561 -194 481 -333 561 -285 b 450 -78 561 -117 500 -78 b 422 -81 440 -78 431 -79 l 460 -19 b 746 267 633 -6 746 100 b 499 560 746 440 614 518 b 275 726 382 603 275 643 b 404 843 275 797 318 843 b 604 700 499 843 563 778 l 732 779 b 410 989 683 889 588 989 b 104 729 224 989 104 883 b 356 450 104 544 258 486 b 572 260 467 408 572 368 b 425 128 572 176 522 128 b 178 328 311 128 239 201 z "},"Š":{"ha":803,"x_min":0,"x_max":0,"o":"m 410 1214 l 268 1340 l 167 1267 l 410 1072 l 653 1267 l 553 1340 z m 178 328 l 53 246 b 419 -21 114 86 253 -21 b 746 267 626 -21 746 88 b 499 560 746 440 614 518 b 275 726 382 603 275 643 b 415 843 275 797 329 843 b 604 700 510 843 563 778 l 732 779 b 410 989 693 878 588 989 b 104 735 235 989 104 889 b 356 450 104 560 258 486 b 572 260 467 408 572 368 b 425 128 572 176 522 128 b 178 328 311 128 239 201 z "},"Ș":{"ha":803,"x_min":0,"x_max":0,"o":"m 178 328 l 53 246 b 419 -21 114 86 253 -21 b 746 267 626 -21 746 88 b 499 560 746 440 614 518 b 275 726 382 603 275 643 b 415 843 275 797 329 843 b 604 700 510 843 563 778 l 732 779 b 410 989 693 878 588 989 b 104 735 235 989 104 889 b 356 450 104 560 258 486 b 572 260 467 408 572 368 b 425 128 572 176 522 128 b 178 328 311 128 239 201 z m 390 -97 l 268 -457 l 381 -487 l 542 -140 z "},"T":{"ha":699,"x_min":0,"x_max":0,"o":"m 11 821 l 267 821 l 267 0 l 432 0 l 432 821 l 689 821 l 689 972 l 11 972 z "},"Ţ":{"ha":699,"x_min":0,"x_max":0,"o":"m 11 821 l 267 821 l 267 0 l 286 0 l 174 -233 b 267 -210 211 -214 253 -210 b 342 -258 313 -210 342 -224 b 269 -311 342 -292 317 -311 b 181 -276 236 -311 210 -300 l 126 -347 b 281 -401 176 -387 218 -401 b 443 -262 361 -401 443 -353 b 332 -147 443 -185 382 -147 b 304 -149 322 -147 313 -147 l 397 0 l 432 0 l 432 821 l 689 821 l 689 972 l 11 972 z "},"Ť":{"ha":699,"x_min":0,"x_max":0,"o":"m 350 1214 l 208 1340 l 107 1267 l 350 1072 l 593 1267 l 492 1340 z m 11 821 l 267 821 l 267 0 l 432 0 l 432 821 l 689 821 l 689 972 l 11 972 z "},"Ț":{"ha":699,"x_min":0,"x_max":0,"o":"m 11 821 l 267 821 l 267 0 l 432 0 l 432 821 l 689 821 l 689 972 l 11 972 z m 336 -83 l 214 -443 l 325 -474 l 486 -126 z "},"U":{"ha":911,"x_min":0,"x_max":0,"o":"m 101 972 l 101 319 b 456 -25 101 106 247 -25 b 810 319 664 -25 810 106 l 810 972 l 646 972 l 646 326 b 456 126 646 207 581 126 b 265 326 331 126 265 207 l 265 972 z "},"Ù":{"ha":911,"x_min":0,"x_max":0,"o":"m 257 1281 l 507 1072 l 593 1122 l 385 1344 z m 101 972 l 101 319 b 456 -25 101 106 247 -25 b 810 319 664 -25 810 106 l 810 972 l 646 972 l 646 326 b 456 126 646 207 581 126 b 265 326 331 126 265 207 l 265 972 z "},"Ú":{"ha":911,"x_min":0,"x_max":0,"o":"m 654 1281 l 526 1344 l 318 1122 l 404 1072 z m 101 972 l 101 319 b 456 -25 101 106 247 -25 b 810 319 664 -25 810 106 l 810 972 l 646 972 l 646 326 b 456 126 646 207 581 126 b 265 326 331 126 265 207 l 265 972 z "},"Û":{"ha":911,"x_min":0,"x_max":0,"o":"m 456 1200 l 599 1072 l 699 1146 l 456 1340 l 213 1146 l 313 1072 z m 101 972 l 101 319 b 456 -25 101 106 247 -25 b 810 319 664 -25 810 106 l 810 972 l 646 972 l 646 326 b 456 126 646 207 581 126 b 265 326 331 126 265 207 l 265 972 z "},"Ü":{"ha":911,"x_min":0,"x_max":0,"o":"m 522 1164 b 617 1072 522 1113 564 1072 b 711 1164 669 1072 711 1113 b 617 1256 711 1215 669 1256 b 522 1164 564 1256 522 1215 z m 200 1164 b 294 1072 200 1113 242 1072 b 389 1164 347 1072 389 1113 b 294 1256 389 1215 347 1256 b 200 1164 242 1256 200 1215 z m 101 972 l 101 319 b 456 -25 101 106 247 -25 b 810 319 664 -25 810 106 l 810 972 l 646 972 l 646 326 b 456 126 646 207 581 126 b 265 326 331 126 265 207 l 265 972 z "},"Ũ":{"ha":911,"x_min":0,"x_max":0,"o":"m 208 1140 l 293 1075 b 361 1146 293 1096 306 1146 b 539 1078 426 1146 463 1078 b 703 1185 615 1078 681 1133 l 625 1263 b 542 1193 597 1218 571 1193 b 363 1261 465 1193 453 1261 b 208 1140 289 1261 222 1208 z m 101 972 l 101 319 b 456 -25 101 106 247 -25 b 810 319 664 -25 810 106 l 810 972 l 646 972 l 646 326 b 456 126 646 207 581 126 b 265 326 331 126 265 207 l 265 972 z "},"Ū":{"ha":911,"x_min":0,"x_max":0,"o":"m 207 1072 l 706 1072 l 706 1208 l 207 1208 z m 101 972 l 101 319 b 456 -25 101 106 247 -25 b 810 319 664 -25 810 106 l 810 972 l 646 972 l 646 326 b 456 126 646 207 581 126 b 265 326 331 126 265 207 l 265 972 z "},"Ŭ":{"ha":911,"x_min":0,"x_max":0,"o":"m 232 1271 b 456 1072 232 1168 310 1072 b 679 1271 601 1072 679 1168 l 564 1271 b 456 1175 564 1229 536 1175 b 347 1271 375 1175 347 1229 z m 101 972 l 101 319 b 456 -25 101 106 247 -25 b 810 319 664 -25 810 106 l 810 972 l 646 972 l 646 326 b 456 126 646 207 581 126 b 265 326 331 126 265 207 l 265 972 z "},"Ů":{"ha":911,"x_min":0,"x_max":0,"o":"m 301 1221 b 456 1072 301 1132 374 1072 b 610 1221 538 1072 610 1132 b 456 1368 610 1310 538 1368 b 301 1221 374 1368 301 1310 z m 388 1221 b 456 1292 388 1265 421 1292 b 524 1221 490 1292 524 1265 b 456 1150 524 1176 490 1150 b 388 1221 421 1150 388 1176 z m 101 972 l 101 319 b 456 -25 101 106 247 -25 b 810 319 664 -25 810 106 l 810 972 l 646 972 l 646 326 b 456 126 646 207 581 126 b 265 326 331 126 265 207 l 265 972 z "},"Ű":{"ha":911,"x_min":0,"x_max":0,"o":"m 335 1074 l 526 1335 l 390 1368 l 240 1101 z m 575 1074 l 769 1335 l 631 1368 l 482 1101 z m 101 972 l 101 319 b 456 -25 101 106 247 -25 b 810 319 664 -25 810 106 l 810 972 l 646 972 l 646 326 b 456 126 646 207 581 126 b 265 326 331 126 265 207 l 265 972 z "},"Ų":{"ha":911,"x_min":0,"x_max":0,"o":"m 519 -206 b 450 -233 500 -224 483 -233 b 390 -172 411 -233 390 -217 b 513 -36 390 -124 440 -69 l 492 -24 b 810 319 681 -10 810 118 l 810 972 l 646 972 l 646 326 b 456 126 646 207 581 126 b 265 326 331 126 265 207 l 265 972 l 101 972 l 101 319 b 415 -24 101 119 229 -7 b 269 -203 335 -71 269 -131 b 436 -342 269 -287 331 -342 b 565 -286 503 -342 544 -314 z "},"V":{"ha":958,"x_min":0,"x_max":0,"o":"m 479 289 l 193 972 l 4 972 l 479 -54 l 954 972 l 765 972 z "},"W":{"ha":1417,"x_min":0,"x_max":0,"o":"m 988 321 l 708 1021 l 432 321 l 201 972 l 11 972 l 408 -51 l 708 635 l 1008 -51 l 1406 972 l 1215 972 z "},"Ŵ":{"ha":1417,"x_min":0,"x_max":0,"o":"m 708 1231 l 851 1104 l 951 1176 l 708 1371 l 465 1176 l 565 1104 z m 989 304 l 708 1021 l 428 304 l 201 972 l 11 972 l 408 -51 l 708 635 l 1008 -51 l 1406 972 l 1215 972 z "},"Ẁ":{"ha":1417,"x_min":0,"x_max":0,"o":"m 708 1104 l 793 1153 l 585 1375 l 458 1313 z m 988 321 l 708 1021 l 432 321 l 201 972 l 11 972 l 408 -51 l 708 635 l 1008 -51 l 1406 972 l 1215 972 z "},"Ẃ":{"ha":1417,"x_min":0,"x_max":0,"o":"m 708 1104 l 958 1313 l 832 1374 l 624 1151 z m 988 321 l 708 1021 l 432 321 l 201 972 l 11 972 l 408 -51 l 708 635 l 1008 -51 l 1406 972 l 1215 972 z "},"Ẅ":{"ha":1417,"x_min":0,"x_max":0,"o":"m 765 1196 b 860 1104 765 1144 807 1104 b 954 1196 913 1104 954 1144 b 860 1288 954 1247 913 1288 b 765 1196 807 1288 765 1247 z m 463 1196 b 558 1104 463 1144 506 1104 b 653 1196 611 1104 653 1144 b 558 1288 653 1247 611 1288 b 463 1196 506 1288 463 1247 z m 988 321 l 708 1021 l 432 321 l 201 972 l 11 972 l 408 -51 l 708 635 l 1008 -51 l 1406 972 l 1215 972 z "},"Ẇ":{"ha":1417,"x_min":0,"x_max":0,"o":"m 614 1196 b 708 1104 614 1144 656 1104 b 803 1196 761 1104 803 1144 b 708 1288 803 1247 761 1288 b 614 1196 656 1288 614 1247 z m 988 321 l 708 1021 l 432 321 l 201 972 l 11 972 l 408 -51 l 708 635 l 1008 -51 l 1406 972 l 1215 972 z "},"Ẉ":{"ha":1417,"x_min":0,"x_max":0,"o":"m 988 321 l 708 1021 l 432 321 l 201 972 l 11 972 l 408 -51 l 708 635 l 1008 -51 l 1406 972 l 1215 972 z m 614 -226 b 708 -318 614 -278 656 -318 b 803 -226 761 -318 803 -278 b 708 -135 803 -175 761 -135 b 614 -226 656 -135 614 -175 z "},"X":{"ha":843,"x_min":0,"x_max":0,"o":"m 613 972 l 426 643 l 244 972 l 46 972 l 333 506 l 11 0 l 210 0 l 425 374 l 633 0 l 833 0 l 518 506 l 813 972 z "},"Y":{"ha":833,"x_min":0,"x_max":0,"o":"m 643 972 l 417 556 l 192 972 l 4 972 l 333 408 l 333 0 l 501 0 l 501 410 l 831 972 z "},"Ý":{"ha":833,"x_min":0,"x_max":0,"o":"m 614 1281 l 489 1344 l 281 1122 l 364 1072 z m 643 972 l 417 556 l 192 972 l 4 972 l 333 408 l 333 0 l 501 0 l 501 410 l 831 972 z "},"Ŷ":{"ha":833,"x_min":0,"x_max":0,"o":"m 417 1200 l 560 1072 l 661 1146 l 417 1340 l 175 1146 l 275 1072 z m 643 972 l 417 556 l 192 972 l 4 972 l 333 408 l 333 0 l 501 0 l 501 410 l 831 972 z "},"Ÿ":{"ha":833,"x_min":0,"x_max":0,"o":"m 161 1171 b 256 1079 161 1119 203 1079 b 351 1171 308 1079 351 1119 b 256 1261 351 1222 308 1261 b 161 1171 203 1261 161 1222 z m 485 1171 b 578 1079 485 1119 525 1079 b 674 1171 631 1079 674 1119 b 578 1261 674 1222 631 1261 b 485 1171 525 1261 485 1222 z m 643 972 l 417 556 l 192 972 l 4 972 l 333 408 l 333 0 l 501 0 l 501 410 l 831 972 z "},"Ỳ":{"ha":833,"x_min":0,"x_max":0,"o":"m 417 1072 l 501 1121 l 293 1343 l 167 1281 z m 643 972 l 417 556 l 192 972 l 4 972 l 333 408 l 333 0 l 501 0 l 501 410 l 831 972 z "},"Z":{"ha":799,"x_min":0,"x_max":0,"o":"m 61 821 l 506 821 l 18 0 l 738 0 l 738 147 l 285 147 l 774 972 l 61 972 z "},"Ź":{"ha":799,"x_min":0,"x_max":0,"o":"m 647 1281 l 519 1344 l 311 1122 l 397 1072 z m 61 821 l 506 821 l 18 0 l 738 0 l 738 147 l 285 147 l 774 972 l 61 972 z "},"Ż":{"ha":799,"x_min":0,"x_max":0,"o":"m 322 1164 b 417 1072 322 1113 364 1072 b 513 1164 469 1072 513 1113 b 417 1256 513 1215 469 1256 b 322 1164 364 1256 322 1215 z m 61 821 l 506 821 l 18 0 l 738 0 l 738 147 l 285 147 l 774 972 l 61 972 z "},"Ž":{"ha":799,"x_min":0,"x_max":0,"o":"m 417 1214 l 275 1340 l 175 1267 l 417 1072 l 661 1267 l 560 1340 z m 61 821 l 506 821 l 18 0 l 738 0 l 738 147 l 285 147 l 774 972 l 61 972 z "},"Æ":{"ha":1403,"x_min":0,"x_max":0,"o":"m 1306 144 l 885 144 l 885 450 l 1278 450 l 1278 592 l 885 592 l 885 828 l 1306 828 l 1306 972 l 606 972 l 13 0 l 210 0 l 363 258 l 714 258 l 714 0 l 1306 0 z m 454 411 l 714 849 l 714 411 z "},"Ð":{"ha":974,"x_min":0,"x_max":0,"o":"m 422 0 b 922 486 719 0 922 193 b 422 972 922 779 719 972 l 108 972 l 108 544 l 7 544 l 7 426 l 108 426 l 108 0 z m 451 426 l 451 544 l 276 544 l 276 818 l 418 818 b 754 486 610 818 754 706 b 418 154 754 267 610 154 l 276 154 l 276 426 z "},"Ø":{"ha":1097,"x_min":0,"x_max":0,"o":"m 53 486 b 186 135 53 347 103 225 l 61 -11 l 149 -72 l 267 65 b 557 -21 347 11 446 -21 b 1063 486 847 -21 1063 196 b 926 839 1063 626 1011 750 l 1050 983 l 961 1044 l 844 907 b 557 989 764 960 665 989 b 53 486 267 989 53 776 z m 226 486 b 557 832 226 689 364 832 b 738 782 625 832 686 814 l 296 264 b 226 486 251 322 226 399 z m 888 486 b 557 140 888 283 750 140 b 374 192 488 140 425 158 l 817 710 b 888 486 861 651 888 574 z "},"Þ":{"ha":797,"x_min":0,"x_max":0,"o":"m 111 972 l 111 0 l 264 0 l 264 188 l 397 188 b 747 488 610 188 747 301 b 397 789 747 674 610 789 l 264 789 l 264 972 z m 397 647 b 593 488 515 647 593 596 b 397 328 593 379 515 328 l 264 328 l 264 647 z "},"Đ":{"ha":974,"x_min":0,"x_max":0,"o":"m 422 0 b 922 486 719 0 922 193 b 422 972 922 779 719 972 l 108 972 l 108 542 l 7 542 l 7 424 l 108 424 l 108 0 z m 449 424 l 449 542 l 276 542 l 276 818 l 418 818 b 754 486 610 818 754 706 b 418 154 754 267 610 154 l 276 154 l 276 424 z "},"Ħ":{"ha":1032,"x_min":0,"x_max":0,"o":"m 7 749 l 108 749 l 108 0 l 272 0 l 272 446 l 761 446 l 761 0 l 925 0 l 925 749 l 1026 749 l 1026 869 l 925 869 l 925 972 l 761 972 l 761 869 l 272 869 l 272 972 l 108 972 l 108 869 l 7 869 z m 272 597 l 272 749 l 761 749 l 761 597 z "},"Ĳ":{"ha":754,"x_min":0,"x_max":0,"o":"m 276 -122 l 188 -243 b 392 -317 222 -274 304 -317 b 647 -81 539 -317 647 -246 l 647 972 l 479 972 l 479 -50 b 386 -169 479 -139 428 -169 b 276 -122 339 -169 299 -151 z m 108 972 l 108 0 l 274 0 l 274 972 z "},"Ŀ":{"ha":668,"x_min":0,"x_max":0,"o":"m 108 972 l 108 0 l 658 0 l 658 147 l 272 147 l 272 972 z m 392 585 b 490 488 392 532 435 488 b 589 585 546 488 589 532 b 490 682 589 638 546 682 b 392 585 435 682 392 638 z "},"Ł":{"ha":671,"x_min":0,"x_max":0,"o":"m 7 456 l 108 521 l 108 0 l 658 0 l 658 147 l 272 147 l 272 628 l 435 733 l 396 819 l 272 739 l 272 972 l 108 972 l 108 633 l -32 542 z "},"Ŋ":{"ha":1086,"x_min":0,"x_max":0,"o":"m 772 -303 b 979 -78 903 -303 979 -219 l 979 972 l 818 972 l 818 319 l 108 1021 l 108 0 l 269 0 l 269 653 l 832 89 l 832 -47 b 765 -161 832 -125 811 -161 b 699 -125 738 -161 715 -147 l 628 -242 b 772 -303 667 -285 711 -303 z "},"Œ":{"ha":1368,"x_min":0,"x_max":0,"o":"m 1292 144 l 860 144 l 860 450 l 1263 450 l 1263 592 l 860 592 l 860 828 l 1290 828 l 1290 972 l 542 972 b 53 486 258 972 53 776 b 542 0 53 196 260 0 l 1292 0 z m 558 150 b 221 486 351 150 221 276 b 558 822 221 696 350 822 l 699 822 l 699 150 z "},"Ŧ":{"ha":699,"x_min":0,"x_max":0,"o":"m 115 485 l 267 485 l 267 0 l 432 0 l 432 485 l 585 485 l 585 619 l 432 619 l 432 821 l 689 821 l 689 972 l 11 972 l 11 821 l 267 821 l 267 619 l 115 619 z "},"ẞ":{"ha":1049,"x_min":0,"x_max":0,"o":"m 653 -17 b 994 249 858 -17 994 90 b 767 506 994 451 767 433 b 917 758 767 564 917 597 b 578 989 917 894 793 989 b 111 528 300 989 111 832 l 111 -3 l 281 -3 l 278 513 b 565 832 278 732 399 832 b 739 719 689 832 739 775 b 581 499 739 619 581 618 b 819 253 581 351 819 397 b 633 133 819 167 731 133 b 417 200 550 133 486 160 l 361 64 b 653 -17 439 15 533 -17 z "},"Δ":{"ha":833,"x_min":0,"x_max":0,"o":"m 25 0 l 807 0 l 417 1111 z m 219 128 l 417 754 l 614 128 z "},"Ω":{"ha":833,"x_min":0,"x_max":0,"o":"m 92 0 l 368 0 l 368 122 b 240 410 294 182 240 303 b 417 608 240 536 306 608 b 592 410 528 608 592 536 b 464 122 592 301 538 182 l 464 0 l 740 0 l 740 129 l 619 122 b 736 440 694 217 736 332 b 417 776 736 632 600 776 b 96 440 233 776 96 632 b 213 122 96 332 138 217 l 92 129 z "},"А":{"ha":958,"x_min":0,"x_max":0,"o":"m 769 0 l 954 0 l 479 1026 l 4 0 l 189 0 l 300 250 l 658 250 z m 479 697 l 611 389 l 347 389 z "},"Б":{"ha":831,"x_min":0,"x_max":0,"o":"m 111 972 l 111 0 l 444 0 b 775 297 632 0 775 118 b 444 592 775 476 632 592 l 278 592 l 278 828 l 701 828 l 701 972 z m 424 450 b 608 297 535 450 608 400 b 424 144 608 194 535 144 l 278 144 l 278 450 z "},"В":{"ha":833,"x_min":0,"x_max":0,"o":"m 768 281 b 561 526 768 417 681 494 b 713 728 656 561 713 631 b 401 972 713 893 586 972 l 108 972 l 108 0 l 418 0 b 768 281 622 0 768 88 z m 390 838 b 544 710 481 838 544 790 b 390 582 544 629 481 582 l 272 582 l 272 838 z m 272 135 l 272 454 l 408 454 b 600 297 519 454 600 403 b 408 135 600 189 519 135 z "},"Г":{"ha":643,"x_min":0,"x_max":0,"o":"m 111 972 l 111 0 l 276 0 l 276 821 l 631 821 l 631 972 z "},"Ѓ":{"ha":643,"x_min":0,"x_max":0,"o":"m 621 1281 l 494 1344 l 286 1122 l 371 1072 z m 111 972 l 111 0 l 276 0 l 276 821 l 631 821 l 631 972 z "},"Д":{"ha":1151,"x_min":0,"x_max":0,"o":"m 935 0 l 935 -153 l 1090 -153 l 1090 147 l 954 147 l 574 1021 l 192 147 l 56 147 l 56 -153 l 213 -153 l 213 0 z m 574 690 l 778 147 l 369 147 z "},"Е":{"ha":793,"x_min":0,"x_max":0,"o":"m 108 972 l 108 0 l 700 0 l 700 144 l 269 144 l 269 450 l 672 450 l 672 592 l 269 592 l 269 828 l 700 828 l 700 972 z "},"Ѐ":{"ha":793,"x_min":0,"x_max":0,"o":"m 154 1281 l 404 1072 l 489 1122 l 281 1344 z m 108 972 l 108 0 l 700 0 l 700 144 l 269 144 l 269 450 l 672 450 l 672 592 l 269 592 l 269 828 l 700 828 l 700 972 z "},"Ё":{"ha":793,"x_min":0,"x_max":0,"o":"m 460 1164 b 554 1072 460 1113 501 1072 b 650 1164 607 1072 650 1113 b 554 1256 650 1215 607 1256 b 460 1164 501 1256 460 1215 z m 158 1164 b 253 1072 158 1113 200 1072 b 347 1164 306 1072 347 1113 b 253 1256 347 1215 306 1256 b 158 1164 200 1256 158 1215 z m 108 972 l 108 0 l 700 0 l 700 144 l 269 144 l 269 450 l 672 450 l 672 592 l 269 592 l 269 828 l 700 828 l 700 972 z "},"Ж":{"ha":1349,"x_min":0,"x_max":0,"o":"m 222 972 l 25 972 l 438 517 l 4 0 l 201 0 l 596 469 l 596 0 l 764 0 l 764 468 l 1144 0 l 1346 0 l 911 517 l 1325 972 l 1124 972 l 764 557 l 764 972 l 596 972 l 596 556 z "},"З":{"ha":875,"x_min":0,"x_max":0,"o":"m 457 -17 b 822 260 692 -17 822 93 b 611 508 822 392 739 472 b 794 725 724 550 794 626 b 458 988 794 868 674 988 b 118 714 249 988 118 874 l 272 714 b 458 849 272 792 347 849 b 629 713 571 849 629 792 b 406 564 629 629 551 564 l 406 440 b 657 278 561 440 657 382 b 454 125 657 181 588 125 b 242 278 321 125 249 185 l 76 278 b 457 -17 76 118 201 -17 z "},"И":{"ha":1086,"x_min":0,"x_max":0,"o":"m 269 972 l 108 972 l 108 -49 l 818 644 l 818 0 l 979 0 l 979 1021 l 269 328 z "},"Ѝ":{"ha":1086,"x_min":0,"x_max":0,"o":"m 351 1250 l 601 1042 l 686 1090 l 478 1313 z m 269 972 l 108 972 l 108 -49 l 818 644 l 818 0 l 979 0 l 979 1021 l 269 328 z "},"Й":{"ha":1086,"x_min":0,"x_max":0,"o":"m 357 1264 b 579 1065 357 1161 433 1065 b 803 1264 725 1065 803 1161 l 689 1264 b 579 1168 689 1222 660 1168 b 471 1264 499 1168 471 1222 z m 269 972 l 108 972 l 108 -49 l 818 644 l 818 0 l 979 0 l 979 1021 l 269 328 z "},"К":{"ha":860,"x_min":0,"x_max":0,"o":"m 108 972 l 108 0 l 276 0 l 276 453 l 654 0 l 856 0 l 425 517 l 835 972 l 638 972 l 276 568 l 276 972 z "},"Ќ":{"ha":860,"x_min":0,"x_max":0,"o":"m 722 1281 l 594 1344 l 386 1122 l 472 1072 z m 108 972 l 108 0 l 276 0 l 276 453 l 654 0 l 856 0 l 425 517 l 835 972 l 638 972 l 276 568 l 276 972 z "},"Л":{"ha":975,"x_min":0,"x_max":0,"o":"m 865 972 l 150 972 l 150 375 b 14 140 150 239 100 140 l 14 0 b 311 364 217 0 311 146 l 311 821 l 699 821 l 699 0 l 865 0 z "},"М":{"ha":1169,"x_min":0,"x_max":0,"o":"m 289 592 l 585 90 l 882 592 l 949 0 l 1118 0 l 985 1021 l 585 361 l 186 1021 l 53 0 l 222 0 z "},"Н":{"ha":1032,"x_min":0,"x_max":0,"o":"m 108 972 l 108 0 l 272 0 l 272 446 l 761 446 l 761 0 l 925 0 l 925 972 l 761 972 l 761 597 l 272 597 l 272 972 z "},"О":{"ha":1114,"x_min":0,"x_max":0,"o":"m 53 486 b 557 -21 53 196 265 -21 b 1063 486 849 -21 1063 196 b 557 989 1063 776 847 989 b 53 486 268 989 53 776 z m 226 486 b 557 832 226 686 364 832 b 888 486 753 832 888 686 b 557 140 888 286 750 140 b 226 486 364 140 226 286 z "},"П":{"ha":1024,"x_min":0,"x_max":0,"o":"m 747 821 l 747 0 l 913 0 l 913 972 l 111 972 l 111 0 l 278 0 l 278 821 z "},"Р":{"ha":803,"x_min":0,"x_max":0,"o":"m 108 972 l 108 0 l 272 0 l 272 368 l 401 368 b 750 669 614 368 750 483 b 401 972 750 856 614 972 z m 401 828 b 589 669 514 828 589 774 b 401 513 589 565 514 513 l 272 513 l 272 828 z "},"С":{"ha":960,"x_min":0,"x_max":0,"o":"m 231 486 b 563 829 231 693 385 829 b 867 690 700 829 800 769 l 867 886 b 557 989 786 953 699 989 b 53 486 271 989 53 782 b 557 -17 53 190 271 -17 b 867 86 699 -17 786 19 l 867 282 b 563 143 800 203 700 143 b 231 486 385 143 231 279 z "},"Т":{"ha":699,"x_min":0,"x_max":0,"o":"m 11 821 l 267 821 l 267 0 l 432 0 l 432 821 l 689 821 l 689 972 l 11 972 z "},"У":{"ha":814,"x_min":0,"x_max":0,"o":"m 819 972 l 642 972 l 406 449 l 188 972 l -6 972 l 315 290 l 188 0 l 363 0 z "},"Ў":{"ha":807,"x_min":0,"x_max":0,"o":"m 183 1271 b 407 1072 183 1168 261 1072 b 629 1271 553 1072 629 1168 l 515 1271 b 407 1175 515 1229 488 1175 b 297 1271 326 1175 297 1229 z m 813 972 l 639 972 l 401 449 l 185 972 l -6 972 l 311 290 l 183 0 l 356 0 z "},"Ф":{"ha":1171,"x_min":0,"x_max":0,"o":"m 501 972 l 501 861 b 56 486 247 861 56 721 b 501 111 56 251 247 111 l 501 0 l 669 0 l 669 111 b 1115 486 924 111 1115 251 b 669 861 1115 721 924 861 l 669 972 z m 222 486 b 501 708 222 635 335 703 l 501 264 b 222 486 335 269 222 338 z m 949 486 b 669 264 949 338 836 269 l 669 708 b 949 486 836 703 949 635 z "},"Х":{"ha":843,"x_min":0,"x_max":0,"o":"m 613 972 l 426 643 l 244 972 l 46 972 l 333 506 l 11 0 l 210 0 l 425 374 l 633 0 l 833 0 l 518 506 l 813 972 z "},"Ц":{"ha":1111,"x_min":0,"x_max":0,"o":"m 274 151 l 274 972 l 108 972 l 108 0 l 907 0 l 907 -167 l 1058 -167 l 1058 151 l 926 151 l 926 972 l 761 972 l 761 151 z "},"Ч":{"ha":911,"x_min":0,"x_max":0,"o":"m 269 972 l 108 972 l 108 692 b 414 356 108 504 214 356 l 632 356 l 632 0 l 800 0 l 800 972 l 632 972 l 632 501 l 442 501 b 269 704 333 501 269 586 z "},"Ш":{"ha":1421,"x_min":0,"x_max":0,"o":"m 1146 151 l 792 151 l 792 972 l 631 972 l 631 151 l 276 151 l 276 972 l 111 972 l 111 0 l 1311 0 l 1311 972 l 1146 972 z "},"Щ":{"ha":1497,"x_min":0,"x_max":0,"o":"m 1146 151 l 792 151 l 792 972 l 631 972 l 631 151 l 276 151 l 276 972 l 111 972 l 111 0 l 1290 0 l 1290 -167 l 1443 -167 l 1443 151 l 1311 151 l 1311 972 l 1146 972 z "},"Ъ":{"ha":957,"x_min":0,"x_max":0,"o":"m 264 822 l 264 0 l 556 0 b 906 303 768 0 906 117 b 556 604 906 489 768 604 l 429 604 l 429 972 l 14 972 l 14 822 z m 556 460 b 743 303 668 460 743 407 b 556 144 743 199 668 144 l 429 144 l 429 460 z "},"Ы":{"ha":1142,"x_min":0,"x_max":0,"o":"m 868 972 l 868 0 l 1035 0 l 1035 972 z m 108 972 l 108 0 l 401 0 b 750 303 614 0 750 117 b 401 604 750 489 614 604 l 272 604 l 272 972 z m 401 460 b 589 303 514 460 589 407 b 401 144 589 199 514 144 l 272 144 l 272 460 z "},"Ь":{"ha":803,"x_min":0,"x_max":0,"o":"m 108 972 l 108 0 l 401 0 b 750 303 614 0 750 117 b 401 604 750 489 614 604 l 272 604 l 272 972 z m 401 460 b 589 303 514 460 589 407 b 401 144 589 199 514 144 l 272 144 l 272 460 z "},"Э":{"ha":960,"x_min":0,"x_max":0,"o":"m 186 415 l 733 415 b 397 140 701 249 554 140 b 94 271 260 140 157 199 l 94 86 b 403 -17 175 19 261 -17 b 908 486 689 -17 908 190 b 403 989 908 782 689 989 b 94 886 261 989 175 953 l 94 701 b 397 832 157 774 260 832 b 733 557 554 832 701 724 l 186 557 z "},"Ю":{"ha":1492,"x_min":0,"x_max":0,"o":"m 108 972 l 108 0 l 272 0 l 272 446 l 432 446 b 936 -21 451 176 658 -21 b 1442 486 1228 -21 1442 196 b 936 989 1442 776 1226 989 b 442 597 686 989 489 829 l 272 597 l 272 972 z m 606 486 b 936 832 606 686 743 832 b 1267 486 1132 832 1267 686 b 936 140 1267 286 1129 140 b 606 486 743 140 606 286 z "},"Я":{"ha":825,"x_min":0,"x_max":0,"o":"m 719 972 l 418 972 b 69 669 206 972 69 851 b 285 386 69 529 150 426 l 11 0 l 208 0 l 454 368 l 554 368 l 554 0 l 719 0 z m 425 504 b 238 667 313 504 238 563 b 425 829 238 771 313 829 l 554 829 l 554 504 z "},"µ":{"ha":757,"x_min":0,"x_max":0,"o":"m 250 639 l 96 639 l 96 -444 l 243 -444 l 243 15 b 344 -11 275 -4 307 -11 b 511 81 414 -11 474 25 l 511 0 l 661 0 l 661 639 l 511 639 l 511 264 b 368 121 511 179 453 121 b 250 264 286 121 250 171 z "},"a":{"ha":700,"x_min":0,"x_max":0,"o":"m 143 472 b 338 532 171 492 246 532 b 474 426 417 532 474 504 l 474 349 b 289 393 433 371 372 393 b 39 190 131 393 39 314 b 263 -14 39 60 142 -14 b 474 88 344 -14 433 19 l 474 0 l 621 0 l 621 456 b 351 654 621 582 508 654 b 82 578 232 654 140 613 z m 190 199 b 325 294 190 258 231 294 b 474 263 379 294 428 285 l 474 253 b 310 99 474 156 399 99 b 190 199 240 99 190 135 z "},"à":{"ha":706,"x_min":0,"x_max":0,"o":"m 131 946 l 381 738 l 465 786 l 257 1008 z m 157 469 b 353 532 188 490 261 532 b 479 439 422 532 479 499 l 479 350 b 313 393 440 372 383 393 b 39 175 156 393 39 317 b 263 -14 39 57 128 -14 b 479 92 358 -14 442 24 l 479 0 l 626 0 l 626 456 b 360 654 626 582 517 654 b 97 578 244 654 156 613 z m 190 189 b 335 297 190 256 239 297 b 479 265 392 297 436 286 l 479 253 b 308 100 479 140 406 100 b 190 189 233 100 190 129 z "},"á":{"ha":706,"x_min":0,"x_max":0,"o":"m 589 946 l 463 1008 l 254 786 l 339 738 z m 157 469 b 353 532 188 490 261 532 b 479 439 422 532 479 499 l 479 350 b 313 393 440 372 383 393 b 39 175 156 393 39 317 b 263 -14 39 57 128 -14 b 479 92 358 -14 442 24 l 479 0 l 626 0 l 626 456 b 360 654 626 582 517 654 b 97 578 244 654 156 613 z m 190 189 b 335 297 190 256 239 297 b 479 265 392 297 436 286 l 479 253 b 308 100 479 140 406 100 b 190 189 233 100 190 129 z "},"â":{"ha":706,"x_min":0,"x_max":0,"o":"m 360 865 l 503 738 l 603 811 l 360 1006 l 117 811 l 218 738 z m 157 469 b 353 532 188 490 261 532 b 479 439 422 532 479 499 l 479 350 b 313 393 440 372 383 393 b 39 175 156 393 39 317 b 263 -14 39 57 128 -14 b 479 92 358 -14 442 24 l 479 0 l 626 0 l 626 456 b 360 654 626 582 517 654 b 97 578 244 654 156 613 z m 190 189 b 335 297 190 256 239 297 b 479 265 392 297 436 286 l 479 253 b 308 100 479 140 406 100 b 190 189 233 100 190 129 z "},"ã":{"ha":706,"x_min":0,"x_max":0,"o":"m 114 806 l 197 740 b 265 811 197 761 210 811 b 443 742 331 811 367 742 b 607 850 519 742 585 799 l 529 928 b 446 858 501 883 475 858 b 267 926 369 858 357 926 b 114 806 193 926 128 874 z m 157 469 b 353 532 188 490 261 532 b 479 439 422 532 479 499 l 479 350 b 313 393 440 372 383 393 b 39 175 156 393 39 317 b 263 -14 39 57 128 -14 b 479 92 358 -14 442 24 l 479 0 l 626 0 l 626 456 b 360 654 626 582 517 654 b 97 578 244 654 156 613 z m 190 189 b 335 297 190 256 239 297 b 479 265 392 297 436 286 l 479 253 b 308 100 479 140 406 100 b 190 189 233 100 190 129 z "},"ä":{"ha":706,"x_min":0,"x_max":0,"o":"m 417 829 b 511 738 417 778 458 738 b 606 829 564 738 606 778 b 511 921 606 881 564 921 b 417 829 458 921 417 881 z m 114 829 b 208 738 114 778 156 738 b 304 829 261 738 304 778 b 208 921 304 881 261 921 b 114 829 156 921 114 881 z m 157 469 b 353 532 188 490 261 532 b 479 439 422 532 479 499 l 479 350 b 313 393 440 372 383 393 b 39 175 156 393 39 317 b 263 -14 39 57 128 -14 b 479 92 358 -14 442 24 l 479 0 l 626 0 l 626 456 b 360 654 626 582 517 654 b 97 578 244 654 156 613 z m 190 189 b 335 297 190 256 239 297 b 479 265 392 297 436 286 l 479 253 b 308 100 479 140 406 100 b 190 189 233 100 190 129 z "},"å":{"ha":706,"x_min":0,"x_max":0,"o":"m 206 886 b 360 738 206 797 278 738 b 514 886 442 738 514 797 b 360 1033 514 975 442 1033 b 206 886 278 1033 206 975 z m 292 886 b 360 957 292 931 325 957 b 428 886 394 957 428 931 b 360 815 428 842 394 815 b 292 886 325 815 292 842 z m 157 469 b 353 532 188 490 261 532 b 479 439 422 532 479 499 l 479 350 b 313 393 440 372 383 393 b 39 175 156 393 39 317 b 263 -14 39 57 128 -14 b 479 92 358 -14 442 24 l 479 0 l 626 0 l 626 456 b 360 654 626 582 517 654 b 97 578 244 654 156 613 z m 190 189 b 335 297 190 256 239 297 b 479 265 392 297 436 286 l 479 253 b 308 100 479 140 406 100 b 190 189 233 100 190 129 z "},"ā":{"ha":706,"x_min":0,"x_max":0,"o":"m 111 758 l 610 758 l 610 894 l 111 894 z m 157 469 b 353 532 188 490 261 532 b 479 439 422 532 479 499 l 479 350 b 313 393 440 372 383 393 b 39 175 156 393 39 317 b 263 -14 39 57 128 -14 b 479 92 358 -14 442 24 l 479 0 l 626 0 l 626 456 b 360 654 626 582 517 654 b 97 578 244 654 156 613 z m 190 189 b 335 297 190 256 239 297 b 479 265 392 297 436 286 l 479 253 b 308 100 479 140 406 100 b 190 189 233 100 190 129 z "},"ă":{"ha":706,"x_min":0,"x_max":0,"o":"m 138 936 b 360 738 138 833 214 738 b 583 936 506 738 583 833 l 468 936 b 360 840 468 894 440 840 b 251 936 279 840 251 894 z m 157 469 b 353 532 188 490 261 532 b 479 439 422 532 479 499 l 479 350 b 313 393 440 372 383 393 b 39 175 156 393 39 317 b 263 -14 39 57 128 -14 b 479 92 358 -14 442 24 l 479 0 l 626 0 l 626 456 b 360 654 626 582 517 654 b 97 578 244 654 156 613 z m 190 189 b 335 297 190 256 239 297 b 479 265 392 297 436 286 l 479 253 b 308 100 479 140 406 100 b 190 189 233 100 190 129 z "},"ą":{"ha":706,"x_min":0,"x_max":0,"o":"m 157 469 b 353 532 188 490 261 532 b 479 439 422 532 479 499 l 479 350 b 313 393 440 372 383 393 b 39 183 144 393 39 315 b 263 -14 39 54 136 -14 b 479 92 358 -14 442 24 l 479 0 l 492 0 b 365 -167 421 -44 365 -100 b 533 -306 365 -251 428 -306 b 663 -250 600 -306 642 -278 l 617 -169 b 547 -197 597 -187 581 -197 b 488 -136 508 -197 488 -181 b 610 0 488 -87 538 -33 l 626 0 l 626 456 b 360 654 626 582 517 654 b 97 578 244 654 156 613 z m 190 189 b 335 297 190 256 239 297 b 479 265 392 297 436 286 l 479 253 b 308 100 479 140 406 100 b 190 189 243 100 190 129 z "},"b":{"ha":817,"x_min":0,"x_max":0,"o":"m 771 319 b 460 653 771 529 626 653 b 242 533 367 653 290 610 l 242 1083 l 90 1083 l 90 0 l 242 0 l 242 106 b 460 -14 290 29 367 -14 b 771 319 626 -14 771 110 z m 615 319 b 424 117 615 192 528 117 b 242 319 338 117 242 189 b 424 522 242 450 338 522 b 615 319 528 522 615 447 z "},"c":{"ha":672,"x_min":0,"x_max":0,"o":"m 196 319 b 394 524 196 438 282 524 b 603 415 483 524 571 478 l 603 582 b 388 653 558 625 478 653 b 42 319 189 653 42 515 b 388 -14 42 124 189 -14 b 603 58 478 -14 558 13 l 603 224 b 394 115 571 161 486 115 b 196 319 282 115 196 199 z "},"ç":{"ha":672,"x_min":0,"x_max":0,"o":"m 196 319 b 394 524 196 438 282 524 b 603 415 483 524 571 478 l 603 582 b 388 653 558 625 478 653 b 42 319 189 653 42 515 b 304 -6 42 153 149 28 l 226 -165 b 321 -142 264 -146 307 -142 b 396 -189 367 -142 396 -154 b 324 -242 396 -222 371 -242 b 233 -208 290 -242 263 -232 l 181 -279 b 335 -333 231 -319 272 -333 b 496 -194 415 -333 496 -285 b 386 -78 496 -117 436 -78 b 357 -81 376 -78 365 -79 l 399 -14 b 603 58 485 -11 560 14 l 603 224 b 394 115 571 161 486 115 b 196 319 282 115 196 199 z "},"ć":{"ha":672,"x_min":0,"x_max":0,"o":"m 568 944 l 442 1007 l 233 785 l 318 736 z m 196 319 b 394 524 196 438 282 524 b 603 415 483 524 571 478 l 603 582 b 388 653 558 625 478 653 b 42 319 189 653 42 515 b 388 -14 42 124 189 -14 b 603 58 478 -14 558 13 l 603 224 b 394 115 571 161 486 115 b 196 319 282 115 196 199 z "},"ĉ":{"ha":672,"x_min":0,"x_max":0,"o":"m 371 863 l 513 736 l 614 810 l 371 1004 l 128 810 l 228 736 z m 196 319 b 394 524 196 438 282 524 b 603 415 483 524 571 478 l 603 582 b 388 653 558 625 478 653 b 42 319 189 653 42 515 b 388 -14 42 124 189 -14 b 603 58 478 -14 558 13 l 603 224 b 394 115 571 161 486 115 b 196 319 282 115 196 199 z "},"ċ":{"ha":672,"x_min":0,"x_max":0,"o":"m 279 832 b 374 740 279 781 321 740 b 468 832 426 740 468 781 b 374 922 468 883 426 922 b 279 832 321 922 279 883 z m 196 319 b 394 524 196 438 282 524 b 603 415 483 524 571 478 l 603 582 b 388 653 558 625 478 653 b 42 319 189 653 42 515 b 388 -14 42 124 189 -14 b 603 58 478 -14 558 13 l 603 224 b 394 115 571 161 486 115 b 196 319 282 115 196 199 z "},"č":{"ha":672,"x_min":0,"x_max":0,"o":"m 371 876 l 228 1004 l 128 931 l 371 736 l 614 931 l 513 1004 z m 196 319 b 394 524 196 438 282 524 b 603 415 483 524 571 478 l 603 582 b 388 653 558 625 478 653 b 42 319 189 653 42 515 b 388 -14 42 124 189 -14 b 603 58 478 -14 558 13 l 603 224 b 394 115 571 161 486 115 b 196 319 282 115 196 199 z "},"d":{"ha":817,"x_min":0,"x_max":0,"o":"m 47 319 b 358 -14 47 110 192 -14 b 576 106 451 -14 528 29 l 576 0 l 728 0 l 728 1083 l 576 1083 l 576 533 b 358 653 528 610 451 653 b 47 319 192 653 47 529 z m 203 319 b 394 522 203 447 290 522 b 576 319 481 522 576 450 b 394 117 576 189 481 117 b 203 319 290 117 203 192 z "},"ď":{"ha":817,"x_min":0,"x_max":0,"o":"m 47 319 b 358 -14 47 110 192 -14 b 576 106 451 -14 528 29 l 576 0 l 728 0 l 728 1083 l 576 1083 l 576 533 b 358 653 528 610 451 653 b 47 319 192 653 47 529 z m 892 1083 l 769 724 l 881 693 l 1042 1040 z m 203 319 b 394 522 203 447 290 522 b 576 319 481 522 576 450 b 394 117 576 189 481 117 b 203 319 290 117 203 192 z "},"e":{"ha":747,"x_min":0,"x_max":0,"o":"m 374 -14 b 694 160 521 -14 628 44 l 564 211 b 381 110 522 142 461 110 b 201 285 276 110 213 174 l 699 285 b 700 326 699 292 700 310 b 381 653 700 531 582 653 b 47 319 178 653 47 521 b 374 -14 47 119 176 -14 z m 379 539 b 536 389 468 539 529 481 l 206 389 b 379 539 224 486 285 539 z "},"è":{"ha":747,"x_min":0,"x_max":0,"o":"m 172 956 l 422 747 l 508 796 l 300 1018 z m 694 160 l 564 211 b 381 110 526 149 467 110 b 201 285 282 110 213 168 l 699 285 b 700 326 700 300 700 315 b 381 653 700 528 578 653 b 53 388 199 653 79 544 b 47 319 49 365 47 343 b 374 -14 47 126 175 -14 b 694 160 546 -14 631 56 z m 379 539 b 538 389 476 539 526 479 l 204 389 b 379 539 218 483 289 539 z "},"é":{"ha":747,"x_min":0,"x_max":0,"o":"m 610 956 l 483 1018 l 275 796 l 360 747 z m 694 160 l 564 211 b 381 110 526 149 467 110 b 201 285 282 110 213 168 l 699 285 b 700 326 700 300 700 315 b 381 653 700 528 578 653 b 53 388 199 653 79 544 b 47 319 49 365 47 343 b 374 -14 47 126 175 -14 b 694 160 546 -14 631 56 z m 379 539 b 538 389 476 539 526 479 l 204 389 b 379 539 218 483 289 539 z "},"ê":{"ha":747,"x_min":0,"x_max":0,"o":"m 381 863 l 524 736 l 624 810 l 381 1004 l 138 810 l 239 736 z m 694 160 l 564 211 b 381 110 526 149 467 110 b 201 285 282 110 213 168 l 699 285 b 700 326 700 300 700 315 b 381 653 700 528 578 653 b 53 388 199 653 79 544 b 47 319 49 365 47 343 b 374 -14 47 126 175 -14 b 694 160 546 -14 631 56 z m 379 539 b 538 389 476 539 526 479 l 204 389 b 379 539 218 483 289 539 z "},"ë":{"ha":747,"x_min":0,"x_max":0,"o":"m 438 828 b 532 736 438 776 479 736 b 626 828 585 736 626 776 b 532 919 626 879 585 919 b 438 828 479 919 438 879 z m 135 828 b 229 736 135 776 176 736 b 325 828 282 736 325 776 b 229 919 325 879 282 919 b 135 828 176 919 135 879 z m 694 160 l 564 211 b 381 110 526 149 467 110 b 201 285 282 110 213 168 l 699 285 b 700 326 700 300 700 315 b 381 653 700 528 578 653 b 53 388 199 653 79 544 b 47 319 49 365 47 343 b 374 -14 47 126 175 -14 b 694 160 546 -14 631 56 z m 379 539 b 538 389 476 539 526 479 l 204 389 b 379 539 218 483 289 539 z "},"ē":{"ha":747,"x_min":0,"x_max":0,"o":"m 132 736 l 631 736 l 631 872 l 132 872 z m 694 160 l 564 211 b 381 110 526 149 467 110 b 201 285 282 110 213 168 l 699 285 b 700 326 700 300 700 315 b 381 653 700 528 578 653 b 53 388 199 653 79 544 b 47 319 49 365 47 343 b 374 -14 47 126 175 -14 b 694 160 546 -14 631 56 z m 379 539 b 538 389 476 539 526 479 l 204 389 b 379 539 218 483 289 539 z "},"ĕ":{"ha":747,"x_min":0,"x_max":0,"o":"m 158 935 b 381 736 158 832 235 736 b 604 935 526 736 604 832 l 489 935 b 381 839 489 893 461 839 b 272 935 300 839 272 893 z m 694 160 l 564 211 b 381 110 526 149 467 110 b 201 285 282 110 213 168 l 699 285 b 700 326 700 300 700 315 b 381 653 700 528 578 653 b 53 388 199 653 79 544 b 47 319 49 365 47 343 b 374 -14 47 126 175 -14 b 694 160 546 -14 631 56 z m 379 539 b 538 389 476 539 526 479 l 204 389 b 379 539 218 483 289 539 z "},"ė":{"ha":747,"x_min":0,"x_max":0,"o":"m 286 828 b 381 736 286 776 328 736 b 475 828 433 736 475 776 b 381 919 475 879 433 919 b 286 828 328 919 286 879 z m 694 160 l 564 211 b 381 110 526 149 467 110 b 201 285 282 110 213 168 l 699 285 b 700 326 700 300 700 315 b 381 653 700 528 578 653 b 53 388 199 653 79 544 b 47 319 49 365 47 343 b 374 -14 47 126 175 -14 b 694 160 546 -14 631 56 z m 379 539 b 538 389 476 539 526 479 l 204 389 b 379 539 218 483 289 539 z "},"ę":{"ha":747,"x_min":0,"x_max":0,"o":"m 431 -167 b 361 -194 411 -185 394 -194 b 301 -132 322 -194 301 -176 b 390 -14 301 -92 336 -47 b 694 160 551 -10 633 58 l 564 211 b 381 110 526 149 467 110 b 201 285 282 110 213 168 l 699 285 b 700 326 700 300 700 315 b 381 653 700 528 578 653 b 53 388 199 653 79 544 b 47 319 49 365 47 343 b 292 -6 47 154 140 28 b 181 -162 228 -49 181 -100 b 347 -301 181 -247 242 -301 b 476 -246 414 -301 456 -274 z m 379 539 b 538 389 476 539 526 479 l 204 389 b 379 539 218 483 289 539 z "},"ě":{"ha":747,"x_min":0,"x_max":0,"o":"m 381 876 l 239 1004 l 138 931 l 381 736 l 624 931 l 524 1004 z m 694 160 l 564 211 b 381 110 526 149 467 110 b 201 285 282 110 213 168 l 699 285 b 700 326 700 300 700 315 b 381 653 700 528 578 653 b 53 388 199 653 79 544 b 47 319 49 365 47 343 b 374 -14 47 126 175 -14 b 694 160 546 -14 631 56 z m 379 539 b 538 389 476 539 526 479 l 204 389 b 379 539 218 483 289 539 z "},"f":{"ha":429,"x_min":0,"x_max":0,"o":"m 43 639 l 43 507 l 113 507 l 113 0 l 260 0 l 260 507 l 410 507 l 410 639 l 260 639 l 260 846 b 326 958 260 926 285 958 b 394 922 350 958 375 951 l 464 1039 b 319 1100 440 1067 393 1100 b 113 875 186 1100 113 1024 l 113 639 z "},"g":{"ha":814,"x_min":0,"x_max":0,"o":"m 60 -43 b 393 -325 65 -210 185 -325 b 724 14 567 -325 724 -218 l 724 639 l 576 639 l 576 535 b 358 653 528 611 451 653 b 47 322 192 653 47 532 b 358 -7 47 113 192 -7 b 576 110 451 -7 528 35 l 576 14 b 389 -194 576 -131 483 -194 b 210 -43 281 -194 213 -129 z m 203 322 b 394 522 203 450 290 522 b 576 322 481 522 576 453 b 394 124 576 192 481 124 b 203 322 290 124 203 194 z "},"ĝ":{"ha":814,"x_min":0,"x_max":0,"o":"m 396 863 l 539 736 l 640 810 l 396 1004 l 154 810 l 254 736 z m 60 -43 b 393 -325 65 -210 185 -325 b 724 14 567 -325 724 -218 l 724 639 l 576 639 l 576 535 b 358 653 528 611 451 653 b 47 322 192 653 47 532 b 358 -7 47 113 192 -7 b 576 110 451 -7 528 35 l 576 14 b 389 -194 576 -131 483 -194 b 210 -43 281 -194 213 -129 z m 203 322 b 394 522 203 450 290 522 b 576 322 481 522 576 453 b 394 124 576 192 481 124 b 203 322 290 124 203 194 z "},"ğ":{"ha":814,"x_min":0,"x_max":0,"o":"m 174 935 b 396 736 174 832 250 736 b 619 935 542 736 619 832 l 506 935 b 396 839 506 893 476 839 b 288 935 315 839 288 893 z m 60 -43 b 393 -325 65 -210 185 -325 b 724 14 567 -325 724 -218 l 724 639 l 576 639 l 576 535 b 358 653 528 611 451 653 b 47 322 192 653 47 532 b 358 -7 47 113 192 -7 b 576 110 451 -7 528 35 l 576 14 b 389 -194 576 -131 483 -194 b 210 -43 281 -194 213 -129 z m 203 322 b 394 522 203 450 290 522 b 576 322 481 522 576 453 b 394 124 576 192 481 124 b 203 322 290 124 203 194 z "},"ġ":{"ha":814,"x_min":0,"x_max":0,"o":"m 313 869 b 407 778 313 818 354 778 b 501 869 460 778 501 818 b 407 961 501 921 460 961 b 313 869 354 961 313 921 z m 60 -43 b 393 -325 65 -210 185 -325 b 724 14 567 -325 724 -218 l 724 639 l 576 639 l 576 535 b 358 653 528 611 451 653 b 47 322 192 653 47 532 b 358 -7 47 113 192 -7 b 576 110 451 -7 528 35 l 576 14 b 389 -194 576 -131 483 -194 b 210 -43 281 -194 213 -129 z m 203 322 b 394 522 203 450 290 522 b 576 322 481 522 576 453 b 394 124 576 192 481 124 b 203 322 290 124 203 194 z "},"ģ":{"ha":792,"x_min":0,"x_max":0,"o":"m 407 756 l 583 1093 l 478 1140 l 265 822 z m 60 -43 b 393 -325 65 -210 185 -325 b 724 14 567 -325 724 -218 l 724 639 l 576 639 l 576 535 b 358 653 528 611 451 653 b 47 322 192 653 47 532 b 358 -7 47 113 192 -7 b 576 110 451 -7 528 35 l 576 14 b 389 -194 576 -131 483 -194 b 210 -43 281 -194 213 -129 z m 203 322 b 394 522 203 450 290 522 b 576 322 481 522 576 453 b 394 124 576 192 481 124 b 203 322 290 124 203 194 z "},"h":{"ha":753,"x_min":0,"x_max":0,"o":"m 507 389 l 507 0 l 658 0 l 658 410 b 439 657 658 572 582 657 b 246 543 350 657 283 613 l 246 1083 l 96 1083 l 96 0 l 246 0 l 246 389 b 389 532 246 474 304 532 b 507 389 471 532 507 482 z "},"ĥ":{"ha":753,"x_min":0,"x_max":0,"o":"m 178 1293 l 321 1167 l 421 1239 l 178 1433 l -65 1239 l 36 1167 z m 507 389 l 507 0 l 658 0 l 658 410 b 439 657 658 572 582 657 b 246 553 356 657 288 617 l 246 1083 l 96 1083 l 96 0 l 246 0 l 246 389 b 389 532 246 474 304 532 b 507 389 471 532 507 482 z "},"i":{"ha":369,"x_min":0,"x_max":0,"o":"m 90 893 b 185 801 90 842 132 801 b 279 893 238 801 279 842 b 185 985 279 944 238 985 b 90 893 132 985 90 944 z m 111 639 l 111 0 l 258 0 l 258 639 z "},"ì":{"ha":369,"x_min":0,"x_max":0,"o":"m -49 965 l 201 757 l 286 806 l 78 1028 z m 111 639 l 111 0 l 258 0 l 258 639 z "},"í":{"ha":369,"x_min":0,"x_max":0,"o":"m 414 965 l 288 1028 l 79 806 l 164 757 z m 111 639 l 111 0 l 258 0 l 258 639 z "},"î":{"ha":369,"x_min":0,"x_max":0,"o":"m 185 874 l 328 747 l 428 819 l 185 1014 l -58 819 l 42 747 z m 111 639 l 111 0 l 258 0 l 258 639 z "},"ï":{"ha":369,"x_min":0,"x_max":0,"o":"m 242 860 b 336 768 242 808 283 768 b 431 860 389 768 431 808 b 336 950 431 911 389 950 b 242 860 283 950 242 911 z m -61 860 b 33 768 -61 808 -19 768 b 129 860 86 768 129 808 b 33 950 129 911 86 950 b -61 860 -19 950 -61 911 z m 111 639 l 111 0 l 258 0 l 258 639 z "},"ĩ":{"ha":369,"x_min":0,"x_max":0,"o":"m -61 804 l 22 739 b 90 810 22 760 35 810 b 268 740 156 810 192 740 b 432 849 344 740 410 797 l 354 926 b 271 857 326 882 300 857 b 92 925 194 857 182 925 b -61 804 18 925 -47 872 z m 111 639 l 111 0 l 258 0 l 258 639 z "},"ī":{"ha":369,"x_min":0,"x_max":0,"o":"m -64 736 l 435 736 l 435 872 l -64 872 z m 111 639 l 111 0 l 258 0 l 258 639 z "},"ĭ":{"ha":369,"x_min":0,"x_max":0,"o":"m -39 935 b 185 736 -39 832 39 736 b 408 935 331 736 408 832 l 293 935 b 185 839 293 893 265 839 b 76 935 104 839 76 893 z m 111 639 l 111 0 l 258 0 l 258 639 z "},"į":{"ha":369,"x_min":0,"x_max":0,"o":"m 90 893 b 185 801 90 842 132 801 b 279 893 238 801 279 842 b 185 985 279 944 238 985 b 90 893 132 985 90 944 z m 251 -169 b 182 -197 232 -187 215 -197 b 124 -136 143 -197 124 -181 b 244 0 124 -87 172 -33 l 258 0 l 258 639 l 111 639 l 111 0 l 126 0 b 1 -167 56 -44 1 -100 b 169 -306 1 -251 64 -306 b 297 -250 236 -306 276 -278 z "},"j":{"ha":358,"x_min":0,"x_max":0,"o":"m 76 893 b 171 803 76 842 118 803 b 264 893 224 803 264 842 b 171 983 264 944 224 983 b 76 893 118 983 76 944 z m -32 -137 l -103 -254 b 40 -317 -74 -289 -31 -317 b 249 -90 174 -317 249 -231 l 249 639 l 100 639 l 100 -61 b 33 -174 100 -140 79 -174 b -32 -137 4 -174 -17 -160 z "},"ĵ":{"ha":358,"x_min":0,"x_max":0,"o":"m 175 863 l 317 736 l 417 810 l 175 1004 l -69 810 l 32 736 z m -32 -137 l -103 -254 b 40 -317 -79 -282 -33 -317 b 249 -90 174 -317 249 -239 l 249 639 l 100 639 l 100 -61 b 33 -174 100 -142 75 -174 b -32 -137 10 -174 -12 -167 z "},"k":{"ha":686,"x_min":0,"x_max":0,"o":"m 472 639 l 238 414 l 238 1083 l 90 1083 l 90 0 l 238 0 l 238 325 l 501 0 l 683 0 l 381 375 l 656 639 z "},"ķ":{"ha":686,"x_min":0,"x_max":0,"o":"m 472 639 l 238 414 l 238 1083 l 90 1083 l 90 0 l 238 0 l 238 325 l 501 0 l 683 0 l 381 375 l 656 639 z m 358 -83 l 236 -443 l 349 -474 l 510 -126 z "},"l":{"ha":342,"x_min":0,"x_max":0,"o":"m 96 1083 l 96 0 l 246 0 l 246 1083 z "},"ĺ":{"ha":342,"x_min":0,"x_max":0,"o":"m 369 1375 l 242 1438 l 33 1215 l 119 1167 z m 96 1083 l 96 0 l 246 0 l 246 1083 z "},"ļ":{"ha":342,"x_min":0,"x_max":0,"o":"m 96 1083 l 96 0 l 246 0 l 246 1083 z m 157 -83 l 35 -443 l 146 -474 l 307 -126 z "},"ľ":{"ha":342,"x_min":0,"x_max":0,"o":"m 96 1083 l 96 0 l 246 0 l 246 1083 z m 438 1083 l 315 724 l 428 693 l 589 1040 z "},"m":{"ha":1106,"x_min":0,"x_max":0,"o":"m 1010 406 b 807 653 1010 563 944 653 b 607 539 721 653 651 613 b 422 653 579 613 515 653 b 243 546 340 653 281 617 l 243 639 l 96 639 l 96 0 l 243 0 l 243 389 b 369 532 243 481 292 532 b 475 389 442 532 475 485 l 475 0 l 626 0 l 626 389 b 754 532 626 481 676 532 b 860 389 826 532 860 485 l 860 0 l 1010 0 z "},"n":{"ha":757,"x_min":0,"x_max":0,"o":"m 507 389 l 507 0 l 661 0 l 661 406 b 439 653 661 560 583 653 b 246 540 351 653 286 615 l 246 639 l 96 639 l 96 0 l 246 0 l 246 389 b 389 532 246 475 304 532 b 507 389 469 532 507 482 z "},"ñ":{"ha":757,"x_min":0,"x_max":0,"o":"m 133 804 l 217 739 b 285 810 217 760 229 810 b 463 740 350 810 386 740 b 625 849 539 740 603 797 l 547 926 b 464 857 519 882 493 857 b 286 925 388 857 376 925 b 133 804 213 925 147 872 z m 507 389 l 507 0 l 661 0 l 661 406 b 439 653 661 568 582 653 b 246 550 356 653 288 614 l 246 639 l 96 639 l 96 0 l 246 0 l 246 389 b 389 532 246 474 304 532 b 507 389 471 532 507 482 z "},"ń":{"ha":757,"x_min":0,"x_max":0,"o":"m 586 944 l 461 1007 l 253 785 l 336 736 z m 507 389 l 507 0 l 661 0 l 661 406 b 439 653 661 568 582 653 b 246 539 350 653 283 608 l 246 639 l 96 639 l 96 0 l 246 0 l 246 389 b 389 532 246 474 304 532 b 507 389 471 532 507 482 z "},"ņ":{"ha":757,"x_min":0,"x_max":0,"o":"m 507 389 l 507 0 l 661 0 l 661 406 b 439 653 661 568 582 653 b 246 550 356 653 288 614 l 246 639 l 96 639 l 96 0 l 246 0 l 246 389 b 389 532 246 474 304 532 b 507 389 471 532 507 482 z m 364 -83 l 242 -443 l 353 -474 l 514 -126 z "},"ň":{"ha":757,"x_min":0,"x_max":0,"o":"m 378 876 l 236 1004 l 135 931 l 378 736 l 621 931 l 519 1004 z m 507 389 l 507 0 l 661 0 l 661 406 b 439 653 661 568 582 653 b 246 550 356 653 288 614 l 246 639 l 96 639 l 96 0 l 246 0 l 246 389 b 389 532 246 474 304 532 b 507 389 471 532 507 482 z "},"o":{"ha":782,"x_min":0,"x_max":0,"o":"m 47 319 b 392 -14 47 124 196 -14 b 736 319 588 -14 736 124 b 392 653 736 515 588 653 b 47 319 196 653 47 515 z m 201 319 b 392 521 201 439 283 521 b 582 319 500 521 582 439 b 392 118 582 200 500 118 b 201 319 283 118 201 200 z "},"ò":{"ha":782,"x_min":0,"x_max":0,"o":"m 169 965 l 419 757 l 504 806 l 296 1028 z m 47 319 b 392 -14 47 124 196 -14 b 736 319 588 -14 736 124 b 392 653 736 515 588 653 b 47 319 196 653 47 515 z m 201 319 b 392 521 201 439 283 521 b 582 319 500 521 582 439 b 392 118 582 200 500 118 b 201 319 283 118 201 200 z "},"ó":{"ha":782,"x_min":0,"x_max":0,"o":"m 614 965 l 486 1028 l 278 806 l 364 757 z m 47 319 b 392 -14 47 124 196 -14 b 736 319 588 -14 736 124 b 392 653 736 515 588 653 b 47 319 196 653 47 515 z m 201 319 b 392 521 201 439 283 521 b 582 319 500 521 582 439 b 392 118 582 200 500 118 b 201 319 283 118 201 200 z "},"ô":{"ha":782,"x_min":0,"x_max":0,"o":"m 392 885 l 533 757 l 635 831 l 392 1025 l 149 831 l 249 757 z m 47 319 b 392 -14 47 124 196 -14 b 736 319 588 -14 736 124 b 392 653 736 515 588 653 b 47 319 196 653 47 515 z m 201 319 b 392 521 201 439 283 521 b 582 319 500 521 582 439 b 392 118 582 200 500 118 b 201 319 283 118 201 200 z "},"õ":{"ha":782,"x_min":0,"x_max":0,"o":"m 144 804 l 229 739 b 296 810 229 760 240 810 b 475 740 361 810 399 740 b 638 849 551 740 615 797 l 560 926 b 478 857 532 882 507 857 b 297 925 401 857 388 925 b 144 804 224 925 158 872 z m 47 319 b 392 -14 47 124 196 -14 b 736 319 588 -14 736 124 b 392 653 736 515 588 653 b 47 319 196 653 47 515 z m 201 319 b 392 521 201 439 283 521 b 582 319 500 521 582 439 b 392 118 582 200 500 118 b 201 319 283 118 201 200 z "},"ö":{"ha":782,"x_min":0,"x_max":0,"o":"m 447 860 b 543 768 447 808 490 768 b 638 860 596 768 638 808 b 543 950 638 911 596 950 b 447 860 490 950 447 911 z m 146 860 b 240 768 146 808 188 768 b 335 860 293 768 335 808 b 240 950 335 911 293 950 b 146 860 188 950 146 911 z m 47 319 b 392 -14 47 124 196 -14 b 736 319 588 -14 736 124 b 392 653 736 515 588 653 b 47 319 196 653 47 515 z m 201 319 b 392 521 201 439 283 521 b 582 319 500 521 582 439 b 392 118 582 200 500 118 b 201 319 283 118 201 200 z "},"ō":{"ha":782,"x_min":0,"x_max":0,"o":"m 142 736 l 640 736 l 640 872 l 142 872 z m 47 319 b 392 -14 47 124 196 -14 b 736 319 588 -14 736 124 b 392 653 736 515 588 653 b 47 319 196 653 47 515 z m 201 319 b 392 521 201 439 283 521 b 582 319 500 521 582 439 b 392 118 582 200 500 118 b 201 319 283 118 201 200 z "},"ŏ":{"ha":782,"x_min":0,"x_max":0,"o":"m 168 935 b 392 736 168 832 246 736 b 614 935 538 736 614 832 l 500 935 b 392 839 500 893 472 839 b 283 935 311 839 283 893 z m 47 319 b 392 -14 47 124 196 -14 b 736 319 588 -14 736 124 b 392 653 736 515 588 653 b 47 319 196 653 47 515 z m 201 319 b 392 521 201 439 283 521 b 582 319 500 521 582 439 b 392 118 582 200 500 118 b 201 319 283 118 201 200 z "},"ő":{"ha":782,"x_min":0,"x_max":0,"o":"m 271 738 l 463 999 l 326 1032 l 176 765 z m 511 738 l 706 999 l 567 1032 l 418 765 z m 47 319 b 392 -14 47 124 196 -14 b 736 319 588 -14 736 124 b 392 653 736 515 588 653 b 47 319 196 653 47 515 z m 201 319 b 392 521 201 439 283 521 b 582 319 500 521 582 439 b 392 118 582 200 500 118 b 201 319 283 118 201 200 z "},"p":{"ha":817,"x_min":0,"x_max":0,"o":"m 242 -306 l 242 107 b 460 -17 288 28 364 -17 b 771 319 626 -17 771 106 b 460 656 771 533 626 656 b 242 532 364 656 288 611 l 242 639 l 90 639 l 90 -306 z m 615 319 b 424 119 615 192 528 119 b 242 319 338 119 242 189 b 424 519 242 450 338 519 b 615 319 528 519 615 447 z "},"q":{"ha":817,"x_min":0,"x_max":0,"o":"m 47 319 b 358 -17 47 106 192 -17 b 576 107 454 -17 531 28 l 576 -306 l 728 -306 l 728 639 l 576 639 l 576 532 b 358 656 531 611 454 656 b 47 319 192 656 47 533 z m 203 319 b 394 519 203 447 290 519 b 576 319 481 519 576 450 b 394 119 576 189 481 119 b 203 319 290 119 203 192 z "},"r":{"ha":514,"x_min":0,"x_max":0,"o":"m 435 478 l 508 606 b 390 653 479 639 436 653 b 244 561 336 653 282 618 l 244 639 l 96 639 l 96 0 l 244 0 l 244 360 b 350 513 244 451 275 513 b 435 478 386 513 407 500 z "},"ŕ":{"ha":514,"x_min":0,"x_max":0,"o":"m 499 944 l 374 1008 l 165 786 l 249 736 z m 435 478 l 508 606 b 390 653 479 639 436 653 b 244 561 336 653 282 618 l 244 639 l 96 639 l 96 0 l 244 0 l 244 360 b 350 513 244 451 275 513 b 435 478 386 513 407 500 z "},"ŗ":{"ha":514,"x_min":0,"x_max":0,"o":"m 435 478 l 508 606 b 390 653 479 639 436 653 b 244 561 336 653 282 618 l 244 639 l 96 639 l 96 0 l 244 0 l 244 360 b 350 513 244 451 275 513 b 435 478 386 513 407 500 z m 156 -83 l 33 -443 l 146 -474 l 307 -126 z "},"ř":{"ha":514,"x_min":0,"x_max":0,"o":"m 301 878 l 158 1004 l 58 931 l 301 736 l 544 931 l 443 1004 z m 435 478 l 508 606 b 390 653 479 639 436 653 b 244 561 336 653 282 618 l 244 639 l 96 639 l 96 0 l 244 0 l 244 360 b 350 513 244 451 275 513 b 435 478 386 513 407 500 z "},"ȓ":{"ha":514,"x_min":0,"x_max":0,"o":"m 79 736 l 193 736 b 301 832 193 778 221 832 b 411 736 382 832 411 778 l 525 736 b 301 935 525 839 447 935 b 79 736 156 935 79 839 z m 435 478 l 508 606 b 390 653 479 639 436 653 b 244 561 336 653 282 618 l 244 639 l 96 639 l 96 0 l 244 0 l 244 360 b 350 513 244 451 275 513 b 435 478 386 513 407 500 z "},"s":{"ha":589,"x_min":0,"x_max":0,"o":"m 125 210 l 38 122 b 324 -19 93 49 192 -19 b 551 181 463 -19 551 60 b 356 381 551 296 461 338 b 217 482 276 411 217 433 b 290 536 217 517 247 536 b 458 451 353 536 417 500 l 542 540 b 294 653 489 604 399 653 b 75 479 176 653 75 594 b 257 285 75 363 169 317 b 400 172 342 254 400 228 b 314 104 400 131 368 104 b 125 210 249 104 188 142 z "},"ś":{"ha":589,"x_min":0,"x_max":0,"o":"m 544 944 l 417 1007 l 208 785 l 294 736 z m 122 232 l 32 144 b 313 -19 76 51 188 -19 b 551 181 457 -19 551 40 b 375 371 551 281 465 335 b 215 471 300 400 215 426 b 300 528 215 513 249 528 b 458 451 351 528 419 497 l 542 540 b 294 653 500 604 399 653 b 68 478 178 653 68 590 b 243 289 68 369 157 325 b 397 174 317 257 397 235 b 306 108 397 128 363 108 b 122 232 240 108 169 151 z "},"ŝ":{"ha":589,"x_min":0,"x_max":0,"o":"m 301 863 l 443 736 l 544 810 l 301 1004 l 58 810 l 158 736 z m 122 232 l 32 144 b 313 -19 76 51 188 -19 b 551 181 457 -19 551 40 b 375 371 551 281 465 335 b 215 471 300 400 215 426 b 300 528 215 513 249 528 b 458 451 351 528 419 497 l 542 540 b 294 653 500 604 399 653 b 68 478 178 653 68 590 b 243 289 68 369 157 325 b 397 174 317 257 397 235 b 306 108 397 128 363 108 b 122 232 240 108 169 151 z "},"ş":{"ha":589,"x_min":0,"x_max":0,"o":"m 119 233 l 32 144 b 264 -12 85 67 167 6 l 193 -162 b 285 -139 231 -143 271 -139 b 361 -186 331 -139 361 -151 b 289 -239 361 -219 336 -239 b 199 -206 256 -239 228 -229 l 147 -276 b 300 -331 197 -317 238 -331 b 463 -192 381 -331 463 -282 b 350 -75 463 -114 400 -75 b 324 -78 340 -75 332 -76 l 363 -17 b 551 182 476 -6 551 56 b 375 376 551 292 465 340 b 217 478 300 406 217 422 b 304 535 217 518 253 535 b 458 453 356 535 419 499 l 542 540 b 294 654 489 604 399 654 b 75 478 178 654 75 597 b 257 286 75 356 168 321 b 397 174 331 258 397 233 b 311 107 397 128 361 107 b 119 233 260 107 189 150 z "},"š":{"ha":589,"x_min":0,"x_max":0,"o":"m 294 871 l 151 997 l 51 924 l 294 729 l 538 924 l 436 997 z m 122 232 l 32 144 b 313 -19 76 51 188 -19 b 551 181 457 -19 551 40 b 375 371 551 281 465 335 b 215 471 300 400 215 426 b 300 528 215 513 249 528 b 458 451 351 528 419 497 l 542 540 b 294 653 500 604 399 653 b 68 478 178 653 68 590 b 243 289 68 369 157 325 b 397 174 317 257 397 235 b 306 108 397 128 363 108 b 122 232 240 108 169 151 z "},"ș":{"ha":589,"x_min":0,"x_max":0,"o":"m 122 232 l 32 144 b 313 -19 76 51 188 -19 b 551 181 457 -19 551 40 b 375 371 551 281 465 335 b 215 471 300 400 215 426 b 300 528 215 513 249 528 b 458 451 351 528 419 497 l 542 540 b 294 653 500 604 399 653 b 68 478 178 653 68 590 b 243 289 68 369 157 325 b 397 174 317 257 397 235 b 306 108 397 128 363 108 b 122 232 240 108 169 151 z m 285 -96 l 163 -456 l 274 -486 l 435 -139 z "},"t":{"ha":376,"x_min":0,"x_max":0,"o":"m 7 639 l 7 507 l 114 507 l 114 0 l 263 0 l 263 507 l 369 507 l 369 639 l 263 639 l 263 861 l 114 861 l 114 639 z "},"ţ":{"ha":376,"x_min":0,"x_max":0,"o":"m 7 639 l 7 507 l 114 507 l 114 0 l 125 0 l 13 -233 b 106 -210 50 -214 92 -210 b 181 -258 151 -210 181 -224 b 108 -311 181 -292 156 -311 b 19 -276 75 -311 49 -300 l -35 -347 b 119 -401 15 -387 57 -401 b 282 -262 200 -401 282 -353 b 171 -147 282 -185 221 -147 b 143 -149 161 -147 151 -147 l 236 0 l 263 0 l 263 507 l 369 507 l 369 639 l 263 639 l 263 861 l 114 861 l 114 639 z "},"ť":{"ha":560,"x_min":0,"x_max":0,"o":"m 457 1111 l 335 751 l 447 722 l 608 1069 z m 7 639 l 7 507 l 114 507 l 114 0 l 263 0 l 263 507 l 369 507 l 369 639 l 263 639 l 263 861 l 114 861 l 114 639 z "},"ț":{"ha":376,"x_min":0,"x_max":0,"o":"m 7 639 l 7 507 l 114 507 l 114 0 l 263 0 l 263 507 l 369 507 l 369 639 l 263 639 l 263 861 l 114 861 l 114 639 z m 174 -83 l 51 -443 l 164 -474 l 325 -126 z "},"u":{"ha":757,"x_min":0,"x_max":0,"o":"m 250 250 l 250 639 l 96 639 l 96 233 b 318 -14 96 81 175 -14 b 511 99 407 -14 471 25 l 511 0 l 661 0 l 661 639 l 511 639 l 511 250 b 368 107 511 164 453 107 b 250 250 288 107 250 160 z "},"ù":{"ha":757,"x_min":0,"x_max":0,"o":"m 197 965 l 447 757 l 533 806 l 325 1028 z m 250 250 l 250 639 l 96 639 l 96 233 b 318 -14 96 71 175 -14 b 511 89 401 -14 469 25 l 511 0 l 661 0 l 661 639 l 511 639 l 511 250 b 368 107 511 165 453 107 b 250 250 286 107 250 157 z "},"ú":{"ha":757,"x_min":0,"x_max":0,"o":"m 558 965 l 433 1028 l 225 806 l 308 757 z m 250 250 l 250 639 l 96 639 l 96 233 b 318 -14 96 71 175 -14 b 511 89 401 -14 469 25 l 511 0 l 661 0 l 661 639 l 511 639 l 511 250 b 368 107 511 165 453 107 b 250 250 286 107 250 157 z "},"û":{"ha":757,"x_min":0,"x_max":0,"o":"m 378 885 l 519 757 l 621 831 l 378 1025 l 135 831 l 236 757 z m 250 250 l 250 639 l 96 639 l 96 233 b 318 -14 96 71 175 -14 b 511 89 401 -14 469 25 l 511 0 l 661 0 l 661 639 l 511 639 l 511 250 b 368 107 511 165 453 107 b 250 250 286 107 250 157 z "},"ü":{"ha":757,"x_min":0,"x_max":0,"o":"m 436 849 b 529 757 436 797 476 757 b 625 849 582 757 625 797 b 529 940 625 900 582 940 b 436 849 476 940 436 900 z m 133 849 b 228 757 133 797 175 757 b 322 849 281 757 322 797 b 228 940 322 900 281 940 b 133 849 175 940 133 900 z m 250 250 l 250 639 l 96 639 l 96 233 b 318 -14 96 71 175 -14 b 511 89 401 -14 469 25 l 511 0 l 661 0 l 661 639 l 511 639 l 511 250 b 368 107 511 165 453 107 b 250 250 286 107 250 157 z "},"ũ":{"ha":757,"x_min":0,"x_max":0,"o":"m 132 804 l 217 739 b 283 810 217 760 228 810 b 463 740 349 810 386 740 b 625 849 539 740 603 797 l 547 926 b 464 857 519 882 493 857 b 285 925 388 857 375 925 b 132 804 211 925 146 872 z m 250 250 l 250 639 l 96 639 l 96 233 b 318 -14 96 71 175 -14 b 511 100 407 -14 474 31 l 511 0 l 661 0 l 661 639 l 511 639 l 511 250 b 368 107 511 165 453 107 b 250 250 286 107 250 157 z "},"ū":{"ha":757,"x_min":0,"x_max":0,"o":"m 129 736 l 628 736 l 628 872 l 129 872 z m 250 250 l 250 639 l 96 639 l 96 233 b 318 -14 96 71 175 -14 b 511 100 407 -14 474 31 l 511 0 l 661 0 l 661 639 l 511 639 l 511 250 b 368 107 511 165 453 107 b 250 250 286 107 250 157 z "},"ŭ":{"ha":757,"x_min":0,"x_max":0,"o":"m 156 935 b 379 736 156 832 233 736 b 601 935 525 736 601 832 l 488 935 b 379 839 488 893 460 839 b 269 935 299 839 269 893 z m 250 250 l 250 639 l 96 639 l 96 233 b 318 -14 96 71 175 -14 b 511 100 407 -14 474 31 l 511 0 l 661 0 l 661 639 l 511 639 l 511 250 b 368 107 511 165 453 107 b 250 250 286 107 250 157 z "},"ů":{"ha":757,"x_min":0,"x_max":0,"o":"m 224 883 b 378 736 224 794 296 736 b 533 883 460 736 533 794 b 378 1032 533 972 460 1032 b 224 883 296 1032 224 972 z m 310 883 b 378 954 310 928 343 954 b 447 883 413 954 447 928 b 378 814 447 839 413 814 b 310 883 343 814 310 839 z m 250 250 l 250 639 l 96 639 l 96 233 b 318 -14 96 71 175 -14 b 511 100 407 -14 474 31 l 511 0 l 661 0 l 661 639 l 511 639 l 511 250 b 368 107 511 165 453 107 b 250 250 286 107 250 157 z "},"ű":{"ha":757,"x_min":0,"x_max":0,"o":"m 258 738 l 450 999 l 314 1032 l 164 765 z m 499 738 l 693 999 l 554 1032 l 406 765 z m 250 250 l 250 639 l 96 639 l 96 233 b 318 -14 96 81 175 -14 b 511 99 407 -14 471 25 l 511 0 l 661 0 l 661 639 l 511 639 l 511 250 b 368 107 511 164 453 107 b 250 250 288 107 250 160 z "},"ų":{"ha":757,"x_min":0,"x_max":0,"o":"m 250 250 l 250 639 l 96 639 l 96 233 b 283 -12 96 93 163 3 b 136 -192 203 -58 136 -118 b 303 -331 136 -276 197 -331 b 432 -275 369 -331 411 -303 l 386 -194 b 317 -222 367 -212 350 -222 b 257 -161 278 -222 257 -206 b 379 -25 257 -112 307 -58 l 357 -11 b 511 99 425 -1 476 36 l 511 0 l 661 0 l 661 639 l 511 639 l 511 250 b 368 107 511 164 453 107 b 250 250 288 107 250 160 z "},"v":{"ha":658,"x_min":0,"x_max":0,"o":"m -1 639 l 331 -60 l 661 639 l 497 639 l 331 226 l 164 639 z "},"w":{"ha":989,"x_min":0,"x_max":0,"o":"m 0 639 l 299 -46 l 490 386 l 690 -46 l 990 639 l 826 639 l 676 257 l 490 688 l 313 260 l 163 639 z "},"ŵ":{"ha":989,"x_min":0,"x_max":0,"o":"m 490 897 l 632 771 l 732 843 l 490 1038 l 246 843 l 347 771 z m 0 639 l 299 -46 l 490 386 l 690 -46 l 990 639 l 826 639 l 676 257 l 490 688 l 313 260 l 163 639 z "},"ẁ":{"ha":989,"x_min":0,"x_max":0,"o":"m 490 771 l 575 819 l 367 1042 l 240 979 z m 0 639 l 299 -46 l 490 386 l 690 -46 l 990 639 l 826 639 l 676 257 l 490 688 l 313 260 l 163 639 z "},"ẃ":{"ha":989,"x_min":0,"x_max":0,"o":"m 489 771 l 739 979 l 613 1040 l 404 818 z m 0 639 l 299 -46 l 490 386 l 690 -46 l 990 639 l 826 639 l 676 257 l 490 688 l 313 260 l 163 639 z "},"ẅ":{"ha":989,"x_min":0,"x_max":0,"o":"m 546 863 b 640 771 546 811 588 771 b 735 863 693 771 735 811 b 640 954 735 914 693 954 b 546 863 588 954 546 914 z m 243 863 b 339 771 243 811 286 771 b 433 863 392 771 433 811 b 339 954 433 914 392 954 b 243 863 286 954 243 914 z m 0 639 l 299 -46 l 490 386 l 690 -46 l 990 639 l 826 639 l 676 257 l 490 688 l 313 260 l 163 639 z "},"ẇ":{"ha":989,"x_min":0,"x_max":0,"o":"m 396 863 b 490 771 396 811 438 771 b 585 863 543 771 585 811 b 490 954 585 914 543 954 b 396 863 438 954 396 914 z m 0 639 l 299 -46 l 490 386 l 690 -46 l 990 639 l 826 639 l 676 257 l 490 688 l 313 260 l 163 639 z "},"ẉ":{"ha":989,"x_min":0,"x_max":0,"o":"m 0 639 l 299 -46 l 490 386 l 690 -46 l 990 639 l 826 639 l 676 257 l 490 688 l 313 260 l 163 639 z m 400 -221 b 494 -312 400 -272 442 -312 b 589 -221 547 -312 589 -272 b 494 -129 589 -169 547 -129 b 400 -221 442 -129 400 -169 z "},"x":{"ha":644,"x_min":0,"x_max":0,"o":"m 464 639 l 325 439 l 186 639 l 14 639 l 244 329 l 0 0 l 172 0 l 325 219 l 478 0 l 646 0 l 403 329 l 632 639 z "},"y":{"ha":656,"x_min":0,"x_max":0,"o":"m 661 639 l 500 639 l 335 224 l 167 639 l -6 639 l 253 75 l 85 -306 l 244 -306 z "},"ý":{"ha":656,"x_min":0,"x_max":0,"o":"m 526 965 l 399 1028 l 190 806 l 276 757 z m 661 639 l 500 639 l 335 224 l 167 639 l -6 639 l 253 75 l 85 -306 l 244 -306 z "},"ÿ":{"ha":656,"x_min":0,"x_max":0,"o":"m 385 828 b 479 736 385 776 426 736 b 574 828 532 736 574 776 b 479 919 574 879 532 919 b 385 828 426 919 385 879 z m 82 828 b 178 736 82 776 125 736 b 272 828 231 736 272 776 b 178 919 272 879 231 919 b 82 828 125 919 82 879 z m 661 639 l 500 639 l 335 224 l 167 639 l -6 639 l 253 75 l 85 -306 l 244 -306 z "},"ŷ":{"ha":656,"x_min":0,"x_max":0,"o":"m 328 863 l 471 736 l 571 810 l 328 1004 l 85 810 l 186 736 z m 661 639 l 500 639 l 335 224 l 167 639 l -6 639 l 253 75 l 85 -306 l 244 -306 z "},"ỳ":{"ha":656,"x_min":0,"x_max":0,"o":"m 328 736 l 413 785 l 204 1007 l 78 944 z m 661 639 l 500 639 l 335 224 l 167 639 l -6 639 l 253 75 l 85 -306 l 244 -306 z "},"z":{"ha":672,"x_min":0,"x_max":0,"o":"m 392 500 l 21 0 l 618 0 l 618 139 l 288 139 l 653 639 l 69 639 l 69 500 z "},"ź":{"ha":672,"x_min":0,"x_max":0,"o":"m 590 965 l 464 1028 l 256 806 l 340 757 z m 392 500 l 21 0 l 618 0 l 618 139 l 288 139 l 653 639 l 69 639 l 69 500 z "},"ż":{"ha":672,"x_min":0,"x_max":0,"o":"m 267 860 b 361 768 267 808 308 768 b 456 860 414 768 456 808 b 361 950 456 911 414 950 b 267 860 308 950 267 911 z m 392 500 l 21 0 l 618 0 l 618 139 l 288 139 l 653 639 l 69 639 l 69 500 z "},"ž":{"ha":669,"x_min":0,"x_max":0,"o":"m 361 876 l 218 1003 l 118 931 l 361 736 l 604 931 l 504 1003 z m 393 500 l 21 0 l 618 0 l 618 139 l 288 139 l 653 639 l 69 639 l 69 500 z "},"ß":{"ha":806,"x_min":0,"x_max":0,"o":"m 492 -17 b 782 258 649 -17 782 106 b 561 558 782 458 561 464 b 700 875 561 661 700 693 b 414 1104 700 1031 578 1104 b 86 814 211 1104 86 990 l 86 -3 l 238 -3 l 236 796 b 400 968 236 917 303 968 b 543 853 478 968 543 938 b 399 550 543 717 399 669 b 625 249 399 403 625 396 b 490 114 625 174 568 114 b 350 176 440 114 390 139 l 292 63 b 492 -17 340 17 411 -17 z "},"æ":{"ha":1185,"x_min":0,"x_max":0,"o":"m 294 -14 b 556 129 429 -14 525 39 b 811 -14 606 31 686 -14 b 1131 160 954 -14 1061 44 l 1001 211 b 818 110 961 143 897 110 b 639 285 713 110 650 172 l 1135 285 b 1138 326 1136 292 1138 308 b 839 653 1138 524 1019 653 b 576 518 726 653 631 604 b 360 654 556 608 482 654 b 97 578 269 654 181 629 l 157 469 b 353 532 211 507 290 532 b 479 407 433 532 479 488 l 479 356 b 313 393 417 383 369 393 b 39 175 150 393 39 306 b 294 -14 39 58 136 -14 z m 815 539 b 975 389 908 539 968 483 l 642 389 b 815 539 660 483 724 539 z m 308 100 b 190 189 228 100 190 128 b 335 297 190 260 240 297 b 481 265 388 297 438 286 l 483 228 b 308 100 463 142 407 100 z "},"ð":{"ha":828,"x_min":0,"x_max":0,"o":"m 413 -17 b 758 328 614 -17 758 128 b 533 806 758 468 686 621 l 667 853 l 643 922 l 481 865 b 324 1026 435 917 382 969 l 221 938 b 353 819 269 897 313 858 l 217 771 l 240 701 l 408 761 b 538 593 460 706 501 650 b 360 643 479 626 419 643 b 69 328 190 643 69 513 b 413 -17 69 126 213 -17 z m 414 121 b 224 319 303 121 224 204 b 414 521 224 436 304 521 b 604 319 524 521 604 436 b 414 121 604 204 525 121 z "},"ø":{"ha":758,"x_min":0,"x_max":0,"o":"m 47 319 b 154 71 47 215 88 131 l 78 -31 l 147 -64 l 215 28 b 392 -14 267 1 326 -14 b 736 319 586 -14 736 119 b 622 574 736 428 693 515 l 689 664 l 619 697 l 558 615 b 392 653 510 640 453 653 b 47 319 197 653 47 519 z m 194 319 b 392 524 194 439 281 524 b 476 506 422 524 451 517 l 239 186 b 194 319 211 221 194 267 z m 589 319 b 392 115 589 197 503 115 b 297 138 357 115 325 124 l 538 460 b 589 319 569 425 589 376 z "},"þ":{"ha":817,"x_min":0,"x_max":0,"o":"m 242 -306 l 242 106 b 460 -14 290 29 367 -14 b 771 319 626 -14 771 110 b 460 653 771 529 626 653 b 242 533 367 653 290 610 l 242 1083 l 90 1083 l 90 -306 z m 615 319 b 424 117 615 192 528 117 b 242 319 338 117 242 189 b 424 522 242 450 338 522 b 615 319 528 522 615 447 z "},"đ":{"ha":817,"x_min":0,"x_max":0,"o":"m 47 319 b 358 -14 47 110 192 -14 b 576 106 451 -14 528 29 l 576 0 l 728 0 l 728 806 l 857 806 l 857 924 l 728 924 l 728 1083 l 576 1083 l 576 924 l 410 924 l 410 806 l 576 806 l 576 533 b 358 653 528 610 451 653 b 47 319 192 653 47 529 z m 203 319 b 394 522 203 447 290 522 b 576 319 481 522 576 450 b 394 117 576 189 481 117 b 203 319 290 117 203 192 z "},"ħ":{"ha":753,"x_min":0,"x_max":0,"o":"m 507 389 l 507 0 l 658 0 l 658 410 b 439 657 658 572 582 657 b 246 543 350 657 283 613 l 246 853 l 451 853 l 451 988 l 246 988 l 246 1083 l 96 1083 l 96 988 l 7 988 l 7 853 l 96 853 l 96 0 l 246 0 l 246 389 b 389 532 246 474 304 532 b 507 389 471 532 507 482 z "},"ı":{"ha":369,"x_min":0,"x_max":0,"o":"m 111 639 l 111 0 l 258 0 l 258 639 z "},"ĳ":{"ha":728,"x_min":0,"x_max":0,"o":"m 449 893 b 543 801 449 842 490 801 b 638 893 596 801 638 842 b 543 985 638 944 596 985 b 449 893 490 985 449 944 z m 90 893 b 185 801 90 842 132 801 b 279 893 238 801 279 842 b 185 985 279 944 238 985 b 90 893 132 985 90 944 z m 335 -137 l 265 -254 b 410 -317 289 -282 336 -317 b 617 -90 543 -317 617 -239 l 617 639 l 469 639 l 469 -61 b 403 -174 469 -142 444 -174 b 335 -137 379 -174 354 -167 z m 111 639 l 111 0 l 258 0 l 258 639 z "},"ĸ":{"ha":686,"x_min":0,"x_max":0,"o":"m 90 639 l 90 0 l 238 0 l 238 325 l 501 0 l 683 0 l 381 375 l 656 639 l 472 639 l 238 414 l 238 639 z "},"ŀ":{"ha":572,"x_min":0,"x_max":0,"o":"m 96 1083 l 96 0 l 246 0 l 246 1083 z m 319 574 b 418 475 319 521 363 475 b 515 574 474 475 515 521 b 418 669 515 626 474 669 b 319 574 363 669 319 626 z "},"ł":{"ha":342,"x_min":0,"x_max":0,"o":"m 0 456 l 96 515 l 96 0 l 246 0 l 246 610 l 393 701 l 354 788 l 246 719 l 246 1083 l 96 1083 l 96 625 l -37 542 z "},"ŉ":{"ha":943,"x_min":0,"x_max":0,"o":"m 169 972 l 90 639 l 196 639 l 338 972 z m 435 639 l 283 639 l 283 0 l 435 0 l 435 389 b 575 532 435 474 490 532 b 694 389 657 532 694 482 l 694 0 l 849 0 l 849 406 b 626 653 849 568 769 653 b 435 551 543 653 476 614 z "},"ŋ":{"ha":757,"x_min":0,"x_max":0,"o":"m 447 -317 b 661 -90 586 -317 661 -236 l 661 406 b 439 653 661 565 583 653 b 246 542 356 653 288 614 l 246 639 l 96 639 l 96 0 l 246 0 l 246 388 b 389 532 246 475 306 532 b 507 389 468 532 507 485 l 507 -61 b 440 -174 507 -137 485 -174 b 374 -137 413 -174 390 -162 l 303 -254 b 447 -317 339 -294 390 -317 z "},"œ":{"ha":1250,"x_min":0,"x_max":0,"o":"m 49 319 b 365 -14 49 113 192 -14 b 625 172 493 -14 585 54 b 897 -14 671 60 772 -14 b 1196 160 1035 -14 1135 60 l 1067 211 b 883 107 1026 149 969 107 b 704 285 782 107 715 171 l 1200 285 b 1201 325 1201 296 1201 314 b 914 653 1201 526 1067 653 b 625 465 778 653 672 579 b 365 653 585 585 493 653 b 49 319 192 653 49 526 z m 883 539 b 1039 388 978 539 1028 478 l 707 388 b 883 539 719 483 794 539 z m 200 319 b 390 521 200 450 286 521 b 558 319 481 521 558 450 b 390 118 558 189 481 118 b 200 319 286 118 200 189 z "},"ŧ":{"ha":376,"x_min":0,"x_max":0,"o":"m 29 244 l 114 244 l 114 0 l 263 0 l 263 244 l 346 244 l 346 379 l 263 379 l 263 507 l 369 507 l 369 639 l 263 639 l 263 861 l 114 861 l 114 639 l 7 639 l 7 507 l 114 507 l 114 379 l 29 379 z "},"ƒ":{"ha":833,"x_min":0,"x_max":0,"o":"m 278 -278 b 479 -50 392 -281 471 -192 l 510 507 l 625 507 l 633 639 l 517 639 l 531 844 b 600 960 536 917 560 960 b 661 924 617 960 633 951 l 729 1035 b 585 1099 674 1081 633 1097 b 382 871 469 1101 390 1013 l 369 639 l 283 639 l 272 507 l 363 507 l 332 -25 b 261 -139 326 -97 301 -139 b 200 -103 244 -139 228 -131 l 132 -214 b 278 -278 188 -260 229 -276 z "},"ȷ":{"ha":358,"x_min":0,"x_max":0,"o":"m -32 -137 l -103 -254 b 40 -317 -79 -282 -33 -317 b 249 -90 174 -317 249 -239 l 249 639 l 100 639 l 100 -61 b 33 -174 100 -142 75 -174 b -32 -137 10 -174 -12 -167 z "},"μ":{"ha":754,"x_min":0,"x_max":0,"o":"m 250 639 l 96 639 l 96 -444 l 243 -444 l 243 15 b 344 -11 275 -4 307 -11 b 511 81 414 -11 474 25 l 511 0 l 661 0 l 661 639 l 511 639 l 511 264 b 368 121 511 179 453 121 b 250 264 286 121 250 171 z "},"π":{"ha":783,"x_min":0,"x_max":0,"o":"m 42 639 l 42 507 l 125 507 l 125 0 l 271 0 l 271 507 l 472 507 l 472 168 b 692 -12 472 10 550 -12 l 692 119 b 618 217 650 119 618 125 l 618 507 l 729 507 l 729 639 z "},"а":{"ha":706,"x_min":0,"x_max":0,"o":"m 157 469 b 353 532 188 490 261 532 b 479 439 422 532 479 499 l 479 350 b 313 393 440 372 383 393 b 39 183 144 393 39 315 b 263 -14 39 54 136 -14 b 479 92 358 -14 442 24 l 479 0 l 626 0 l 626 456 b 360 654 626 582 517 654 b 97 578 244 654 156 613 z m 190 189 b 335 297 190 256 239 297 b 479 265 392 297 436 286 l 479 253 b 308 100 479 140 406 100 b 190 189 243 100 190 129 z "},"б":{"ha":792,"x_min":0,"x_max":0,"o":"m 49 403 b 400 -14 49 126 199 -14 b 744 319 601 -14 744 126 b 407 653 744 513 601 653 b 182 515 307 653 228 603 b 399 810 192 639 244 756 b 678 1083 550 863 664 960 l 531 1083 b 331 914 517 1017 457 960 b 49 403 110 832 49 663 z m 208 319 b 400 521 208 450 311 521 b 590 319 508 521 590 439 b 400 118 590 200 508 118 b 208 319 292 118 208 200 z "},"в":{"ha":668,"x_min":0,"x_max":0,"o":"m 104 639 l 104 0 l 422 0 b 628 174 568 0 628 78 b 494 324 628 264 574 307 b 600 465 557 347 600 394 b 381 639 600 589 499 639 z m 363 528 b 454 454 418 528 454 497 b 363 378 454 411 418 378 l 251 378 l 251 528 z m 376 268 b 482 190 449 268 482 233 b 376 111 482 147 449 111 l 251 111 l 251 268 z "},"г":{"ha":474,"x_min":0,"x_max":0,"o":"m 100 639 l 100 0 l 250 0 l 250 507 l 468 507 l 468 639 z "},"ѓ":{"ha":474,"x_min":0,"x_max":0,"o":"m 535 944 l 408 1007 l 200 785 l 285 736 z m 100 639 l 100 0 l 250 0 l 250 507 l 468 507 l 468 639 z "},"д":{"ha":938,"x_min":0,"x_max":0,"o":"m 729 0 l 729 -125 l 875 -125 l 875 129 l 757 129 l 465 688 l 174 129 l 56 129 l 56 -125 l 208 -125 l 208 0 z m 465 422 l 599 129 l 332 129 z "},"е":{"ha":749,"x_min":0,"x_max":0,"o":"m 694 160 l 564 211 b 381 110 526 149 467 110 b 201 285 282 110 213 168 l 699 285 b 700 326 700 300 700 315 b 381 653 700 528 578 653 b 53 388 199 653 79 544 b 47 319 49 365 47 343 b 374 -14 47 126 175 -14 b 694 160 546 -14 631 56 z m 379 539 b 538 389 476 539 526 479 l 204 389 b 379 539 218 483 289 539 z "},"ѐ":{"ha":749,"x_min":0,"x_max":0,"o":"m 163 944 l 413 736 l 497 785 l 289 1007 z m 694 160 l 564 211 b 381 110 526 149 467 110 b 201 285 282 110 213 168 l 699 285 b 700 326 700 300 700 315 b 381 653 700 528 578 653 b 53 388 199 653 79 544 b 47 319 49 365 47 343 b 374 -14 47 126 175 -14 b 694 160 546 -14 631 56 z m 379 539 b 538 389 476 539 526 479 l 204 389 b 379 539 218 483 289 539 z "},"ё":{"ha":749,"x_min":0,"x_max":0,"o":"m 438 828 b 532 736 438 776 479 736 b 626 828 585 736 626 776 b 532 919 626 879 585 919 b 438 828 479 919 438 879 z m 135 828 b 229 736 135 776 176 736 b 325 828 282 736 325 776 b 229 919 325 879 282 919 b 135 828 176 919 135 879 z m 694 160 l 564 211 b 381 110 526 149 467 110 b 201 285 282 110 213 168 l 699 285 b 700 326 700 300 700 315 b 381 653 700 528 578 653 b 53 388 199 653 79 544 b 47 319 49 365 47 343 b 374 -14 47 126 175 -14 b 694 160 546 -14 631 56 z m 379 539 b 538 389 476 539 526 479 l 204 389 b 379 539 218 483 289 539 z "},"ж":{"ha":1051,"x_min":0,"x_max":0,"o":"m 208 639 l 28 639 l 313 364 l 0 0 l 181 0 l 456 338 l 456 0 l 597 0 l 597 336 l 871 0 l 1051 0 l 740 364 l 1024 639 l 843 639 l 597 406 l 597 639 l 456 639 l 456 404 z "},"з":{"ha":690,"x_min":0,"x_max":0,"o":"m 360 -14 b 628 188 510 -14 628 64 b 500 343 628 265 581 317 b 600 476 565 369 600 418 b 363 653 600 575 499 653 b 114 442 217 653 114 561 l 258 442 b 364 532 258 485 293 532 b 456 461 421 532 456 506 b 350 386 456 419 424 386 l 350 288 b 483 194 436 288 483 253 b 360 104 483 139 436 104 b 231 208 279 104 243 150 l 83 208 b 360 -14 97 78 196 -14 z "},"и":{"ha":782,"x_min":0,"x_max":0,"o":"m 249 639 l 100 639 l 100 -49 l 535 367 l 535 0 l 682 0 l 682 688 l 249 274 z "},"й":{"ha":782,"x_min":0,"x_max":0,"o":"m 175 965 b 397 768 175 863 251 768 b 621 965 543 768 621 863 l 506 965 b 397 869 506 924 478 869 b 289 965 317 869 289 924 z m 249 639 l 100 639 l 100 -49 l 535 367 l 535 0 l 682 0 l 682 688 l 249 274 z "},"ѝ":{"ha":782,"x_min":0,"x_max":0,"o":"m 168 979 l 418 771 l 503 819 l 294 1042 z m 249 639 l 100 639 l 100 -49 l 535 367 l 535 0 l 682 0 l 682 688 l 249 274 z "},"к":{"ha":686,"x_min":0,"x_max":0,"o":"m 90 639 l 90 0 l 238 0 l 238 325 l 501 0 l 683 0 l 381 375 l 656 639 l 472 639 l 238 414 l 238 639 z "},"ќ":{"ha":611,"x_min":0,"x_max":0,"o":"m 624 944 l 497 1007 l 289 785 l 374 736 z m 90 639 l 90 0 l 238 0 l 238 325 l 501 0 l 683 0 l 381 375 l 656 639 l 472 639 l 238 414 l 238 639 z "},"л":{"ha":811,"x_min":0,"x_max":0,"o":"m 700 639 l 115 639 l 115 243 b 14 136 115 158 69 136 l 14 0 b 263 222 193 0 263 71 l 263 500 l 553 500 l 553 0 l 700 0 z "},"м":{"ha":871,"x_min":0,"x_max":0,"o":"m 7 0 l 167 0 l 233 326 l 433 -43 l 638 328 l 704 0 l 864 0 l 686 688 l 433 210 l 185 688 z "},"н":{"ha":813,"x_min":0,"x_max":0,"o":"m 96 639 l 96 0 l 243 0 l 243 274 l 569 274 l 569 0 l 717 0 l 717 639 l 569 639 l 569 400 l 243 400 l 243 639 z "},"о":{"ha":782,"x_min":0,"x_max":0,"o":"m 47 319 b 392 -14 47 124 196 -14 b 736 319 588 -14 736 124 b 392 653 736 515 588 653 b 47 319 196 653 47 515 z m 201 319 b 392 521 201 439 283 521 b 582 319 500 521 582 439 b 392 118 582 200 500 118 b 201 319 283 118 201 200 z "},"п":{"ha":757,"x_min":0,"x_max":0,"o":"m 661 639 l 96 639 l 96 0 l 243 0 l 243 504 l 514 504 l 514 0 l 661 0 z "},"р":{"ha":817,"x_min":0,"x_max":0,"o":"m 242 -306 l 242 107 b 460 -17 288 28 364 -17 b 771 319 626 -17 771 106 b 460 656 771 533 626 656 b 242 532 364 656 288 611 l 242 639 l 90 639 l 90 -306 z m 615 319 b 424 119 615 192 528 119 b 242 319 338 119 242 189 b 424 519 242 450 338 519 b 615 319 528 519 615 447 z "},"с":{"ha":672,"x_min":0,"x_max":0,"o":"m 196 319 b 394 524 196 438 282 524 b 603 415 483 524 571 478 l 603 582 b 388 653 558 625 478 653 b 42 319 189 653 42 515 b 388 -14 42 124 189 -14 b 603 58 478 -14 558 13 l 603 224 b 394 115 571 161 486 115 b 196 319 282 115 196 199 z "},"т":{"ha":418,"x_min":0,"x_max":0,"o":"m 7 639 l 7 507 l 136 507 l 136 0 l 283 0 l 283 507 l 411 507 l 411 639 z "},"у":{"ha":656,"x_min":0,"x_max":0,"o":"m 661 639 l 500 639 l 335 224 l 167 639 l -6 639 l 253 75 l 85 -306 l 244 -306 z "},"ў":{"ha":611,"x_min":0,"x_max":0,"o":"m 106 935 b 328 736 106 832 182 736 b 551 935 474 736 551 832 l 438 935 b 328 839 438 893 408 839 b 219 935 247 839 219 893 z m 661 639 l 500 639 l 335 224 l 167 639 l -6 639 l 253 75 l 85 -306 l 244 -306 z "},"ф":{"ha":858,"x_min":0,"x_max":0,"o":"m 47 319 b 357 -10 47 144 165 17 l 357 -139 l 503 -139 l 503 -10 b 813 319 694 17 813 144 b 503 649 813 494 694 622 l 503 778 l 357 778 l 357 649 b 47 319 165 622 47 494 z m 190 319 b 357 514 190 419 249 492 l 357 125 b 190 319 249 147 190 219 z m 668 319 b 503 125 668 221 611 147 l 503 514 b 668 319 611 492 668 418 z "},"х":{"ha":644,"x_min":0,"x_max":0,"o":"m 464 639 l 325 439 l 186 639 l 14 639 l 244 329 l 0 0 l 172 0 l 325 219 l 478 0 l 646 0 l 403 329 l 632 639 z "},"ц":{"ha":815,"x_min":0,"x_max":0,"o":"m 665 132 l 665 639 l 514 639 l 514 132 l 246 132 l 246 639 l 96 639 l 96 0 l 639 0 l 639 -132 l 776 -132 l 776 132 z "},"ч":{"ha":707,"x_min":0,"x_max":0,"o":"m 221 639 l 69 639 l 69 456 b 319 181 69 268 126 181 l 458 181 l 458 0 l 610 0 l 610 639 l 458 639 l 458 313 l 344 313 b 221 449 253 313 221 351 z "},"ш":{"ha":1114,"x_min":0,"x_max":0,"o":"m 631 132 l 631 639 l 483 639 l 483 132 l 243 132 l 243 639 l 96 639 l 96 0 l 1019 0 l 1019 639 l 872 639 l 872 132 z "},"щ":{"ha":1169,"x_min":0,"x_max":0,"o":"m 631 132 l 631 639 l 483 639 l 483 132 l 243 132 l 243 639 l 96 639 l 96 0 l 993 0 l 993 -132 l 1131 -132 l 1131 132 l 1019 132 l 1019 639 l 871 639 l 871 132 z "},"ъ":{"ha":821,"x_min":0,"x_max":0,"o":"m 222 507 l 222 0 l 521 0 b 754 210 653 0 754 72 b 521 408 754 347 653 408 l 367 408 l 367 639 l 7 639 l 7 507 z m 506 294 b 608 210 572 294 608 263 b 506 124 608 157 572 124 l 367 124 l 367 294 z "},"ы":{"ha":961,"x_min":0,"x_max":0,"o":"m 715 639 l 715 0 l 867 0 l 867 639 z m 96 639 l 96 0 l 399 0 b 632 210 531 0 632 72 b 399 408 632 347 531 408 l 246 408 l 246 639 z m 385 294 b 488 210 451 294 488 263 b 385 124 488 157 451 124 l 246 124 l 246 294 z "},"ь":{"ha":704,"x_min":0,"x_max":0,"o":"m 99 639 l 99 0 l 403 0 b 636 210 535 0 636 72 b 403 408 636 347 535 408 l 250 408 l 250 639 z m 388 294 b 490 210 454 294 490 263 b 388 124 490 157 454 124 l 250 124 l 250 294 z "},"э":{"ha":672,"x_min":0,"x_max":0,"o":"m 176 378 l 176 261 l 471 261 b 278 106 449 164 372 106 b 69 213 186 106 101 150 l 69 58 b 285 -14 114 13 194 -14 b 631 319 483 -14 631 124 b 285 653 631 515 483 653 b 69 582 194 653 114 625 l 69 426 b 278 533 101 489 189 533 b 469 378 372 533 447 472 z "},"ю":{"ha":1078,"x_min":0,"x_max":0,"o":"m 96 639 l 96 0 l 243 0 l 243 274 l 344 274 b 686 -14 365 103 506 -14 b 1031 319 882 -14 1031 124 b 686 653 1031 515 882 653 b 350 400 518 653 385 551 l 243 400 l 243 639 z m 496 319 b 686 521 496 439 578 521 b 876 319 794 521 876 439 b 686 118 876 200 794 118 b 496 319 578 118 496 200 z "},"я":{"ha":704,"x_min":0,"x_max":0,"o":"m 226 0 l 390 244 l 490 244 l 490 0 l 642 0 l 642 639 l 349 639 b 104 444 217 639 104 585 b 244 258 104 343 163 283 l 67 0 z m 360 360 b 254 436 290 360 254 383 b 360 514 254 489 290 514 l 490 514 l 490 360 z "},"ˆ":{"ha":667,"x_min":0,"x_max":0,"o":"m 333 888 l 475 761 l 576 833 l 333 1028 l 90 833 l 192 761 z "},"ˇ":{"ha":667,"x_min":0,"x_max":0,"o":"m 333 921 l 192 1049 l 90 975 l 333 781 l 576 975 l 475 1049 z "},"ª":{"ha":347,"x_min":0,"x_max":0,"o":"m 86 886 b 185 917 101 897 139 917 b 247 868 219 917 247 899 l 247 824 b 164 846 228 835 200 846 b 26 736 92 846 26 801 b 139 632 26 669 78 632 b 247 685 188 632 228 651 l 247 639 l 321 639 l 321 879 b 189 979 321 943 267 979 b 56 942 131 979 85 958 z m 103 738 b 175 799 103 771 132 799 b 247 782 204 799 226 793 l 247 765 b 163 690 247 708 206 690 b 103 738 119 690 103 710 z "},"º":{"ha":386,"x_min":0,"x_max":0,"o":"m 28 806 b 199 639 28 707 100 639 b 372 806 297 639 372 707 b 199 972 372 904 297 972 b 28 806 100 972 28 904 z m 103 806 b 199 906 103 865 144 906 b 294 806 253 906 294 865 b 199 706 294 746 253 706 b 103 806 144 706 103 746 z "},"̀":{"ha":0,"x_min":0,"x_max":0,"o":"m 250 751 l 335 800 l 126 1022 l 0 960 z "},"́":{"ha":0,"x_min":0,"x_max":0,"o":"m 106 754 l 356 963 l 229 1024 l 21 801 z "},"̂":{"ha":0,"x_min":0,"x_max":0,"o":"m 71 761 l 221 889 l 371 761 l 442 849 l 221 1025 l 0 849 z "},"̃":{"ha":0,"x_min":0,"x_max":0,"o":"m 85 810 b 156 881 85 835 103 881 b 326 811 218 881 249 811 b 493 921 399 811 471 869 l 415 997 b 329 928 386 953 361 928 b 157 996 256 928 249 996 b 0 875 86 996 14 943 z "},"̄":{"ha":0,"x_min":0,"x_max":0,"o":"m 0 814 l 499 814 l 499 938 l 0 938 z "},"̆":{"ha":0,"x_min":0,"x_max":0,"o":"m 222 753 b 446 951 353 753 446 835 l 322 951 b 222 856 322 896 279 856 b 124 951 165 856 124 896 l 0 951 b 222 753 0 835 92 753 z "},"̇":{"ha":0,"x_min":0,"x_max":0,"o":"m 94 771 b 189 863 147 771 189 813 b 94 953 189 913 147 953 b 0 863 42 953 0 913 b 94 771 0 813 42 771 z "},"̈":{"ha":0,"x_min":0,"x_max":0,"o":"m 94 810 b 189 901 151 810 189 847 b 94 993 189 956 151 993 b 0 901 38 993 0 956 b 94 810 0 847 38 810 z m 397 810 b 492 901 454 810 492 847 b 397 993 492 956 454 993 b 303 901 340 993 303 956 b 397 810 303 847 340 810 z "},"̊":{"ha":0,"x_min":0,"x_max":0,"o":"m 164 722 b 331 881 257 722 331 792 b 164 1039 331 969 257 1039 b 0 881 71 1039 0 969 b 164 722 0 792 71 722 z m 164 804 b 92 881 122 804 92 838 b 164 956 92 924 122 956 b 239 881 206 956 239 924 b 164 804 239 839 206 804 z "},"̋":{"ha":0,"x_min":0,"x_max":0,"o":"m 94 717 l 286 978 l 150 1011 l 0 744 z m 335 717 l 529 978 l 390 1011 l 242 744 z "},"̌":{"ha":0,"x_min":0,"x_max":0,"o":"m 221 761 l 442 939 l 371 1025 l 221 899 l 71 1025 l 0 939 z "},"̒":{"ha":0,"x_min":0,"x_max":0,"o":"m 151 693 l 274 1053 l 161 1083 l 0 736 z "},"̦":{"ha":0,"x_min":0,"x_max":0,"o":"m 79 -297 l 242 -75 l 133 -25 l 0 -262 z "},"̧":{"ha":0,"x_min":0,"x_max":0,"o":"m 144 -303 b 297 -167 233 -303 297 -244 b 196 -56 297 -108 256 -56 b 179 -56 190 -56 185 -56 l 257 88 l 158 89 l 54 -124 b 132 -119 76 -121 110 -119 b 199 -165 178 -119 199 -135 b 135 -218 199 -199 176 -218 b 35 -192 99 -218 71 -211 l 0 -264 b 144 -303 42 -292 89 -303 z "},"̨":{"ha":0,"x_min":0,"x_max":0,"o":"m 168 -306 b 296 -250 235 -306 275 -278 l 250 -169 b 181 -197 231 -187 214 -197 b 122 -136 142 -197 122 -181 b 243 0 122 -87 171 -33 l 186 35 b 0 -167 89 -15 0 -82 b 168 -306 0 -251 63 -306 z "},"０":{"ha":833,"x_min":0,"x_max":0,"o":"m 38 486 b 417 -15 38 185 192 -15 b 794 486 644 -15 794 185 b 417 988 794 788 644 988 b 38 486 192 988 38 788 z m 199 486 b 417 840 199 696 283 840 b 633 486 550 840 633 696 b 417 132 633 276 550 132 b 199 486 283 132 199 276 z "},"１":{"ha":833,"x_min":0,"x_max":0,"o":"m 157 744 l 382 807 l 382 0 l 543 0 l 543 988 l 157 900 z "},"２":{"ha":833,"x_min":0,"x_max":0,"o":"m 29 0 l 771 0 l 771 153 l 347 153 l 625 424 b 758 688 704 499 758 586 b 433 989 758 826 658 989 b 81 628 211 989 81 835 l 243 628 b 431 842 243 758 319 842 b 589 689 538 842 589 765 b 478 474 589 611 547 547 z "},"３":{"ha":833,"x_min":0,"x_max":0,"o":"m 425 -17 b 760 260 625 -17 760 93 b 564 510 760 392 682 472 b 732 725 667 550 732 626 b 433 988 732 868 621 988 b 132 714 254 988 132 874 l 286 714 b 433 849 286 792 350 849 b 565 717 521 849 565 794 b 376 564 565 633 494 564 l 376 440 b 593 278 508 440 593 382 b 429 125 593 181 528 125 b 254 278 331 125 254 185 l 90 278 b 425 -17 90 118 218 -17 z "},"４":{"ha":833,"x_min":0,"x_max":0,"o":"m 799 186 l 799 328 l 653 328 l 653 972 l 553 972 l 22 186 l 483 186 l 483 0 l 653 0 l 653 186 z m 494 679 l 494 315 l 253 315 z "},"５":{"ha":833,"x_min":0,"x_max":0,"o":"m 772 317 b 479 640 772 513 640 640 b 322 604 424 640 371 629 l 386 828 l 761 828 l 761 972 l 261 972 l 131 438 b 390 514 229 499 304 514 b 596 326 503 514 596 444 b 390 138 596 208 521 138 b 144 275 297 138 201 199 l 47 157 b 410 -15 122 63 231 -15 b 772 317 597 -15 772 93 z "},"６":{"ha":833,"x_min":0,"x_max":0,"o":"m 450 971 l 142 557 b 60 328 93 494 60 418 b 417 -17 60 113 217 -17 b 772 328 617 -17 772 113 b 481 643 772 514 633 643 b 379 625 440 643 408 639 l 658 971 z m 221 328 b 417 532 221 447 304 532 b 613 328 529 532 613 447 b 417 126 613 208 529 126 b 221 328 304 126 221 208 z "},"７":{"ha":833,"x_min":0,"x_max":0,"o":"m 69 818 l 550 818 l 153 0 l 328 0 l 796 972 l 69 972 z "},"８":{"ha":833,"x_min":0,"x_max":0,"o":"m 97 264 b 424 -17 97 101 243 -17 b 750 264 604 -17 750 101 b 574 517 750 393 672 476 b 715 738 658 556 715 631 b 424 989 715 886 588 989 b 132 738 260 989 132 886 b 274 517 132 631 189 556 b 97 264 175 476 97 393 z m 288 721 b 424 860 288 801 344 860 b 560 721 503 860 560 801 b 424 583 560 640 499 583 b 288 721 349 583 288 640 z m 257 286 b 424 450 257 378 338 450 b 590 286 510 450 590 378 b 424 121 590 181 510 121 b 257 286 338 121 257 181 z "},"９":{"ha":833,"x_min":0,"x_max":0,"o":"m 382 1 l 692 415 b 772 644 740 478 772 554 b 417 989 772 860 617 989 b 60 644 217 989 60 860 b 353 329 60 458 200 329 b 451 346 392 329 424 333 l 174 1 z m 613 644 b 417 440 613 525 529 440 b 221 644 304 440 221 525 b 417 846 221 764 304 846 b 613 644 529 846 613 764 z "},"²":{"ha":514,"x_min":0,"x_max":0,"o":"m 35 392 l 479 392 l 479 483 l 226 483 l 392 644 b 472 804 439 690 472 743 b 278 986 472 888 413 986 b 65 769 144 986 65 893 l 164 769 b 276 897 164 847 210 897 b 371 806 340 897 371 851 b 304 676 371 758 346 721 z "},"³":{"ha":463,"x_min":0,"x_max":0,"o":"m 232 378 b 433 546 351 378 433 446 b 317 694 433 625 388 672 b 417 824 378 719 417 765 b 238 982 417 908 350 982 b 56 817 131 982 56 913 l 149 817 b 238 899 149 864 188 899 b 317 819 290 899 317 867 b 203 728 317 769 274 728 l 203 654 b 333 556 282 654 333 618 b 235 464 333 497 294 464 b 129 556 175 464 129 499 l 31 556 b 232 378 31 460 108 378 z "},"¹":{"ha":658,"x_min":0,"x_max":0,"o":"m 200 826 l 336 865 l 336 381 l 433 381 l 433 974 l 200 921 z "},"¼":{"ha":1085,"x_min":0,"x_max":0,"o":"m 39 826 l 174 865 l 174 381 l 271 381 l 271 974 l 39 921 z m 865 972 l 143 0 l 251 0 l 974 972 z m 1039 111 l 1039 197 l 947 197 l 947 583 l 888 583 l 558 111 l 846 111 l 846 0 l 947 0 l 947 111 z m 851 407 l 851 190 l 703 190 z "},"½":{"ha":1179,"x_min":0,"x_max":0,"o":"m 39 826 l 174 865 l 174 381 l 271 381 l 271 974 l 39 921 z m 865 972 l 143 0 l 251 0 l 974 972 z m 692 3 l 1136 3 l 1136 94 l 883 94 l 1049 256 b 1129 415 1096 301 1129 354 b 935 597 1129 499 1069 597 b 724 381 801 597 724 504 l 821 381 b 933 508 821 458 867 508 b 1028 417 997 508 1028 463 b 961 288 1028 369 1003 332 z "},"¾":{"ha":1171,"x_min":0,"x_max":0,"o":"m 242 378 b 442 546 361 378 442 446 b 325 694 442 625 396 672 b 425 824 386 719 425 765 b 246 982 425 908 358 982 b 64 817 139 982 64 913 l 157 817 b 246 899 157 864 196 899 b 326 819 299 899 326 867 b 211 728 326 769 282 728 l 211 654 b 343 556 290 654 343 618 b 243 464 343 497 303 464 b 139 556 183 464 139 499 l 39 556 b 242 378 39 460 118 378 z m 957 972 l 235 0 l 342 0 l 1064 972 z m 1126 111 l 1126 197 l 1035 197 l 1035 583 l 975 583 l 646 111 l 933 111 l 933 0 l 1035 0 l 1035 111 z m 940 407 l 940 190 l 790 190 z "},"⁰":{"ha":526,"x_min":0,"x_max":0,"o":"m 36 681 b 264 379 36 501 131 379 b 490 681 400 379 490 501 b 264 982 490 860 400 982 b 36 681 131 982 36 860 z m 133 681 b 264 893 133 806 185 893 b 393 681 343 893 393 806 b 264 468 393 556 343 468 b 133 681 185 468 133 556 z "},"⁴":{"ha":558,"x_min":0,"x_max":0,"o":"m 514 500 l 514 586 l 422 586 l 422 972 l 364 972 l 33 500 l 322 500 l 322 389 l 422 389 l 422 500 z m 328 796 l 328 579 l 179 579 z "},"⁵":{"ha":511,"x_min":0,"x_max":0,"o":"m 472 575 b 297 771 472 693 394 771 b 204 749 264 771 233 764 l 240 883 l 467 883 l 467 969 l 167 969 l 89 647 b 243 694 149 683 192 694 b 367 582 311 694 367 653 b 243 468 367 511 321 468 b 96 553 188 468 131 507 l 39 481 b 256 376 83 425 149 376 b 472 575 368 376 472 440 z "},"⁶":{"ha":500,"x_min":0,"x_max":0,"o":"m 276 968 l 92 721 b 42 583 64 683 42 636 b 257 375 42 454 138 375 b 471 583 376 375 471 454 b 294 772 471 694 386 772 b 235 763 271 772 251 771 l 403 968 z m 139 583 b 257 706 139 656 190 706 b 374 583 324 706 374 656 b 257 463 374 511 324 463 b 139 583 190 463 139 511 z "},"⁷":{"ha":506,"x_min":0,"x_max":0,"o":"m 38 879 l 328 879 l 89 389 l 193 389 l 474 972 l 38 972 z "},"⁸":{"ha":469,"x_min":0,"x_max":0,"o":"m 38 547 b 235 378 38 451 126 378 b 431 547 343 378 431 451 b 325 699 431 624 385 675 b 410 832 375 724 410 768 b 235 983 410 919 332 983 b 58 832 138 983 58 919 b 144 699 58 768 93 724 b 38 547 85 675 38 624 z m 153 821 b 235 904 153 871 186 904 b 315 821 283 904 315 871 b 235 739 315 771 279 739 b 153 821 190 739 153 771 z m 135 561 b 235 658 135 617 182 658 b 333 561 288 658 333 617 b 235 463 333 497 288 463 b 135 561 182 463 135 497 z "},"⁹":{"ha":499,"x_min":0,"x_max":0,"o":"m 242 393 l 426 640 b 476 778 454 678 476 725 b 263 986 476 907 382 986 b 47 778 143 986 47 907 b 224 589 47 667 132 589 b 283 599 247 589 267 590 l 115 393 z m 379 778 b 263 656 379 706 329 656 b 144 778 196 656 144 706 b 263 899 144 850 196 899 b 379 778 329 899 379 850 z "},"₀":{"ha":526,"x_min":0,"x_max":0,"o":"m 36 292 b 264 -10 36 113 131 -10 b 490 292 400 -10 490 113 b 264 593 490 471 400 593 b 36 292 131 593 36 471 z m 133 292 b 264 504 133 417 185 504 b 393 292 343 504 393 417 b 264 79 393 167 343 79 b 133 292 185 79 133 167 z "},"₁":{"ha":461,"x_min":0,"x_max":0,"o":"m 125 447 l 260 486 l 260 1 l 357 1 l 357 594 l 125 542 z "},"₂":{"ha":517,"x_min":0,"x_max":0,"o":"m 36 3 l 481 3 l 481 94 l 228 94 l 393 256 b 474 415 440 301 474 354 b 279 597 474 499 414 597 b 68 381 146 597 68 504 l 165 381 b 278 508 165 458 211 508 b 372 417 342 508 372 463 b 306 288 372 369 347 332 z "},"₃":{"ha":467,"x_min":0,"x_max":0,"o":"m 235 -11 b 436 157 354 -11 436 57 b 319 306 436 236 390 283 b 419 435 381 331 419 376 b 240 593 419 519 353 593 b 58 428 133 593 58 524 l 151 428 b 239 510 151 475 189 510 b 319 431 292 510 319 478 b 206 339 319 381 276 339 l 206 265 b 336 167 285 265 336 229 b 238 75 336 108 297 75 b 132 167 178 75 132 110 l 33 167 b 235 -11 33 71 111 -11 z "},"₄":{"ha":561,"x_min":0,"x_max":0,"o":"m 514 111 l 514 197 l 422 197 l 422 583 l 363 583 l 33 111 l 321 111 l 321 0 l 422 0 l 422 111 z m 328 407 l 328 190 l 178 190 z "},"₅":{"ha":517,"x_min":0,"x_max":0,"o":"m 474 186 b 299 382 474 304 396 382 b 206 360 265 382 235 375 l 242 494 l 468 494 l 468 581 l 168 581 l 90 258 b 244 306 150 294 193 306 b 368 193 313 306 368 264 b 244 79 368 122 322 79 b 97 164 189 79 132 118 l 40 92 b 257 -12 85 36 150 -12 b 474 186 369 -12 474 51 z "},"₆":{"ha":507,"x_min":0,"x_max":0,"o":"m 278 579 l 93 332 b 43 194 65 294 43 247 b 258 -14 43 65 139 -14 b 472 194 378 -14 472 65 b 296 383 472 306 388 383 b 236 374 272 383 253 382 l 403 579 z m 140 194 b 258 317 140 267 192 317 b 375 194 325 317 375 267 b 258 74 375 122 325 74 b 140 194 192 74 140 122 z "},"₇":{"ha":508,"x_min":0,"x_max":0,"o":"m 40 490 l 329 490 l 90 0 l 196 0 l 475 583 l 40 583 z "},"₈":{"ha":472,"x_min":0,"x_max":0,"o":"m 40 158 b 236 -11 40 63 128 -11 b 433 158 344 -11 433 63 b 326 310 433 235 386 286 b 413 443 378 335 413 379 b 236 594 413 531 333 594 b 61 443 139 594 61 531 b 146 310 61 379 96 335 b 40 158 86 286 40 235 z m 156 432 b 236 515 156 482 188 515 b 318 432 285 515 318 482 b 236 350 318 382 281 350 b 156 432 192 350 156 382 z m 138 172 b 236 269 138 228 183 269 b 336 172 289 269 336 228 b 236 74 336 108 289 74 b 138 172 183 74 138 108 z "},"₉":{"ha":508,"x_min":0,"x_max":0,"o":"m 229 4 l 414 251 b 463 389 442 289 463 336 b 249 597 463 518 368 597 b 35 389 129 597 35 518 b 210 200 35 278 118 200 b 271 210 233 200 254 201 l 103 4 z m 367 389 b 249 267 367 317 315 267 b 131 389 182 267 131 317 b 249 510 131 461 182 510 b 367 389 315 510 367 461 z "},"⅐":{"ha":1225,"x_min":0,"x_max":0,"o":"m 39 826 l 174 865 l 174 381 l 271 381 l 271 974 l 39 921 z m 810 972 l 88 0 l 210 0 l 932 972 z m 753 490 l 1042 490 l 803 0 l 907 0 l 1188 583 l 753 583 z "},"⅑":{"ha":1144,"x_min":0,"x_max":0,"o":"m 39 826 l 174 865 l 174 381 l 271 381 l 271 974 l 39 921 z m 806 972 l 83 0 l 206 0 l 928 972 z m 883 4 l 1067 251 b 1117 389 1094 289 1117 336 b 903 597 1117 518 1022 597 b 689 389 783 597 689 518 b 864 200 689 278 772 200 b 926 211 889 200 908 203 l 757 4 z m 1021 389 b 903 267 1021 317 969 267 b 785 389 836 267 785 317 b 903 510 785 461 836 510 b 1021 389 969 510 1021 461 z "},"⅒":{"ha":1572,"x_min":0,"x_max":0,"o":"m 39 826 l 174 865 l 174 381 l 271 381 l 271 974 l 39 921 z m 806 972 l 83 0 l 206 0 l 928 972 z m 713 447 l 849 486 l 849 1 l 944 1 l 944 594 l 713 542 z m 1075 292 b 1303 -10 1075 113 1169 -10 b 1529 292 1439 -10 1529 113 b 1303 593 1529 471 1439 593 b 1075 292 1169 593 1075 471 z m 1172 292 b 1303 504 1172 417 1224 504 b 1432 292 1382 504 1432 417 b 1303 79 1432 167 1382 79 b 1172 292 1224 79 1172 167 z "},"⅓":{"ha":1114,"x_min":0,"x_max":0,"o":"m 39 826 l 174 865 l 174 381 l 271 381 l 271 974 l 39 921 z m 806 972 l 83 0 l 206 0 l 928 972 z m 878 -11 b 1078 157 997 -11 1078 57 b 963 306 1078 236 1032 283 b 1061 435 1024 331 1061 376 b 883 593 1061 519 996 593 b 701 428 776 593 701 524 l 794 428 b 883 510 794 475 833 510 b 963 431 936 510 963 478 b 849 339 963 381 919 339 l 849 265 b 979 167 928 265 979 229 b 879 75 979 108 939 75 b 775 167 819 75 775 110 l 676 167 b 878 -11 676 71 754 -11 z "},"⅔":{"ha":1294,"x_min":0,"x_max":0,"o":"m 42 392 l 486 392 l 486 483 l 233 483 l 399 644 b 479 804 446 690 479 743 b 285 986 479 888 419 986 b 72 769 151 986 72 893 l 171 769 b 283 897 171 847 217 897 b 378 806 347 897 378 851 b 311 676 378 758 353 721 z m 993 972 l 271 0 l 392 0 l 1114 972 z m 1058 -11 b 1258 157 1178 -11 1258 57 b 1142 306 1258 236 1213 283 b 1242 435 1203 331 1242 376 b 1063 593 1242 519 1175 593 b 881 428 956 593 881 524 l 974 428 b 1063 510 974 475 1013 510 b 1143 431 1115 510 1143 478 b 1028 339 1143 381 1099 339 l 1028 265 b 1160 167 1107 265 1160 229 b 1060 75 1160 108 1119 75 b 956 167 1000 75 956 110 l 856 167 b 1058 -11 856 71 935 -11 z "},"⅕":{"ha":1099,"x_min":0,"x_max":0,"o":"m 39 826 l 174 865 l 174 381 l 271 381 l 271 974 l 39 921 z m 806 972 l 83 0 l 206 0 l 928 972 z m 831 494 l 1056 494 l 1056 581 l 756 581 l 678 258 b 832 306 738 294 781 306 b 956 193 900 306 956 264 b 832 79 956 122 910 79 b 685 164 776 79 719 118 l 628 92 b 844 -12 672 36 738 -12 b 1061 186 957 -12 1061 51 b 886 382 1061 304 983 382 b 793 360 853 382 822 375 z "},"⅖":{"ha":1283,"x_min":0,"x_max":0,"o":"m 42 392 l 486 392 l 486 483 l 233 483 l 399 644 b 479 804 446 690 479 743 b 285 986 479 888 419 986 b 72 769 151 986 72 893 l 171 769 b 283 897 171 847 217 897 b 378 806 347 897 378 851 b 311 676 378 758 353 721 z m 993 972 l 271 0 l 392 0 l 1114 972 z m 1010 494 l 1236 494 l 1236 581 l 936 581 l 857 258 b 1013 306 917 294 961 306 b 1136 193 1081 306 1136 264 b 1013 79 1136 122 1090 79 b 865 164 957 79 900 118 l 807 92 b 1025 -12 851 36 918 -12 b 1242 186 1138 -12 1242 51 b 1067 382 1242 304 1164 382 b 972 360 1033 382 1001 375 z "},"⅗":{"ha":1210,"x_min":0,"x_max":0,"o":"m 239 378 b 440 546 358 378 440 446 b 324 694 440 625 394 672 b 424 824 385 719 424 765 b 244 982 424 908 357 982 b 63 817 138 982 63 913 l 156 817 b 244 899 156 864 194 899 b 324 819 297 899 324 867 b 210 728 324 769 281 728 l 210 654 b 340 556 289 654 340 618 b 242 464 340 497 301 464 b 136 556 182 464 136 499 l 38 556 b 239 378 38 460 115 378 z m 921 972 l 199 0 l 319 0 l 1042 972 z m 933 494 l 1160 494 l 1160 581 l 860 581 l 782 258 b 936 306 842 294 885 306 b 1060 193 1004 306 1060 264 b 936 79 1060 122 1014 79 b 789 164 881 79 824 118 l 731 92 b 949 -12 775 36 842 -12 b 1165 186 1061 -12 1165 51 b 990 382 1165 304 1088 382 b 897 360 957 382 926 375 z "},"⅘":{"ha":1286,"x_min":0,"x_max":0,"o":"m 983 972 l 261 0 l 382 0 l 1104 972 z m 518 500 l 518 586 l 426 586 l 426 972 l 367 972 l 38 500 l 325 500 l 325 389 l 426 389 l 426 500 z m 332 796 l 332 579 l 182 579 z m 1014 493 l 1239 493 l 1239 581 l 939 581 l 861 258 b 1015 306 921 294 964 306 b 1139 193 1083 306 1139 264 b 1015 79 1139 122 1093 79 b 868 163 960 79 903 117 l 811 92 b 1028 -12 856 36 921 -12 b 1244 186 1140 -12 1244 51 b 1069 381 1244 304 1167 381 b 976 360 1036 381 1006 375 z "},"⅙":{"ha":1094,"x_min":0,"x_max":0,"o":"m 39 826 l 174 865 l 174 381 l 271 381 l 271 974 l 39 921 z m 817 972 l 94 0 l 215 0 l 938 972 z m 867 579 l 682 332 b 632 194 654 294 632 247 b 846 -14 632 65 726 -14 b 1061 194 965 -14 1061 65 b 885 383 1061 306 976 383 b 825 374 861 383 842 382 l 992 579 z m 729 194 b 846 317 729 267 779 317 b 964 194 913 317 964 267 b 846 74 964 122 913 74 b 729 194 779 74 729 122 z "},"⅚":{"ha":1231,"x_min":0,"x_max":0,"o":"m 961 972 l 239 0 l 361 0 l 1083 972 z m 475 575 b 301 771 475 693 399 771 b 207 749 268 771 236 764 l 244 883 l 471 883 l 471 969 l 171 969 l 92 647 b 246 694 151 683 194 694 b 371 582 314 694 371 653 b 246 468 371 511 324 468 b 99 553 190 468 133 507 l 42 481 b 260 376 86 425 153 376 b 475 575 372 376 475 440 z m 1001 579 l 817 332 b 767 194 789 294 767 247 b 981 -14 767 65 861 -14 b 1194 194 1100 -14 1194 65 b 1019 383 1194 306 1111 383 b 960 374 996 383 976 382 l 1126 579 z m 863 194 b 981 317 863 267 914 317 b 1099 194 1047 317 1099 267 b 981 74 1099 122 1047 74 b 863 194 914 74 863 122 z "},"⅛":{"ha":1128,"x_min":0,"x_max":0,"o":"m 39 826 l 174 865 l 174 381 l 271 381 l 271 974 l 39 921 z m 817 972 l 94 0 l 215 0 l 938 972 z m 693 158 b 890 -11 693 63 782 -11 b 1086 158 999 -11 1086 63 b 981 310 1086 235 1040 286 b 1065 443 1031 335 1065 379 b 890 594 1065 531 988 594 b 714 443 793 594 714 531 b 800 310 714 379 749 335 b 693 158 740 286 693 235 z m 808 432 b 890 515 808 482 842 515 b 972 432 939 515 972 482 b 890 350 972 382 935 350 b 808 432 846 350 808 382 z m 790 172 b 890 269 790 228 838 269 b 989 172 943 269 989 228 b 890 74 989 108 943 74 b 790 172 838 74 790 108 z "},"⅜":{"ha":1235,"x_min":0,"x_max":0,"o":"m 239 378 b 440 546 358 378 440 446 b 324 694 440 625 394 672 b 424 824 385 719 424 765 b 244 982 424 908 357 982 b 63 817 138 982 63 913 l 156 817 b 244 899 156 864 194 899 b 324 819 297 899 324 867 b 210 728 324 769 281 728 l 210 654 b 340 556 289 654 340 618 b 242 464 340 497 301 464 b 136 556 182 464 136 499 l 38 556 b 239 378 38 460 115 378 z m 924 972 l 201 0 l 322 0 l 1044 972 z m 800 158 b 997 -11 800 63 889 -11 b 1193 158 1106 -11 1193 63 b 1088 310 1193 235 1147 286 b 1172 443 1138 335 1172 379 b 997 594 1172 531 1094 594 b 821 443 900 594 821 531 b 907 310 821 379 856 335 b 800 158 847 286 800 235 z m 915 432 b 997 515 915 482 949 515 b 1079 432 1046 515 1079 482 b 997 350 1079 382 1042 350 b 915 432 953 350 915 382 z m 897 172 b 997 269 897 228 944 269 b 1096 172 1050 269 1096 228 b 997 74 1096 108 1050 74 b 897 172 944 74 897 108 z "},"⅝":{"ha":1272,"x_min":0,"x_max":0,"o":"m 961 972 l 239 0 l 361 0 l 1083 972 z m 472 575 b 297 771 472 693 394 771 b 204 749 264 771 233 764 l 240 883 l 467 883 l 467 969 l 167 969 l 89 647 b 243 694 149 683 192 694 b 367 582 311 694 367 653 b 243 468 367 511 321 468 b 96 553 188 468 131 507 l 39 481 b 256 376 83 425 149 376 b 472 575 368 376 472 440 z m 839 158 b 1035 -11 839 63 926 -11 b 1232 158 1143 -11 1232 63 b 1125 310 1232 235 1185 286 b 1211 443 1176 335 1211 379 b 1035 594 1211 531 1132 594 b 860 443 938 594 860 531 b 944 310 860 379 894 335 b 839 158 885 286 839 235 z m 953 432 b 1035 515 953 482 986 515 b 1117 432 1083 515 1117 482 b 1035 350 1117 382 1079 350 b 953 432 990 350 953 382 z m 936 172 b 1035 269 936 228 982 269 b 1135 172 1088 269 1135 228 b 1035 74 1135 108 1088 74 b 936 172 982 74 936 108 z "},"⅞":{"ha":1119,"x_min":0,"x_max":0,"o":"m 806 972 l 83 0 l 204 0 l 926 972 z m 38 879 l 328 879 l 89 389 l 193 389 l 474 972 l 38 972 z m 686 158 b 882 -11 686 63 774 -11 b 1079 158 990 -11 1079 63 b 972 310 1079 235 1032 286 b 1058 443 1024 335 1058 379 b 882 594 1058 531 979 594 b 707 443 785 594 707 531 b 792 310 707 379 742 335 b 686 158 732 286 686 235 z m 800 432 b 882 515 800 482 833 515 b 964 432 931 515 964 482 b 882 350 964 382 926 350 b 800 432 838 350 800 382 z m 783 172 b 882 269 783 228 829 269 b 982 172 935 269 982 228 b 882 74 982 108 935 74 b 783 172 829 74 783 108 z "},"_":{"ha":711,"x_min":0,"x_max":0,"o":"m 0 -196 l 711 -196 l 711 -97 l 0 -97 z "},"-":{"ha":297,"x_min":0,"x_max":0,"o":"m 7 263 l 292 263 l 292 397 l 7 397 z "},"‐":{"ha":297,"x_min":0,"x_max":0,"o":"m 7 263 l 292 263 l 292 397 l 7 397 z "},"‒":{"ha":839,"x_min":0,"x_max":0,"o":"m 97 263 l 738 263 l 738 397 l 97 397 z "},"–":{"ha":1051,"x_min":0,"x_max":0,"o":"m 97 263 l 951 263 l 951 397 l 97 397 z "},"—":{"ha":1264,"x_min":0,"x_max":0,"o":"m 97 263 l 1165 263 l 1165 397 l 97 397 z "},"(":{"ha":447,"x_min":0,"x_max":0,"o":"m 276 1083 b 113 403 165 875 113 639 b 276 -278 113 167 165 -69 l 415 -278 b 271 403 318 -69 271 167 b 415 1083 271 639 318 875 z "},"[":{"ha":450,"x_min":0,"x_max":0,"o":"m 283 949 l 424 949 l 424 1083 l 133 1083 l 133 -306 l 424 -306 l 424 -171 l 283 -171 z "},"{":{"ha":479,"x_min":0,"x_max":0,"o":"m 296 889 b 363 958 296 925 321 958 l 411 958 l 411 1083 l 310 1083 b 136 889 228 1083 136 1026 l 136 611 b 63 458 136 506 111 472 l 63 347 b 136 194 111 333 136 300 l 136 -83 b 310 -278 136 -221 228 -278 l 411 -278 l 411 -153 l 363 -153 b 296 -83 321 -153 296 -119 l 296 125 b 194 403 296 228 292 360 b 296 681 292 446 296 578 z "},"‚":{"ha":413,"x_min":0,"x_max":0,"o":"m 164 111 l 83 -222 l 189 -222 l 329 111 z "},"„":{"ha":707,"x_min":0,"x_max":0,"o":"m 150 111 l 69 -222 l 175 -222 l 315 111 z m 444 111 l 364 -222 l 471 -222 l 611 111 z "},")":{"ha":447,"x_min":0,"x_max":0,"o":"m 172 -278 b 335 403 283 -69 335 167 b 172 1083 335 639 283 875 l 33 1083 b 178 403 131 875 178 639 b 33 -278 178 167 131 -69 z "},"]":{"ha":450,"x_min":0,"x_max":0,"o":"m 168 -171 l 28 -171 l 28 -306 l 318 -306 l 318 1083 l 28 1083 l 28 949 l 168 949 z "},"}":{"ha":479,"x_min":0,"x_max":0,"o":"m 194 -83 b 128 -153 194 -119 169 -153 l 79 -153 l 79 -278 l 179 -278 b 354 -83 261 -278 354 -221 l 354 194 b 428 347 354 300 379 333 l 428 458 b 354 611 379 472 354 506 l 354 889 b 179 1083 354 1026 261 1083 l 79 1083 l 79 958 l 128 958 b 194 889 169 958 194 925 l 194 681 b 294 403 194 578 199 446 b 194 125 199 360 194 228 z "},"«":{"ha":725,"x_min":0,"x_max":0,"o":"m 438 360 l 646 618 l 553 692 l 294 354 l 553 17 l 646 90 z m 192 360 l 400 618 l 306 692 l 49 354 l 306 17 l 400 90 z "},"‘":{"ha":413,"x_min":0,"x_max":0,"o":"m 264 639 l 343 972 l 238 972 l 97 639 z "},"“":{"ha":707,"x_min":0,"x_max":0,"o":"m 264 639 l 343 972 l 238 972 l 97 639 z m 560 639 l 639 972 l 533 972 l 392 639 z "},"‹":{"ha":486,"x_min":0,"x_max":0,"o":"m 192 360 l 400 618 l 306 692 l 49 354 l 306 17 l 400 90 z "},"»":{"ha":725,"x_min":0,"x_max":0,"o":"m 289 349 l 81 90 l 174 17 l 431 354 l 174 692 l 81 618 z m 535 349 l 326 90 l 419 17 l 678 354 l 419 692 l 326 618 z "},"’":{"ha":413,"x_min":0,"x_max":0,"o":"m 150 972 l 69 639 l 175 639 l 315 972 z "},"”":{"ha":707,"x_min":0,"x_max":0,"o":"m 150 972 l 69 639 l 175 639 l 315 972 z m 444 972 l 364 639 l 471 639 l 611 972 z "},"›":{"ha":486,"x_min":0,"x_max":0,"o":"m 294 349 l 86 90 l 181 17 l 438 354 l 181 692 l 86 618 z "},"!":{"ha":440,"x_min":0,"x_max":0,"o":"m 126 972 l 161 294 l 279 294 l 314 972 z m 122 68 b 221 -26 122 15 165 -26 b 318 68 276 -26 318 15 b 221 161 318 121 276 161 b 122 68 165 161 122 121 z "},"\"":{"ha":675,"x_min":0,"x_max":0,"o":"m 167 972 l 100 544 l 201 544 l 335 972 z m 433 972 l 368 544 l 468 544 l 603 972 z "},"#":{"ha":874,"x_min":0,"x_max":0,"o":"m 49 263 l 161 263 l 97 0 l 233 0 l 297 263 l 469 263 l 407 0 l 542 0 l 606 263 l 771 263 l 771 383 l 635 383 l 686 596 l 826 596 l 826 717 l 715 717 l 778 972 l 643 972 l 579 717 l 407 717 l 469 972 l 333 972 l 271 717 l 104 717 l 104 596 l 242 596 l 190 383 l 49 383 z m 322 381 l 375 599 l 556 599 l 501 381 z "},"%":{"ha":1136,"x_min":0,"x_max":0,"o":"m 42 756 b 279 519 42 625 140 519 b 515 756 418 519 515 625 b 279 992 515 886 418 992 b 42 756 140 992 42 886 z m 831 972 l 157 0 l 306 0 l 981 972 z m 169 756 b 279 871 169 818 213 871 b 386 756 346 871 386 818 b 279 639 386 693 346 639 b 169 756 213 639 169 693 z m 622 217 b 858 -19 622 86 719 -19 b 1094 217 997 -19 1094 86 b 858 453 1094 347 997 453 b 622 217 719 453 622 347 z m 750 217 b 858 333 750 279 792 333 b 967 217 925 333 967 279 b 858 101 967 154 925 101 b 750 217 792 101 750 154 z "},"&":{"ha":979,"x_min":0,"x_max":0,"o":"m 778 0 l 954 0 l 790 185 b 947 376 849 244 900 311 l 839 453 b 703 282 796 392 751 333 l 492 518 b 682 767 615 597 682 667 b 431 990 682 883 590 990 b 168 765 272 990 168 893 b 294 543 168 671 240 600 b 56 257 189 494 56 421 b 379 -15 56 89 208 -15 b 692 96 501 -15 603 29 z m 319 760 b 429 864 319 819 358 864 b 538 758 497 864 538 818 b 415 604 538 708 493 654 b 319 760 363 661 319 707 z m 215 268 b 376 453 215 361 294 410 l 604 194 b 394 117 539 147 468 117 b 215 268 290 117 215 178 z "},"'":{"ha":407,"x_min":0,"x_max":0,"o":"m 167 972 l 100 544 l 201 544 l 335 972 z "},"*":{"ha":822,"x_min":0,"x_max":0,"o":"m 294 401 l 411 599 l 528 401 l 639 482 l 488 654 l 711 706 l 669 835 l 458 744 l 479 972 l 343 972 l 364 744 l 153 835 l 111 706 l 335 654 l 183 482 z "},",":{"ha":436,"x_min":0,"x_max":0,"o":"m 190 153 l 68 -207 l 179 -237 l 342 110 z "},".":{"ha":428,"x_min":0,"x_max":0,"o":"m 117 71 b 214 -26 117 18 158 -26 b 313 71 269 -26 313 18 b 214 168 313 124 269 168 b 117 71 158 168 117 124 z "},"/":{"ha":767,"x_min":0,"x_max":0,"o":"m 599 972 l 21 -208 l 172 -208 l 747 972 z "},":":{"ha":428,"x_min":0,"x_max":0,"o":"m 117 596 b 214 499 117 543 158 499 b 313 596 269 499 313 543 b 214 693 313 649 269 693 b 117 596 158 693 117 649 z m 117 71 b 214 -26 117 18 158 -26 b 313 71 269 -26 313 18 b 214 168 313 124 269 168 b 117 71 158 168 117 124 z "},";":{"ha":493,"x_min":0,"x_max":0,"o":"m 171 592 b 268 494 171 539 213 494 b 367 592 324 494 367 539 b 268 689 367 644 324 689 b 171 592 213 689 171 644 z m 203 153 l 81 -207 l 192 -237 l 353 110 z "},"?":{"ha":813,"x_min":0,"x_max":0,"o":"m 581 694 b 322 499 581 603 489 499 l 283 499 l 311 253 l 428 253 l 438 400 b 732 694 589 415 732 531 b 410 992 732 871 586 992 b 76 821 244 992 154 925 l 188 740 b 396 857 233 813 306 857 b 581 694 510 857 581 799 z m 274 67 b 372 -26 274 17 317 -26 b 469 67 428 -26 469 17 b 372 158 469 117 428 158 b 274 67 317 158 274 117 z "},"@":{"ha":1069,"x_min":0,"x_max":0,"o":"m 40 444 b 507 -22 40 168 203 -22 b 833 57 658 -22 750 8 l 783 154 b 514 88 696 103 611 88 b 160 444 292 88 160 225 b 576 883 160 696 322 883 b 910 542 799 883 910 724 b 789 314 910 369 828 314 b 743 375 750 314 743 342 b 746 413 743 386 744 403 l 794 722 l 667 722 l 656 642 b 514 736 628 697 581 736 b 267 438 399 736 267 631 b 456 219 267 300 350 219 b 636 321 528 219 594 254 b 774 206 649 254 703 206 b 1029 542 889 206 1029 296 b 576 993 1029 765 874 993 b 40 444 263 993 40 751 z m 397 444 b 531 624 397 550 463 624 b 629 511 588 624 629 583 b 490 332 629 385 551 332 b 397 444 428 332 397 374 z "},"\\":{"ha":732,"x_min":0,"x_max":0,"o":"m 21 972 l 560 0 l 711 0 l 174 972 z "},"¡":{"ha":440,"x_min":0,"x_max":0,"o":"m 318 574 b 221 667 318 626 276 667 b 122 574 165 667 122 626 b 221 479 122 521 165 479 b 318 574 276 479 318 521 z m 314 -332 l 279 346 l 161 346 l 126 -332 z "},"§":{"ha":660,"x_min":0,"x_max":0,"o":"m 151 231 l 56 144 b 333 -21 92 51 201 -21 b 585 181 471 -21 585 40 b 464 350 585 260 531 313 b 582 518 535 376 582 429 b 400 710 582 614 496 675 b 251 807 328 736 251 763 b 338 861 251 843 285 861 b 481 788 386 861 449 836 l 574 876 b 332 994 543 942 438 994 b 104 813 221 994 104 929 b 224 647 104 728 160 679 b 96 485 143 619 96 564 b 290 288 96 378 196 319 b 431 179 365 261 431 238 b 333 111 431 135 396 111 b 151 231 265 111 189 156 z m 242 513 b 317 607 242 557 269 585 b 436 493 379 582 436 554 b 369 392 436 451 408 411 b 242 513 307 414 242 439 z "},"¶":{"ha":854,"x_min":0,"x_max":0,"o":"m 400 375 l 400 -306 l 532 -306 l 532 867 l 639 867 l 639 -306 l 772 -306 l 772 972 l 400 972 b 83 674 226 972 83 867 b 400 375 83 481 226 375 z "},"·":{"ha":428,"x_min":0,"x_max":0,"o":"m 117 349 b 214 251 117 296 158 251 b 313 349 269 251 313 296 b 214 446 313 401 269 446 b 117 349 158 446 117 401 z "},"¿":{"ha":813,"x_min":0,"x_max":0,"o":"m 539 906 b 440 999 539 956 496 999 b 343 906 385 999 343 956 b 440 814 343 856 385 814 b 539 906 496 814 539 856 z m 232 278 b 490 474 232 369 324 474 l 529 474 l 501 719 l 385 719 l 375 572 b 81 278 224 557 81 442 b 403 -19 81 101 226 -19 b 736 151 568 -19 658 47 l 625 232 b 417 115 579 160 507 115 b 232 278 303 115 232 174 z "},"†":{"ha":825,"x_min":0,"x_max":0,"o":"m 125 750 l 125 618 l 340 618 l 340 -208 l 486 -208 l 486 618 l 701 618 l 701 750 l 486 750 l 486 972 l 340 972 l 340 750 z "},"‡":{"ha":825,"x_min":0,"x_max":0,"o":"m 125 188 l 125 56 l 340 56 l 340 -208 l 486 -208 l 486 56 l 701 56 l 701 188 l 486 188 l 486 618 l 701 618 l 701 750 l 486 750 l 486 972 l 340 972 l 340 750 l 125 750 l 125 618 l 340 618 l 340 188 z "},"•":{"ha":417,"x_min":0,"x_max":0,"o":"m 117 592 b 214 494 117 539 158 494 b 313 592 269 494 313 539 b 214 689 313 644 269 689 b 117 592 158 689 117 644 z "},"…":{"ha":1264,"x_min":0,"x_max":0,"o":"m 117 71 b 214 -26 117 18 158 -26 b 313 71 269 -26 313 18 b 214 168 313 124 269 168 b 117 71 158 168 117 124 z m 533 71 b 631 -26 533 18 575 -26 b 729 71 686 -26 729 18 b 631 168 729 124 686 168 b 533 71 575 168 533 124 z m 950 71 b 1047 -26 950 18 992 -26 b 1146 71 1103 -26 1146 18 b 1047 168 1146 124 1103 168 b 950 71 992 168 950 124 z "},"‰":{"ha":1706,"x_min":0,"x_max":0,"o":"m 42 756 b 279 519 42 625 140 519 b 515 756 418 519 515 625 b 279 992 515 886 418 992 b 42 756 140 992 42 886 z m 831 972 l 157 0 l 306 0 l 981 972 z m 169 756 b 279 871 169 818 213 871 b 386 756 346 871 386 818 b 279 639 386 693 346 639 b 169 756 213 639 169 693 z m 1192 217 b 1428 -19 1192 86 1289 -19 b 1664 217 1567 -19 1664 86 b 1428 453 1664 347 1567 453 b 1192 217 1289 453 1192 347 z m 622 217 b 858 -19 622 86 719 -19 b 1094 217 997 -19 1094 86 b 858 453 1094 347 997 453 b 622 217 719 453 622 347 z m 1319 217 b 1428 333 1319 279 1361 333 b 1536 217 1494 333 1536 279 b 1428 101 1536 154 1494 101 b 1319 217 1361 101 1319 154 z m 750 217 b 858 333 750 279 792 333 b 967 217 925 333 967 279 b 858 101 967 154 925 101 b 750 217 792 101 750 154 z "},"‱":{"ha":2275,"x_min":0,"x_max":0,"o":"m 42 756 b 279 519 42 625 140 519 b 515 756 418 519 515 625 b 279 992 515 886 418 992 b 42 756 140 992 42 886 z m 831 972 l 157 0 l 306 0 l 981 972 z m 169 756 b 279 871 169 818 213 871 b 386 756 346 871 386 818 b 279 639 386 693 346 639 b 169 756 213 639 169 693 z m 1761 217 b 1997 -19 1761 86 1858 -19 b 2233 217 2136 -19 2233 86 b 1997 453 2233 347 2136 453 b 1761 217 1858 453 1761 347 z m 1192 217 b 1428 -19 1192 86 1289 -19 b 1664 217 1567 -19 1664 86 b 1428 453 1664 347 1567 453 b 1192 217 1289 453 1192 347 z m 622 217 b 858 -19 622 86 719 -19 b 1094 217 997 -19 1094 86 b 858 453 1094 347 997 453 b 622 217 719 453 622 347 z m 1889 217 b 1997 333 1889 279 1931 333 b 2106 217 2064 333 2106 279 b 1997 101 2106 154 2064 101 b 1889 217 1931 101 1889 154 z m 1319 217 b 1428 333 1319 279 1361 333 b 1536 217 1494 333 1536 279 b 1428 101 1536 154 1494 101 b 1319 217 1361 101 1319 154 z m 750 217 b 858 333 750 279 792 333 b 967 217 925 333 967 279 b 858 101 967 154 925 101 b 750 217 792 101 750 154 z "},"‽":{"ha":813,"x_min":0,"x_max":0,"o":"m 286 706 l 318 253 l 418 253 l 428 397 b 732 694 578 414 732 526 b 408 990 732 871 585 990 b 76 821 240 990 140 918 l 188 740 b 390 857 231 817 300 857 b 588 683 510 857 588 796 b 435 496 588 603 528 528 l 450 706 z m 272 68 b 372 -26 272 15 317 -26 b 471 68 428 -26 471 15 b 372 161 471 121 428 161 b 272 68 317 161 272 121 z "},"+":{"ha":886,"x_min":0,"x_max":0,"o":"m 90 288 l 365 288 l 365 7 l 522 7 l 522 288 l 797 288 l 797 436 l 522 436 l 522 717 l 365 717 l 365 436 l 90 436 z "},"<":{"ha":889,"x_min":0,"x_max":0,"o":"m 321 367 l 799 561 l 799 710 l 90 408 l 90 314 l 799 13 l 799 161 z "},"=":{"ha":860,"x_min":0,"x_max":0,"o":"m 85 403 l 775 403 l 775 538 l 85 538 z m 85 164 l 775 164 l 775 299 l 85 299 z "},">":{"ha":889,"x_min":0,"x_max":0,"o":"m 568 356 l 90 161 l 90 13 l 799 314 l 799 408 l 90 710 l 90 561 z "},"|":{"ha":424,"x_min":0,"x_max":0,"o":"m 139 1090 l 139 -299 l 286 -299 l 286 1090 z "},"~":{"ha":799,"x_min":0,"x_max":0,"o":"m 206 238 b 199 272 201 249 199 260 b 268 343 199 314 221 343 b 386 296 303 343 344 326 b 550 228 449 251 500 228 b 692 297 611 228 656 250 b 725 410 718 332 725 375 b 719 449 725 424 722 438 l 588 456 b 594 414 593 442 594 426 b 542 351 594 375 578 351 b 442 397 517 351 483 367 b 269 465 381 442 326 465 b 110 389 197 465 146 438 b 74 278 82 353 74 314 b 78 244 74 265 75 254 z "},"¬":{"ha":878,"x_min":0,"x_max":0,"o":"m 90 401 l 667 401 l 667 243 l 788 243 l 788 536 l 90 536 z "},"±":{"ha":864,"x_min":0,"x_max":0,"o":"m 90 472 l 354 472 l 354 225 l 511 225 l 511 472 l 775 472 l 775 615 l 511 615 l 511 861 l 354 861 l 354 615 l 90 615 z m 90 3 l 775 3 l 775 142 l 90 142 z "},"×":{"ha":828,"x_min":0,"x_max":0,"o":"m 179 19 l 414 263 l 649 19 l 749 119 l 506 354 l 749 589 l 649 689 l 414 446 l 179 689 l 79 589 l 322 354 l 79 119 z "},"÷":{"ha":874,"x_min":0,"x_max":0,"o":"m 338 682 b 436 585 338 629 381 585 b 535 682 492 585 535 629 b 436 779 535 735 492 779 b 338 682 381 779 338 735 z m 64 332 l 807 332 l 807 474 l 64 474 z m 338 113 b 436 15 338 60 381 15 b 535 113 492 15 535 60 b 436 210 535 165 492 210 b 338 113 381 210 338 165 z "},"⁄":{"ha":993,"x_min":0,"x_max":0,"o":"m 806 972 l 83 0 l 204 0 l 926 972 z "},"∂":{"ha":796,"x_min":0,"x_max":0,"o":"m 397 -17 b 743 328 599 -17 743 128 b 308 1026 743 521 607 739 l 206 938 b 522 593 346 821 449 711 b 343 643 464 626 404 643 b 54 328 174 643 54 513 b 397 -17 54 126 197 -17 z m 399 121 b 208 319 288 121 208 204 b 399 521 208 436 289 521 b 589 319 508 521 589 436 b 399 121 589 204 510 121 z "},"∅":{"ha":833,"x_min":0,"x_max":0,"o":"m 175 38 l 235 97 b 417 36 285 58 349 36 b 717 336 583 36 717 169 b 657 517 717 404 694 467 l 717 576 l 656 636 l 597 578 b 417 638 547 615 485 638 b 115 336 250 638 115 503 b 175 157 115 268 138 207 l 115 97 z m 222 336 b 417 531 222 443 310 531 b 519 501 454 531 490 519 l 251 233 b 222 336 233 264 222 299 z m 417 142 b 311 174 378 142 342 153 l 581 440 b 611 336 600 411 611 375 b 417 142 611 233 525 142 z "},"∏":{"ha":833,"x_min":0,"x_max":0,"o":"m 204 0 l 340 0 l 340 849 l 493 849 l 493 0 l 629 0 l 629 849 l 743 849 l 743 972 l 90 972 l 90 849 l 204 849 z "},"∑":{"ha":833,"x_min":0,"x_max":0,"o":"m 139 0 l 694 0 l 694 129 l 349 129 l 521 489 l 349 843 l 694 843 l 694 972 l 139 972 l 375 489 z "},"−":{"ha":821,"x_min":0,"x_max":0,"o":"m 90 263 l 731 263 l 731 397 l 90 397 z "},"∕":{"ha":767,"x_min":0,"x_max":0,"o":"m 599 972 l 21 -208 l 172 -208 l 747 972 z "},"∙":{"ha":428,"x_min":0,"x_max":0,"o":"m 117 592 b 214 494 117 539 158 494 b 313 592 269 494 313 539 b 214 689 313 644 269 689 b 117 592 158 689 117 644 z "},"√":{"ha":833,"x_min":0,"x_max":0,"o":"m 339 -275 l 582 846 l 710 846 l 710 972 l 483 972 l 317 119 l 249 354 l 50 297 l 81 193 l 169 217 z "},"∞":{"ha":1072,"x_min":0,"x_max":0,"o":"m 275 56 b 538 222 363 56 449 111 b 799 56 626 111 710 56 b 1042 319 929 56 1042 179 b 799 581 1042 460 929 581 b 538 414 711 581 625 525 b 275 581 449 525 363 581 b 31 319 144 581 31 460 b 275 56 31 179 144 56 z m 296 185 b 172 319 232 185 172 250 b 296 453 172 390 232 453 b 465 319 353 453 413 406 b 296 185 411 233 353 185 z m 779 185 b 608 319 722 185 661 233 b 779 453 661 406 722 453 b 901 319 843 453 901 390 b 779 185 901 250 843 185 z "},"∫":{"ha":833,"x_min":0,"x_max":0,"o":"m 278 -278 b 479 -50 392 -281 471 -192 l 531 844 b 600 960 536 917 560 960 b 661 924 617 960 633 951 l 729 1035 b 585 1099 674 1081 633 1097 b 382 871 469 1101 390 1013 l 332 -25 b 261 -139 326 -97 301 -139 b 200 -103 244 -139 228 -131 l 132 -214 b 278 -278 188 -260 229 -276 z "},"≈":{"ha":833,"x_min":0,"x_max":0,"o":"m 554 489 b 719 708 667 489 747 593 l 588 715 b 544 613 610 658 590 613 b 442 658 519 613 486 626 b 267 725 379 703 321 725 b 78 504 143 725 47 613 l 206 497 b 265 604 183 561 208 604 b 386 557 304 604 339 590 b 554 489 447 513 504 489 z m 554 142 b 719 361 667 142 747 246 l 588 368 b 544 265 610 311 590 265 b 442 311 519 265 486 279 b 267 378 379 356 321 378 b 78 157 143 378 47 265 l 206 150 b 265 257 183 214 208 257 b 386 210 304 257 339 243 b 554 142 447 165 504 142 z "},"≠":{"ha":833,"x_min":0,"x_max":0,"o":"m 85 174 l 249 174 l 203 86 l 325 26 l 403 174 l 775 174 l 775 310 l 475 310 l 529 414 l 775 414 l 775 549 l 600 549 l 657 656 l 536 714 l 449 549 l 85 549 l 85 414 l 376 414 l 321 310 l 85 310 z "},"≤":{"ha":833,"x_min":0,"x_max":0,"o":"m 772 186 l 772 335 l 294 540 l 772 735 l 772 883 l 64 582 l 64 488 z m 64 3 l 775 3 l 775 142 l 64 142 z "},"≥":{"ha":833,"x_min":0,"x_max":0,"o":"m 90 186 l 799 488 l 799 582 l 90 883 l 90 735 l 568 529 l 90 335 z m 90 3 l 800 3 l 800 142 l 90 142 z "},"$":{"ha":828,"x_min":0,"x_max":0,"o":"m 617 700 l 744 779 b 490 981 704 867 622 957 l 492 1136 l 361 1136 l 364 982 b 117 739 219 960 117 860 b 368 450 117 557 271 485 b 585 260 481 408 585 365 b 438 128 585 176 538 128 b 190 328 324 128 251 201 l 64 246 b 364 -8 117 118 228 17 l 361 -156 l 492 -156 l 489 -11 b 757 267 660 8 757 111 b 511 560 757 440 625 518 b 288 735 393 604 288 639 b 426 849 288 806 329 849 b 617 700 519 849 575 781 z "},"¢":{"ha":806,"x_min":0,"x_max":0,"o":"m 249 319 b 449 524 249 439 338 524 b 657 415 544 524 625 475 l 657 582 b 481 651 619 619 553 644 l 485 803 l 360 803 l 363 646 b 96 319 206 614 96 489 b 363 -7 96 150 206 25 l 360 -156 l 485 -156 l 481 -12 b 657 57 553 -6 619 18 l 657 224 b 449 115 625 164 544 115 b 249 319 338 115 249 197 z "},"£":{"ha":822,"x_min":0,"x_max":0,"o":"m 93 514 l 93 396 l 283 396 b 286 367 285 386 286 376 b 82 0 286 238 218 142 l 731 0 l 731 144 l 329 144 b 435 369 389 200 435 281 b 433 396 435 379 435 388 l 604 396 l 604 514 l 389 514 b 304 708 351 572 304 621 b 453 842 304 803 376 842 b 617 658 565 842 611 749 l 751 711 b 449 986 744 825 644 986 b 144 721 276 986 144 886 b 224 514 144 625 186 567 z "},"¤":{"ha":803,"x_min":0,"x_max":0,"o":"m 121 58 l 206 144 b 403 83 260 106 328 83 b 599 144 478 83 544 106 l 685 58 l 758 135 l 674 219 b 733 417 711 274 733 342 b 674 614 733 492 711 560 l 758 699 l 685 775 l 599 689 b 403 750 544 728 478 750 b 206 689 328 750 260 728 l 121 775 l 43 699 l 131 613 b 72 417 94 558 72 492 b 131 221 72 342 94 275 l 43 135 z m 215 417 b 403 611 215 531 294 611 b 589 417 511 611 589 531 b 403 222 589 303 511 222 b 215 417 294 222 215 303 z "},"¥":{"ha":854,"x_min":0,"x_max":0,"o":"m 63 181 l 344 181 l 344 0 l 513 0 l 513 181 l 786 181 l 786 299 l 513 299 l 513 389 l 786 389 l 786 507 l 567 507 l 840 972 l 654 972 l 428 556 l 201 972 l 14 972 l 288 507 l 63 507 l 63 389 l 344 389 l 344 299 l 63 299 z "},"€":{"ha":847,"x_min":0,"x_max":0,"o":"m 35 378 l 122 378 b 539 -19 160 144 319 -19 b 747 38 614 -19 685 1 l 747 211 b 539 125 690 156 618 125 b 278 378 406 125 308 221 l 700 378 l 700 465 l 268 465 b 268 486 268 472 268 479 b 271 551 268 508 269 531 l 733 551 l 733 638 l 289 638 b 539 847 328 768 419 847 b 747 761 618 847 690 817 l 747 935 b 539 992 685 971 614 992 b 131 638 332 992 179 849 l 43 638 l 43 551 l 117 551 b 114 486 115 531 114 508 b 114 465 114 479 114 472 l 35 465 z "},"^":{"ha":708,"x_min":0,"x_max":0,"o":"m 354 840 l 490 632 l 632 632 l 396 986 l 313 986 l 76 632 l 218 632 z "},"`":{"ha":521,"x_min":0,"x_max":0,"o":"m 92 914 l 342 706 l 428 753 l 219 975 z "},"¨":{"ha":675,"x_min":0,"x_max":0,"o":"m 394 901 b 489 810 394 850 436 810 b 583 901 542 810 583 850 b 489 993 583 953 542 993 b 394 901 436 993 394 953 z m 92 901 b 188 810 92 850 135 810 b 282 901 240 810 282 850 b 188 993 282 953 240 993 b 92 901 135 993 92 953 z "},"¯":{"ha":719,"x_min":0,"x_max":0,"o":"m 111 818 l 610 818 l 610 953 l 111 953 z "},"´":{"ha":521,"x_min":0,"x_max":0,"o":"m 428 914 l 300 975 l 92 753 l 178 706 z "},"¸":{"ha":510,"x_min":0,"x_max":0,"o":"m 265 89 l 146 -158 b 239 -135 183 -139 225 -135 b 314 -183 285 -135 314 -149 b 242 -236 314 -217 289 -236 b 153 -201 208 -236 182 -225 l 99 -272 b 253 -326 149 -312 190 -326 b 415 -187 333 -326 415 -278 b 304 -72 415 -110 354 -72 b 276 -74 294 -72 285 -72 l 378 88 z "},"˘":{"ha":758,"x_min":0,"x_max":0,"o":"m 157 1181 b 379 983 157 1078 233 983 b 601 1181 525 983 601 1078 l 488 1181 b 379 1085 488 1139 460 1085 b 271 1181 299 1085 271 1139 z "},"˙":{"ha":417,"x_min":0,"x_max":0,"o":"m 114 1110 b 208 1018 114 1058 156 1018 b 303 1110 261 1018 303 1058 b 208 1201 303 1161 261 1201 b 114 1110 156 1201 114 1161 z "},"˚":{"ha":414,"x_min":0,"x_max":0,"o":"m 53 1082 b 207 935 53 993 125 935 b 361 1082 289 935 361 993 b 207 1229 361 1171 289 1229 b 53 1082 125 1229 53 1171 z m 139 1082 b 207 1153 139 1126 172 1153 b 275 1082 242 1153 275 1126 b 207 1011 275 1038 242 1011 b 139 1082 172 1011 139 1038 z "},"˛":{"ha":361,"x_min":0,"x_max":0,"o":"m 269 -169 b 200 -197 250 -187 233 -197 b 140 -136 161 -197 140 -181 b 263 0 140 -87 190 -33 l 206 35 b 19 -167 108 -15 19 -82 b 186 -306 19 -251 81 -306 b 315 -250 253 -306 294 -278 z "},"˜":{"ha":736,"x_min":0,"x_max":0,"o":"m 125 875 l 210 810 b 276 881 210 831 221 881 b 456 811 342 881 379 811 b 618 921 532 811 596 869 l 540 997 b 457 928 513 953 486 928 b 278 996 381 928 368 996 b 125 875 204 996 139 943 z "},"˝":{"ha":0,"x_min":0,"x_max":0,"o":"m 94 717 l 286 978 l 150 1011 l 0 744 z m 335 717 l 529 978 l 390 1011 l 242 744 z "},"¦":{"ha":424,"x_min":0,"x_max":0,"o":"m 139 965 l 139 618 l 286 618 l 286 965 z m 286 354 l 139 354 l 139 7 l 286 7 z "},"©":{"ha":1111,"x_min":0,"x_max":0,"o":"m 56 486 b 556 -14 56 196 272 -14 b 1056 486 839 -14 1056 196 b 556 986 1056 776 839 986 b 56 486 272 986 56 776 z m 132 486 b 556 917 132 733 315 917 b 979 486 796 917 979 733 b 556 56 979 239 796 56 b 132 486 315 56 132 239 z m 360 486 b 560 692 360 611 447 692 b 742 610 642 692 703 657 l 742 726 b 557 789 693 767 642 789 b 253 486 385 789 253 663 b 557 183 253 310 385 183 b 742 246 642 183 693 206 l 742 363 b 560 281 703 315 642 281 b 360 486 447 281 360 361 z "},"®":{"ha":1111,"x_min":0,"x_max":0,"o":"m 56 486 b 556 -14 56 196 272 -14 b 1056 486 839 -14 1056 196 b 556 986 1056 776 839 986 b 56 486 272 986 56 776 z m 132 486 b 556 917 132 733 315 917 b 979 486 796 917 979 733 b 556 56 979 239 796 56 b 132 486 315 56 132 239 z m 369 792 l 369 208 l 468 208 l 468 433 l 529 433 l 672 208 l 790 208 l 625 443 b 760 614 708 465 760 528 b 550 792 760 719 676 792 z m 544 707 b 658 611 613 707 658 674 b 544 514 658 549 613 514 l 468 514 l 468 707 z "},"°":{"ha":396,"x_min":0,"x_max":0,"o":"m 26 832 b 199 664 26 733 100 664 b 371 832 297 664 371 733 b 199 1000 371 931 297 1000 b 26 832 100 1000 26 931 z m 100 832 b 199 933 100 892 143 933 b 296 832 254 933 296 892 b 199 731 296 772 254 731 b 100 832 143 731 100 772 z "},"™":{"ha":968,"x_min":0,"x_max":0,"o":"m 861 996 l 661 667 l 461 996 l 394 486 l 479 486 l 513 775 l 661 531 l 810 775 l 842 486 l 926 486 z m 43 897 l 172 897 l 172 486 l 254 486 l 254 897 l 383 897 l 383 972 l 43 972 z "},"◊":{"ha":833,"x_min":0,"x_max":0,"o":"m 425 21 l 694 494 l 425 967 l 139 494 z m 421 278 l 288 494 l 421 711 l 546 494 z "}," ":{"ha":417,"x_min":0,"x_max":0,"o":""}," ":{"ha":417,"x_min":0,"x_max":0,"o":""},"\u0000":{"ha":417,"x_min":0,"x_max":0,"o":""},"\r":{"ha":417,"x_min":0,"x_max":0,"o":""},"­":{"ha":292,"x_min":0,"x_max":0,"o":"m 7 278 l 285 278 l 285 382 l 7 382 z "}}}
